ScienceGothic-LtExpCtrS.ufo
<glyph name="exclam" format="2">
  <advance width="722"/>
  <unicode hex="0021"/>
  <outline>
    <contour>
      <point x="196.585" y="22" type="line"/>
      <point x="203.585" y="64" type="line" smooth="yes"/>
      <point x="205.585" y="74"/>
      <point x="208.585" y="84"/>
      <point x="214.585" y="89"/>
      <point x="224.585" y="90"/>
      <point x="234.585" y="90" type="qcurve" smooth="yes"/>
      <point x="276.585" y="90" type="line" smooth="yes"/>
      <point x="286.585" y="90"/>
      <point x="296.585" y="89"/>
      <point x="300.585" y="84"/>
      <point x="299.585" y="74"/>
      <point x="297.585" y="64" type="qcurve" smooth="yes"/>
      <point x="290.585" y="22" type="line" smooth="yes"/>
      <point x="288.585" y="12"/>
      <point x="285.585" y="2"/>
      <point x="279.585" y="-3"/>
      <point x="269.585" y="-4"/>
      <point x="259.585" y="-4" type="qcurve" smooth="yes"/>
      <point x="217.585" y="-4" type="line" smooth="yes"/>
      <point x="207.585" y="-4"/>
      <point x="197.585" y="-3"/>
      <point x="193.585" y="2"/>
      <point x="194.585" y="12"/>
      <point x="196.585" y="22" type="qcurve"/>
    </contour>
    <contour>
      <point x="279.585" y="330" type="line"/>
      <point x="463.585" y="1400" type="line"/>
      <point x="503.585" y="1400" type="line"/>
      <point x="315.585" y="330" type="line"/>
    </contour>
  </outline>
</glyph>
<glyph name="ampersand" format="2">
  <advance width="2212"/>
  <unicode hex="0026"/>
  <outline>
    <contour>
      <point x="267" y="0" type="line"/>
      <point x="915" y="0" type="line" smooth="yes"/>
      <point x="978" y="0"/>
      <point x="1084" y="14"/>
      <point x="1183" y="46"/>
      <point x="1283" y="100"/>
      <point x="1340" y="139" type="qcurve" smooth="yes"/>
      <point x="1608" y="326" type="line"/>
      <point x="2021" y="0" type="line"/>
      <point x="2092" y="0" type="line"/>
      <point x="1645" y="353" type="line"/>
      <point x="2089" y="662" type="line"/>
      <point x="2067" y="688" type="line"/>
      <point x="1617" y="375" type="line"/>
      <point x="903" y="936" type="line" smooth="yes"/>
      <point x="858" y="972"/>
      <point x="789" y="1032"/>
      <point x="744" y="1088"/>
      <point x="726" y="1144"/>
      <point x="732" y="1177" type="qcurve" smooth="yes"/>
      <point x="735" y="1190" type="line"/>
      <point x="742" y="1232"/>
      <point x="783" y="1296"/>
      <point x="844" y="1341"/>
      <point x="922" y="1364"/>
      <point x="967" y="1364" type="qcurve" smooth="yes"/>
      <point x="1359" y="1364" type="line" smooth="yes"/>
      <point x="1404" y="1364"/>
      <point x="1476" y="1331"/>
      <point x="1522" y="1272"/>
      <point x="1541" y="1191"/>
      <point x="1532" y="1142" type="qcurve" smooth="yes"/>
      <point x="1529" y="1123" type="line"/>
      <point x="1571" y="1132" type="line"/>
      <point x="1572" y="1140" type="line" smooth="yes"/>
      <point x="1582" y="1197"/>
      <point x="1561" y="1292"/>
      <point x="1506" y="1361"/>
      <point x="1421" y="1400"/>
      <point x="1367" y="1400" type="qcurve" smooth="yes"/>
      <point x="971" y="1400" type="line" smooth="yes"/>
      <point x="916" y="1400"/>
      <point x="822" y="1371"/>
      <point x="750" y="1316"/>
      <point x="703" y="1238"/>
      <point x="695" y="1190" type="qcurve"/>
      <point x="692" y="1177" type="line"/>
      <point x="686" y="1141"/>
      <point x="701" y="1079"/>
      <point x="738" y="1023"/>
      <point x="794" y="969"/>
      <point x="828" y="941" type="qcurve"/>
      <point x="284" y="634" type="line" smooth="yes"/>
      <point x="221" y="598"/>
      <point x="130" y="531"/>
      <point x="69" y="460"/>
      <point x="33" y="381"/>
      <point x="25" y="333" type="qcurve" smooth="yes"/>
      <point x="14" y="270" type="line" smooth="yes"/>
      <point x="3" y="207"/>
      <point x="27" y="107"/>
      <point x="92" y="37"/>
      <point x="197" y="0"/>
      <point x="267" y="0" type="qcurve"/>
    </contour>
    <contour>
      <point x="275" y="36" type="line" smooth="yes"/>
      <point x="211" y="36"/>
      <point x="119" y="69"/>
      <point x="64" y="130"/>
      <point x="45" y="216"/>
      <point x="54" y="268" type="qcurve" smooth="yes"/>
      <point x="65" y="335" type="line" smooth="yes"/>
      <point x="71" y="370"/>
      <point x="99" y="436"/>
      <point x="150" y="501"/>
      <point x="232" y="566"/>
      <point x="292" y="600" type="qcurve" smooth="yes"/>
      <point x="856" y="918" type="line"/>
      <point x="1582" y="348" type="line"/>
      <point x="1309" y="158" type="line" smooth="yes"/>
      <point x="1259" y="123"/>
      <point x="1172" y="76"/>
      <point x="1085" y="48"/>
      <point x="993" y="36"/>
      <point x="937" y="36" type="qcurve" smooth="yes"/>
    </contour>
  </outline>
  <guideline x="63"/>
  <guideline x="995"/>
  <guideline x="-217"/>
</glyph>
<glyph name="quotesingle" format="2">
  <advance width="670.389"/>
  <unicode hex="0027"/>
  <outline>
    <contour>
      <point x="377.936" y="1036" type="line"/>
      <point x="447.936" y="1433" type="line" smooth="yes"/>
      <point x="448.936" y="1439"/>
      <point x="450.936" y="1446"/>
      <point x="455.936" y="1450"/>
      <point x="463.936" y="1451"/>
      <point x="469.936" y="1451" type="qcurve"/>
      <point x="471.936" y="1451" type="line"/>
      <point x="477.936" y="1451"/>
      <point x="485.936" y="1450"/>
      <point x="488.936" y="1446"/>
      <point x="488.936" y="1439"/>
      <point x="487.936" y="1433" type="qcurve" smooth="yes"/>
      <point x="417.936" y="1036" type="line"/>
      <point x="384.936" y="905" type="line"/>
      <point x="364.936" y="905" type="line"/>
    </contour>
  </outline>
</glyph>
<glyph name="parenleft" format="2">
  <advance width="809"/>
  <unicode hex="0028"/>
  <outline>
    <contour>
      <point x="538.624" y="-256" type="line"/>
      <point x="493.624" y="-256" type="line"/>
      <point x="411.624" y="-184"/>
      <point x="293.624" y="9"/>
      <point x="226.624" y="232"/>
      <point x="212.624" y="475"/>
      <point x="233.624" y="597" type="qcurve" smooth="yes"/>
      <point x="254.624" y="719"/>
      <point x="353.624" y="961"/>
      <point x="498.624" y="1183"/>
      <point x="683.624" y="1376"/>
      <point x="790.624" y="1448" type="qcurve"/>
      <point x="835.624" y="1448" type="line"/>
      <point x="767.624" y="1404"/>
      <point x="637.624" y="1289"/>
      <point x="521.624" y="1156"/>
      <point x="421.624" y="1007"/>
      <point x="341.624" y="847"/>
      <point x="283.624" y="681"/>
      <point x="269.624" y="597" type="qcurve" smooth="yes"/>
      <point x="254.624" y="513"/>
      <point x="253.624" y="346"/>
      <point x="278.624" y="187"/>
      <point x="326.624" y="37"/>
      <point x="396.624" y="-97"/>
      <point x="485.624" y="-212"/>
      <point x="538.624" y="-256" type="qcurve"/>
    </contour>
  </outline>
</glyph>
<glyph name="asterisk" format="2">
  <advance width="953"/>
  <unicode hex="002A"/>
  <outline>
    <contour>
      <point x="476" y="778" type="line"/>
      <point x="531" y="1094" type="line"/>
      <point x="537" y="1130" type="line"/>
      <point x="593" y="1448" type="line"/>
      <point x="629" y="1448" type="line"/>
      <point x="573" y="1128" type="line"/>
      <point x="567" y="1093" type="line"/>
      <point x="512" y="778" type="line"/>
    </contour>
    <contour>
      <point x="123" y="920" type="line"/>
      <point x="548" y="1126" type="line"/>
      <point x="569" y="1135" type="line"/>
      <point x="972" y="1332" type="line"/>
      <point x="984" y="1306" type="line"/>
      <point x="558" y="1099" type="line"/>
      <point x="536" y="1090" type="line"/>
      <point x="134" y="894" type="line"/>
    </contour>
    <contour>
      <point x="190" y="1305" type="line"/>
      <point x="212" y="1332" type="line"/>
      <point x="546" y="1136" type="line"/>
      <point x="563" y="1128" type="line"/>
      <point x="916" y="921" type="line"/>
      <point x="893" y="894" type="line"/>
      <point x="559" y="1090" type="line"/>
      <point x="543" y="1098" type="line"/>
    </contour>
  </outline>
</glyph>
<glyph name="comma" format="2">
  <advance width="722"/>
  <unicode hex="002C"/>
  <outline>
    <contour>
      <point x="216.585" y="-114" type="line"/>
      <point x="193.585" y="-108" type="line"/>
      <point x="230.585" y="-4" type="line"/>
      <point x="217.585" y="-4" type="line" smooth="yes"/>
      <point x="208.585" y="-4"/>
      <point x="198.585" y="-3"/>
      <point x="194.585" y="2"/>
      <point x="195.585" y="13"/>
      <point x="196.585" y="22" type="qcurve" smooth="yes"/>
      <point x="203.585" y="64" type="line" smooth="yes"/>
      <point x="205.585" y="73"/>
      <point x="208.585" y="84"/>
      <point x="214.585" y="89"/>
      <point x="225.585" y="90"/>
      <point x="234.585" y="90" type="qcurve" smooth="yes"/>
      <point x="276.585" y="90" type="line" smooth="yes"/>
      <point x="285.585" y="90"/>
      <point x="295.585" y="89"/>
      <point x="299.585" y="84"/>
      <point x="299.585" y="73"/>
      <point x="297.585" y="64" type="qcurve" smooth="yes"/>
      <point x="290.585" y="22" type="line" smooth="yes"/>
      <point x="289.585" y="18"/>
      <point x="288.585" y="12"/>
      <point x="286.585" y="7"/>
      <point x="285.585" y="3"/>
      <point x="284.585" y="1" type="qcurve" smooth="yes"/>
    </contour>
  </outline>
</glyph>
<glyph name="hyphen" format="2">
  <advance width="1651"/>
  <unicode hex="002D"/>
  <outline>
    <contour>
      <point x="231.875" y="616" type="line"/>
      <point x="1394.87" y="616" type="line"/>
      <point x="1388.87" y="584" type="line"/>
      <point x="225.875" y="584" type="line"/>
    </contour>
  </outline>
  <guideline y="600"/>
</glyph>
<glyph name="slash" format="2">
  <advance width="1209"/>
  <unicode hex="002F"/>
  <outline>
    <contour>
      <point x="1142.52" y="1430" type="line"/>
      <point x="1183.52" y="1430" type="line"/>
      <point x="59.5173" y="-100" type="line"/>
      <point x="18.5173" y="-100" type="line"/>
    </contour>
  </outline>
</glyph>
<glyph name="three" format="2">
  <advance width="2428" height="1448"/>
  <unicode hex="0033"/>
  <outline>
    <contour>
      <point x="297" y="398" type="line"/>
      <point x="339" y="406" type="line"/>
      <point x="319" y="291" type="line" smooth="yes"/>
      <point x="308" y="228"/>
      <point x="321" y="133"/>
      <point x="372" y="68"/>
      <point x="463" y="36"/>
      <point x="529" y="36" type="qcurve" smooth="yes"/>
      <point x="1669" y="36" type="line" smooth="yes"/>
      <point x="1735" y="36"/>
      <point x="1837" y="68"/>
      <point x="1911" y="133"/>
      <point x="1958" y="228"/>
      <point x="1969" y="291" type="qcurve" smooth="yes"/>
      <point x="2005" y="500" type="line" smooth="yes"/>
      <point x="2014" y="553"/>
      <point x="1990" y="626"/>
      <point x="1929" y="671"/>
      <point x="1835" y="692"/>
      <point x="1775" y="692" type="qcurve" smooth="yes"/>
      <point x="990" y="692" type="line"/>
      <point x="996" y="728" type="line"/>
      <point x="1765" y="728" type="line" smooth="yes"/>
      <point x="1825" y="728"/>
      <point x="1926" y="749"/>
      <point x="2003" y="794"/>
      <point x="2054" y="868"/>
      <point x="2063" y="920" type="qcurve" smooth="yes"/>
      <point x="2096" y="1109" type="line" smooth="yes"/>
      <point x="2107" y="1172"/>
      <point x="2093" y="1267"/>
      <point x="2042" y="1332"/>
      <point x="1951" y="1364"/>
      <point x="1885" y="1364" type="qcurve" smooth="yes"/>
      <point x="771" y="1364" type="line" smooth="yes"/>
      <point x="639" y="1364"/>
      <point x="494" y="1235"/>
      <point x="472" y="1109" type="qcurve" smooth="yes"/>
      <point x="447" y="970" type="line"/>
      <point x="409" y="978" type="line"/>
      <point x="431" y="1107" type="line" smooth="yes"/>
      <point x="444" y="1179"/>
      <point x="498" y="1288"/>
      <point x="583" y="1362"/>
      <point x="700" y="1400"/>
      <point x="775" y="1400" type="qcurve" smooth="yes"/>
      <point x="1893" y="1400" type="line" smooth="yes"/>
      <point x="2043" y="1400"/>
      <point x="2161" y="1250"/>
      <point x="2135" y="1107" type="qcurve" smooth="yes"/>
      <point x="2104" y="930" type="line" smooth="yes"/>
      <point x="2096" y="884"/>
      <point x="2065" y="814"/>
      <point x="2018" y="761"/>
      <point x="1953" y="724"/>
      <point x="1911" y="712" type="qcurve"/>
      <point x="1953" y="701"/>
      <point x="2011" y="665"/>
      <point x="2044" y="611"/>
      <point x="2052" y="538"/>
      <point x="2044" y="490" type="qcurve" smooth="yes"/>
      <point x="2009" y="293" type="line" smooth="yes"/>
      <point x="1997" y="221"/>
      <point x="1942" y="112"/>
      <point x="1857" y="38"/>
      <point x="1740" y="0"/>
      <point x="1665" y="0" type="qcurve" smooth="yes"/>
      <point x="521" y="0" type="line" smooth="yes"/>
      <point x="446" y="0"/>
      <point x="342" y="38"/>
      <point x="283" y="112"/>
      <point x="267" y="221"/>
      <point x="279" y="293" type="qcurve" smooth="yes"/>
    </contour>
  </outline>
</glyph>
<glyph name="four" format="2">
  <advance width="2465"/>
  <unicode hex="0034"/>
  <outline>
    <contour>
      <point x="-47" y="384" type="line"/>
      <point x="1607" y="384" type="line"/>
      <point x="1539" y="-4" type="line"/>
      <point x="1579" y="-4" type="line"/>
      <point x="1647" y="384" type="line"/>
      <point x="2185" y="384" type="line"/>
      <point x="2191" y="420" type="line"/>
      <point x="1653" y="420" type="line"/>
      <point x="1818" y="1364" type="line"/>
      <point x="1781" y="1364" type="line"/>
      <point x="-41" y="420" type="line"/>
    </contour>
    <contour>
      <point x="33" y="420" type="line"/>
      <point x="1770" y="1320" type="line"/>
      <point x="1613" y="420" type="line"/>
    </contour>
  </outline>
</glyph>
<glyph name="five" format="2">
  <advance width="2317"/>
  <unicode hex="0035"/>
  <outline>
    <contour>
      <point x="1112" y="-12" type="line"/>
      <point x="973" y="-12"/>
      <point x="708" y="-3"/>
      <point x="475" y="13"/>
      <point x="284" y="34"/>
      <point x="218" y="46" type="qcurve"/>
      <point x="212" y="90" type="line"/>
      <point x="250" y="81"/>
      <point x="346" y="64"/>
      <point x="467" y="49"/>
      <point x="613" y="37"/>
      <point x="788" y="29"/>
      <point x="992" y="24"/>
      <point x="1110" y="24" type="qcurve" smooth="yes"/>
      <point x="1306" y="24"/>
      <point x="1617" y="60"/>
      <point x="1841" y="147"/>
      <point x="1976" y="294"/>
      <point x="1995" y="406" type="qcurve" smooth="yes"/>
      <point x="2015" y="519"/>
      <point x="1939" y="665"/>
      <point x="1762" y="750"/>
      <point x="1490" y="783"/>
      <point x="1313" y="783" type="qcurve" smooth="yes"/>
      <point x="1156" y="783"/>
      <point x="883" y="768"/>
      <point x="639" y="740"/>
      <point x="417" y="701"/>
      <point x="312" y="676" type="qcurve"/>
      <point x="496" y="1400" type="line"/>
      <point x="2050" y="1400" type="line"/>
      <point x="2036" y="1362" type="line"/>
      <point x="523" y="1362" type="line"/>
      <point x="360" y="722" type="line"/>
      <point x="442" y="742"/>
      <point x="644" y="777"/>
      <point x="880" y="803"/>
      <point x="1147" y="819"/>
      <point x="1293" y="819" type="qcurve" smooth="yes"/>
      <point x="1427" y="819"/>
      <point x="1649" y="803"/>
      <point x="1823" y="766"/>
      <point x="1949" y="705"/>
      <point x="2025" y="615"/>
      <point x="2050" y="492"/>
      <point x="2036" y="412" type="qcurve" smooth="yes"/>
      <point x="2023" y="337"/>
      <point x="1961" y="216"/>
      <point x="1857" y="122"/>
      <point x="1709" y="53"/>
      <point x="1513" y="9"/>
      <point x="1264" y="-12"/>
      <point x="1112" y="-12" type="qcurve"/>
    </contour>
  </outline>
</glyph>
<glyph name="seven" format="2">
  <advance width="1883.83"/>
  <unicode hex="0037"/>
  <outline>
    <contour>
      <point x="192" y="1130" type="line"/>
      <point x="230" y="1120" type="line"/>
      <point x="273" y="1364" type="line"/>
      <point x="1930" y="1364" type="line"/>
      <point x="565" y="0" type="line"/>
      <point x="624" y="0" type="line"/>
      <point x="2003" y="1382" type="line"/>
      <point x="2006" y="1400" type="line"/>
      <point x="239" y="1400" type="line"/>
    </contour>
  </outline>
  <guideline angle="90" color="0.4,0.4,0.4,1" name="halfwidth" x="941.915" y="0"/>
</glyph>
<glyph name="eight" format="2">
  <advance width="2547.82"/>
  <unicode hex="0038"/>
  <outline>
    <contour>
      <point x="282" y="278" type="line" smooth="yes"/>
      <point x="269" y="207"/>
      <point x="299" y="113"/>
      <point x="369" y="58"/>
      <point x="474" y="36"/>
      <point x="537" y="36" type="qcurve" smooth="yes"/>
      <point x="1781" y="36" type="line" smooth="yes"/>
      <point x="1844" y="36"/>
      <point x="1957" y="58"/>
      <point x="2047" y="113"/>
      <point x="2109" y="207"/>
      <point x="2122" y="278" type="qcurve" smooth="yes"/>
      <point x="2155" y="470" type="line" smooth="yes"/>
      <point x="2168" y="546"/>
      <point x="2126" y="635"/>
      <point x="2052" y="681"/>
      <point x="1966" y="694"/>
      <point x="1936" y="694" type="qcurve" smooth="yes"/>
      <point x="612" y="694" type="line" smooth="yes"/>
      <point x="582" y="694"/>
      <point x="491" y="681"/>
      <point x="401" y="635"/>
      <point x="328" y="546"/>
      <point x="315" y="470" type="qcurve" smooth="yes"/>
    </contour>
    <contour>
      <point x="2241" y="1134" type="line" smooth="yes"/>
      <point x="2250" y="1186"/>
      <point x="2231" y="1271"/>
      <point x="2173" y="1331"/>
      <point x="2074" y="1364"/>
      <point x="2003" y="1364" type="qcurve" smooth="yes"/>
      <point x="779" y="1364" type="line" smooth="yes"/>
      <point x="708" y="1364"/>
      <point x="597" y="1331"/>
      <point x="518" y="1271"/>
      <point x="470" y="1186"/>
      <point x="461" y="1134" type="qcurve" smooth="yes"/>
      <point x="431" y="962" type="line" smooth="yes"/>
      <point x="422" y="910"/>
      <point x="437" y="824"/>
      <point x="493" y="763"/>
      <point x="593" y="730"/>
      <point x="668" y="730" type="qcurve" smooth="yes"/>
      <point x="1892" y="730" type="line" smooth="yes"/>
      <point x="1967" y="730"/>
      <point x="2078" y="763"/>
      <point x="2156" y="824"/>
      <point x="2202" y="910"/>
      <point x="2211" y="962" type="qcurve" smooth="yes"/>
    </contour>
    <contour>
      <point x="242" y="280" type="line"/>
      <point x="273" y="458" type="line" smooth="yes"/>
      <point x="285" y="526"/>
      <point x="339" y="620"/>
      <point x="413" y="681"/>
      <point x="499" y="712"/>
      <point x="542" y="716" type="qcurve"/>
      <point x="500" y="721"/>
      <point x="436" y="761"/>
      <point x="396" y="826"/>
      <point x="382" y="912"/>
      <point x="391" y="964" type="qcurve" smooth="yes"/>
      <point x="421" y="1132" type="line" smooth="yes"/>
      <point x="432" y="1194"/>
      <point x="488" y="1293"/>
      <point x="580" y="1362"/>
      <point x="706" y="1400"/>
      <point x="785" y="1400" type="qcurve" smooth="yes"/>
      <point x="2009" y="1400" type="line" smooth="yes"/>
      <point x="2089" y="1400"/>
      <point x="2201" y="1362"/>
      <point x="2269" y="1293"/>
      <point x="2292" y="1194"/>
      <point x="2281" y="1132" type="qcurve" smooth="yes"/>
      <point x="2251" y="964" type="line" smooth="yes"/>
      <point x="2242" y="912"/>
      <point x="2198" y="826"/>
      <point x="2135" y="761"/>
      <point x="2057" y="721"/>
      <point x="2014" y="716" type="qcurve"/>
      <point x="2056" y="712"/>
      <point x="2131" y="681"/>
      <point x="2183" y="620"/>
      <point x="2205" y="526"/>
      <point x="2193" y="458" type="qcurve" smooth="yes"/>
      <point x="2162" y="280" type="line" smooth="yes"/>
      <point x="2148" y="200"/>
      <point x="2078" y="92"/>
      <point x="1977" y="27"/>
      <point x="1848" y="0"/>
      <point x="1775" y="0" type="qcurve" smooth="yes"/>
      <point x="531" y="0" type="line" smooth="yes"/>
      <point x="459" y="0"/>
      <point x="340" y="27"/>
      <point x="261" y="92"/>
      <point x="228" y="200"/>
      <point x="242" y="280" type="qcurve"/>
    </contour>
  </outline>
</glyph>
<glyph name="nine" format="2">
  <advance width="2430"/>
  <unicode hex="0039"/>
  <outline>
    <contour>
      <point x="1310" y="1400" type="line"/>
      <point x="1110" y="1400"/>
      <point x="818" y="1395"/>
      <point x="613" y="1373"/>
      <point x="482" y="1328"/>
      <point x="400" y="1249"/>
      <point x="356" y="1129"/>
      <point x="341" y="1042" type="qcurve" smooth="yes"/>
      <point x="325" y="948"/>
      <point x="327" y="818"/>
      <point x="381" y="734"/>
      <point x="496" y="688"/>
      <point x="686" y="667"/>
      <point x="961" y="663"/>
      <point x="1149" y="663" type="qcurve" smooth="yes"/>
      <point x="1318" y="663"/>
      <point x="1592" y="674"/>
      <point x="1819" y="696"/>
      <point x="2009" y="730"/>
      <point x="2094" y="754" type="qcurve"/>
      <point x="2102" y="790" type="line"/>
      <point x="2005" y="765"/>
      <point x="1810" y="730"/>
      <point x="1588" y="708"/>
      <point x="1323" y="699"/>
      <point x="1156" y="699" type="qcurve" smooth="yes"/>
      <point x="970" y="699"/>
      <point x="703" y="702"/>
      <point x="520" y="722"/>
      <point x="414" y="763"/>
      <point x="366" y="840"/>
      <point x="366" y="957"/>
      <point x="381" y="1042" type="qcurve" smooth="yes"/>
      <point x="395" y="1121"/>
      <point x="433" y="1229"/>
      <point x="507" y="1301"/>
      <point x="629" y="1341"/>
      <point x="825" y="1360"/>
      <point x="1107" y="1364"/>
      <point x="1304" y="1364" type="qcurve" smooth="yes"/>
      <point x="1520" y="1364"/>
      <point x="1819" y="1359"/>
      <point x="2013" y="1333"/>
      <point x="2114" y="1278"/>
      <point x="2150" y="1180"/>
      <point x="2136" y="1029"/>
      <point x="2117" y="920" type="qcurve" smooth="yes"/>
      <point x="2091" y="772"/>
      <point x="1987" y="525"/>
      <point x="1834" y="329"/>
      <point x="1633" y="182"/>
      <point x="1390" y="84"/>
      <point x="1104" y="36"/>
      <point x="942" y="36" type="qcurve" smooth="yes"/>
      <point x="869" y="36"/>
      <point x="731" y="39"/>
      <point x="619" y="45"/>
      <point x="539" y="54"/>
      <point x="522" y="59" type="qcurve"/>
      <point x="540" y="18" type="line"/>
      <point x="557" y="15"/>
      <point x="628" y="8"/>
      <point x="730" y="3"/>
      <point x="860" y="0"/>
      <point x="936" y="0" type="qcurve" smooth="yes"/>
      <point x="1106" y="0"/>
      <point x="1403" y="51"/>
      <point x="1657" y="153"/>
      <point x="1864" y="305"/>
      <point x="2022" y="510"/>
      <point x="2130" y="766"/>
      <point x="2157" y="920" type="qcurve" smooth="yes"/>
      <point x="2177" y="1037"/>
      <point x="2189" y="1199"/>
      <point x="2147" y="1306"/>
      <point x="2038" y="1365"/>
      <point x="1836" y="1394"/>
      <point x="1529" y="1400"/>
      <point x="1310" y="1400" type="qcurve"/>
    </contour>
  </outline>
</glyph>
<glyph name="colon" format="2">
  <advance width="723.591"/>
  <unicode hex="003A"/>
  <outline>
    <contour>
      <point x="198" y="22" type="line"/>
      <point x="205" y="64" type="line"/>
      <point x="207" y="73"/>
      <point x="210" y="84"/>
      <point x="216" y="89"/>
      <point x="227" y="90"/>
      <point x="236" y="90" type="qcurve" smooth="yes"/>
      <point x="279" y="90" type="line" smooth="yes"/>
      <point x="288" y="90"/>
      <point x="298" y="89"/>
      <point x="302" y="84"/>
      <point x="301" y="73"/>
      <point x="299" y="64" type="qcurve"/>
      <point x="292" y="22" type="line"/>
      <point x="290" y="13"/>
      <point x="287" y="2"/>
      <point x="281" y="-3"/>
      <point x="271" y="-4"/>
      <point x="261" y="-4" type="qcurve" smooth="yes"/>
      <point x="219" y="-4" type="line" smooth="yes"/>
      <point x="210" y="-4"/>
      <point x="200" y="-3"/>
      <point x="196" y="2"/>
      <point x="196" y="13"/>
      <point x="198" y="22" type="qcurve"/>
    </contour>
    <contour>
      <point x="357" y="936" type="line"/>
      <point x="365" y="978" type="line"/>
      <point x="367" y="987"/>
      <point x="370" y="998"/>
      <point x="375" y="1003"/>
      <point x="386" y="1004"/>
      <point x="395" y="1004" type="qcurve" smooth="yes"/>
      <point x="437" y="1004" type="line" smooth="yes"/>
      <point x="447" y="1004"/>
      <point x="457" y="1003"/>
      <point x="461" y="998"/>
      <point x="461" y="987"/>
      <point x="459" y="978" type="qcurve"/>
      <point x="451" y="936" type="line"/>
      <point x="450" y="927"/>
      <point x="447" y="916"/>
      <point x="441" y="911"/>
      <point x="431" y="910"/>
      <point x="421" y="910" type="qcurve" smooth="yes"/>
      <point x="378" y="910" type="line" smooth="yes"/>
      <point x="369" y="910"/>
      <point x="359" y="911"/>
      <point x="355" y="916"/>
      <point x="356" y="927"/>
      <point x="357" y="936" type="qcurve"/>
    </contour>
  </outline>
</glyph>
<glyph name="less" format="2">
  <advance width="2020"/>
  <unicode hex="003C"/>
  <outline>
    <contour>
      <point x="1672.7" y="0" type="line"/>
      <point x="1679.7" y="40" type="line"/>
      <point x="266.699" y="584" type="line"/>
      <point x="1869.7" y="1129" type="line"/>
      <point x="1876.7" y="1168" type="line"/>
      <point x="211.699" y="602" type="line"/>
      <point x="205.699" y="566" type="line"/>
    </contour>
  </outline>
</glyph>
<glyph name="greater" format="2">
  <advance width="2020"/>
  <unicode hex="003E"/>
  <outline>
    <contour>
      <point x="314" y="1168" type="line"/>
      <point x="308" y="1131" type="line"/>
      <point x="1721" y="587" type="line"/>
      <point x="118" y="42" type="line"/>
      <point x="110" y="0" type="line"/>
      <point x="1775" y="566" type="line"/>
      <point x="1781" y="602" type="line"/>
      <point x="314" y="1168" type="line"/>
    </contour>
  </outline>
</glyph>
<glyph name="question" format="2">
  <advance width="1824"/>
  <unicode hex="003F"/>
  <outline>
    <contour>
      <point x="743.629" y="330" type="line"/>
      <point x="761.629" y="435" type="line" smooth="yes"/>
      <point x="772.629" y="500"/>
      <point x="816.629" y="593"/>
      <point x="888.629" y="653"/>
      <point x="990.629" y="682"/>
      <point x="1060.63" y="683" type="qcurve" smooth="yes"/>
      <point x="1315.63" y="688" type="line" smooth="yes"/>
      <point x="1365.63" y="689"/>
      <point x="1443.63" y="722"/>
      <point x="1499.63" y="779"/>
      <point x="1534.63" y="856"/>
      <point x="1542.63" y="902" type="qcurve" smooth="yes"/>
      <point x="1586.63" y="1152" type="line" smooth="yes"/>
      <point x="1596.63" y="1210"/>
      <point x="1581.63" y="1290"/>
      <point x="1524.63" y="1341"/>
      <point x="1422.63" y="1364"/>
      <point x="1345.63" y="1364" type="qcurve" smooth="yes"/>
      <point x="611.629" y="1364" type="line" smooth="yes"/>
      <point x="536.629" y="1364"/>
      <point x="426.629" y="1341"/>
      <point x="351.629" y="1291"/>
      <point x="306.629" y="1210"/>
      <point x="296.629" y="1152" type="qcurve" smooth="yes"/>
      <point x="274.629" y="1024" type="line"/>
      <point x="235.629" y="1032" type="line"/>
      <point x="256.629" y="1152" type="line" smooth="yes"/>
      <point x="268.629" y="1218"/>
      <point x="320.629" y="1312"/>
      <point x="407.629" y="1372"/>
      <point x="532.629" y="1400"/>
      <point x="617.629" y="1400" type="qcurve" smooth="yes"/>
      <point x="1351.63" y="1400" type="line" smooth="yes"/>
      <point x="1437.63" y="1400"/>
      <point x="1553.63" y="1373"/>
      <point x="1619.63" y="1313"/>
      <point x="1638.63" y="1219"/>
      <point x="1626.63" y="1152" type="qcurve" smooth="yes"/>
      <point x="1582.63" y="902" type="line" smooth="yes"/>
      <point x="1573.63" y="853"/>
      <point x="1533.63" y="763"/>
      <point x="1466.63" y="694"/>
      <point x="1371.63" y="653"/>
      <point x="1309.63" y="652" type="qcurve" smooth="yes"/>
      <point x="1054.63" y="647" type="line" smooth="yes"/>
      <point x="994.629" y="646"/>
      <point x="907.629" y="623"/>
      <point x="847.629" y="574"/>
      <point x="811.629" y="494"/>
      <point x="801.629" y="435" type="qcurve" smooth="yes"/>
      <point x="783.629" y="330" type="line"/>
    </contour>
    <contour>
      <point x="662.629" y="22" type="line"/>
      <point x="669.629" y="64" type="line" smooth="yes"/>
      <point x="671.629" y="74"/>
      <point x="674.629" y="84"/>
      <point x="680.629" y="89"/>
      <point x="690.629" y="90"/>
      <point x="700.629" y="90" type="qcurve" smooth="yes"/>
      <point x="742.629" y="90" type="line" smooth="yes"/>
      <point x="752.629" y="90"/>
      <point x="762.629" y="89"/>
      <point x="766.629" y="84"/>
      <point x="765.629" y="74"/>
      <point x="763.629" y="64" type="qcurve" smooth="yes"/>
      <point x="756.629" y="22" type="line" smooth="yes"/>
      <point x="754.629" y="12"/>
      <point x="751.629" y="2"/>
      <point x="745.629" y="-3"/>
      <point x="735.629" y="-4"/>
      <point x="725.629" y="-4" type="qcurve" smooth="yes"/>
      <point x="683.629" y="-4" type="line" smooth="yes"/>
      <point x="673.629" y="-4"/>
      <point x="663.629" y="-3"/>
      <point x="659.629" y="2"/>
      <point x="660.629" y="12"/>
      <point x="662.629" y="22" type="qcurve"/>
    </contour>
  </outline>
</glyph>
<glyph name="at" format="2">
  <advance width="2628" height="1020.84"/>
  <unicode hex="0040"/>
  <outline>
    <contour>
      <point x="226.748" y="82" type="line"/>
      <point x="379.748" y="957" type="line" smooth="yes"/>
      <point x="390.748" y="1022"/>
      <point x="444.748" y="1124"/>
      <point x="525.748" y="1193"/>
      <point x="633.748" y="1229"/>
      <point x="698.748" y="1229" type="qcurve" smooth="yes"/>
      <point x="2138.75" y="1229" type="line" smooth="yes"/>
      <point x="2203.75" y="1229"/>
      <point x="2297.75" y="1193"/>
      <point x="2354.75" y="1124"/>
      <point x="2372.75" y="1022"/>
      <point x="2361.75" y="957" type="qcurve" smooth="yes"/>
      <point x="2252.75" y="332" type="line" smooth="yes"/>
      <point x="2241.75" y="267"/>
      <point x="2191.75" y="175"/>
      <point x="2122.75" y="117"/>
      <point x="2041.75" y="90"/>
      <point x="1998.75" y="90" type="qcurve" smooth="yes"/>
      <point x="1862.75" y="90" type="line" smooth="yes"/>
      <point x="1821.75" y="90"/>
      <point x="1768.75" y="109"/>
      <point x="1736.75" y="140"/>
      <point x="1723.75" y="178"/>
      <point x="1721.75" y="197" type="qcurve"/>
      <point x="1714.75" y="191"/>
      <point x="1696.75" y="180"/>
      <point x="1673.75" y="172"/>
      <point x="1646.75" y="167"/>
      <point x="1629.75" y="167" type="qcurve" smooth="yes"/>
      <point x="825.748" y="167" type="line" smooth="yes"/>
      <point x="796.748" y="167"/>
      <point x="755.748" y="182"/>
      <point x="730.748" y="211"/>
      <point x="722.748" y="254"/>
      <point x="727.748" y="282" type="qcurve" smooth="yes"/>
      <point x="809.748" y="752" type="line" smooth="yes"/>
      <point x="814.748" y="781"/>
      <point x="837.748" y="824"/>
      <point x="872.748" y="853"/>
      <point x="918.748" y="868"/>
      <point x="947.748" y="868" type="qcurve" smooth="yes"/>
      <point x="1782.75" y="868" type="line" smooth="yes"/>
      <point x="1803.75" y="868"/>
      <point x="1825.75" y="860"/>
      <point x="1830.75" y="853" type="qcurve"/>
      <point x="1832.75" y="868" type="line"/>
      <point x="1868.75" y="868" type="line"/>
      <point x="1762.75" y="255" type="line" smooth="yes"/>
      <point x="1759.75" y="236"/>
      <point x="1756.75" y="190"/>
      <point x="1774.75" y="149"/>
      <point x="1821.75" y="122"/>
      <point x="1867.75" y="122" type="qcurve" smooth="yes"/>
      <point x="2003.75" y="122" type="line" smooth="yes"/>
      <point x="2039.75" y="122"/>
      <point x="2107.75" y="143"/>
      <point x="2164.75" y="193"/>
      <point x="2206.75" y="273"/>
      <point x="2216.75" y="332" type="qcurve" smooth="yes"/>
      <point x="2325.75" y="957" type="line"/>
      <point x="2336.75" y="1016"/>
      <point x="2321.75" y="1106"/>
      <point x="2272.75" y="1166"/>
      <point x="2190.75" y="1197"/>
      <point x="2132.75" y="1197" type="qcurve" smooth="yes"/>
      <point x="692.748" y="1197" type="line" smooth="yes"/>
      <point x="634.748" y="1197"/>
      <point x="541.748" y="1166"/>
      <point x="471.748" y="1106"/>
      <point x="426.748" y="1016"/>
      <point x="415.748" y="957" type="qcurve"/>
      <point x="262.748" y="82" type="line" smooth="yes"/>
      <point x="252.748" y="22"/>
      <point x="266.748" y="-67"/>
      <point x="315.748" y="-127"/>
      <point x="398.748" y="-157"/>
      <point x="456.748" y="-157" type="qcurve" smooth="yes"/>
      <point x="2020.75" y="-157" type="line"/>
      <point x="2014.75" y="-189" type="line"/>
      <point x="450.748" y="-189" type="line" smooth="yes"/>
      <point x="385.748" y="-189"/>
      <point x="290.748" y="-153"/>
      <point x="233.748" y="-84"/>
      <point x="215.748" y="17"/>
      <point x="226.748" y="82" type="qcurve"/>
    </contour>
    <contour>
      <point x="764.748" y="288" type="line" smooth="yes"/>
      <point x="756.748" y="243"/>
      <point x="787.748" y="198"/>
      <point x="832.748" y="198" type="qcurve" smooth="yes"/>
      <point x="1633.75" y="198" type="line" smooth="yes"/>
      <point x="1678.75" y="198"/>
      <point x="1723.75" y="243"/>
      <point x="1731.75" y="288" type="qcurve" smooth="yes"/>
      <point x="1827.75" y="837" type="line"/>
      <point x="943.748" y="837" type="line" smooth="yes"/>
      <point x="898.748" y="837"/>
      <point x="852.748" y="791"/>
      <point x="844.748" y="746" type="qcurve" smooth="yes"/>
    </contour>
  </outline>
</glyph>
<glyph name="B" format="2">
  <advance width="2691"/>
  <unicode hex="0042"/>
  <anchor x="1454" y="1550" name="top"/>
  <anchor x="1157" y="-150" name="bottom"/>
  <outline>
    <contour>
      <point x="229.858" y="0" type="line"/>
      <point x="1977.86" y="0" type="line" smooth="yes"/>
      <point x="2052.86" y="0"/>
      <point x="2171.86" y="37"/>
      <point x="2259.86" y="111"/>
      <point x="2316.86" y="224"/>
      <point x="2329.86" y="300" type="qcurve" smooth="yes"/>
      <point x="2355.86" y="448" type="line" smooth="yes"/>
      <point x="2365.86" y="504"/>
      <point x="2359.86" y="598"/>
      <point x="2324.86" y="673"/>
      <point x="2257.86" y="726"/>
      <point x="2205.86" y="741" type="qcurve"/>
      <point x="2258.86" y="753"/>
      <point x="2339.86" y="809"/>
      <point x="2396.86" y="887"/>
      <point x="2432.86" y="980"/>
      <point x="2441.86" y="1030" type="qcurve" smooth="yes"/>
      <point x="2453.86" y="1100" type="line" smooth="yes"/>
      <point x="2466.86" y="1176"/>
      <point x="2448.86" y="1289"/>
      <point x="2386.86" y="1363"/>
      <point x="2280.86" y="1400"/>
      <point x="2205.86" y="1400" type="qcurve" smooth="yes"/>
      <point x="473.858" y="1400" type="line"/>
    </contour>
    <contour>
      <point x="275.858" y="36" type="line"/>
      <point x="395.858" y="720" type="line"/>
      <point x="2082.86" y="720" type="line" smooth="yes"/>
      <point x="2224.86" y="720"/>
      <point x="2339.86" y="583"/>
      <point x="2315.86" y="448" type="qcurve" smooth="yes"/>
      <point x="2289.86" y="298" type="line" smooth="yes"/>
      <point x="2277.86" y="231"/>
      <point x="2226.86" y="132"/>
      <point x="2148.86" y="67"/>
      <point x="2045.86" y="36"/>
      <point x="1981.86" y="36" type="qcurve" smooth="yes"/>
    </contour>
    <contour>
      <point x="401.858" y="756" type="line"/>
      <point x="507.858" y="1364" type="line"/>
      <point x="2197.86" y="1364" type="line" smooth="yes"/>
      <point x="2261.86" y="1364"/>
      <point x="2353.86" y="1333"/>
      <point x="2408.86" y="1268"/>
      <point x="2425.86" y="1170"/>
      <point x="2413.86" y="1102" type="qcurve" smooth="yes"/>
      <point x="2401.86" y="1032" type="line" smooth="yes"/>
      <point x="2391.86" y="972"/>
      <point x="2345.86" y="871"/>
      <point x="2267.86" y="797"/>
      <point x="2156.86" y="756"/>
      <point x="2079.86" y="756" type="qcurve" smooth="yes"/>
    </contour>
  </outline>
</glyph>
<glyph name="D" format="2">
  <advance width="2667"/>
  <unicode hex="0044"/>
  <anchor x="1360" y="1550" name="top"/>
  <anchor x="1061" y="-150" name="bottom"/>
  <outline>
    <contour>
      <point x="275.84" y="36" type="line"/>
      <point x="1478.84" y="36" type="line" smooth="yes"/>
      <point x="1611.84" y="36"/>
      <point x="1840.42" y="68"/>
      <point x="2031.46" y="137"/>
      <point x="2185.31" y="245"/>
      <point x="2302.31" y="394"/>
      <point x="2381.16" y="588"/>
      <point x="2402.28" y="709" type="qcurve" smooth="yes"/>
      <point x="2423.92" y="833"/>
      <point x="2411.59" y="1026"/>
      <point x="2344.9" y="1171"/>
      <point x="2226.52" y="1272"/>
      <point x="2058.69" y="1336"/>
      <point x="1841.58" y="1364"/>
      <point x="1710.58" y="1364" type="qcurve" smooth="yes"/>
      <point x="507.576" y="1364" type="line"/>
    </contour>
    <contour>
      <point x="229.558" y="0" type="line"/>
      <point x="473.858" y="1400" type="line"/>
      <point x="1716.86" y="1400" type="line" smooth="yes"/>
      <point x="1854.86" y="1400"/>
      <point x="2081.27" y="1368"/>
      <point x="2257.23" y="1299"/>
      <point x="2381.04" y="1189"/>
      <point x="2449.82" y="1033"/>
      <point x="2463.22" y="829"/>
      <point x="2440.71" y="700" type="qcurve" smooth="yes"/>
      <point x="2418.55" y="573"/>
      <point x="2334.12" y="370"/>
      <point x="2212.08" y="215"/>
      <point x="2049.71" y="104"/>
      <point x="1849.32" y="33"/>
      <point x="1610.56" y="0"/>
      <point x="1472.56" y="0" type="qcurve" smooth="yes"/>
    </contour>
  </outline>
  <guideline y="1378"/>
  <guideline y="30"/>
  <guideline x="1750"/>
  <guideline y="1549"/>
  <guideline y="1325"/>
  <guideline y="73"/>
</glyph>
<glyph name="F" format="2">
  <advance width="2154"/>
  <unicode hex="0046"/>
  <outline>
    <contour>
      <point x="230" y="0" type="line"/>
      <point x="474" y="1400" type="line"/>
      <point x="2276" y="1400" type="line"/>
      <point x="2270" y="1364" type="line"/>
      <point x="508" y="1364" type="line"/>
      <point x="398" y="734" type="line"/>
      <point x="1474" y="734" type="line"/>
      <point x="1468" y="698" type="line"/>
      <point x="392" y="698" type="line"/>
      <point x="270" y="0" type="line"/>
    </contour>
  </outline>
</glyph>
<glyph name="G" format="2">
  <advance width="2524.21" height="1448"/>
  <unicode hex="0047"/>
  <anchor x="1420" y="1550" name="top"/>
  <anchor x="1123" y="-150" name="bottom"/>
  <outline>
    <contour>
      <point x="404.96" y="1100" type="line"/>
      <point x="264.96" y="300" type="line" smooth="yes"/>
      <point x="252.96" y="228"/>
      <point x="272.96" y="116"/>
      <point x="335.96" y="39"/>
      <point x="440.96" y="0"/>
      <point x="512.96" y="0" type="qcurve" smooth="yes"/>
      <point x="1780.96" y="0" type="line" smooth="yes"/>
      <point x="1852.96" y="0"/>
      <point x="1971.96" y="39"/>
      <point x="2061.96" y="116"/>
      <point x="2120.96" y="228"/>
      <point x="2132.96" y="300" type="qcurve" smooth="yes"/>
      <point x="2202.96" y="700" type="line"/>
      <point x="1282.96" y="700" type="line"/>
      <point x="1276.96" y="664" type="line"/>
      <point x="2156.96" y="664" type="line"/>
      <point x="2092.96" y="298" type="line" smooth="yes"/>
      <point x="2081.96" y="234"/>
      <point x="2030.96" y="136"/>
      <point x="1952.96" y="70"/>
      <point x="1848.96" y="36"/>
      <point x="1784.96" y="36" type="qcurve" smooth="yes"/>
      <point x="520.96" y="36" type="line" smooth="yes"/>
      <point x="456.96" y="36"/>
      <point x="364.96" y="70"/>
      <point x="310.96" y="136"/>
      <point x="293.96" y="234"/>
      <point x="304.96" y="298" type="qcurve" smooth="yes"/>
      <point x="444.96" y="1102" type="line" smooth="yes"/>
      <point x="455.96" y="1166"/>
      <point x="507.96" y="1264"/>
      <point x="585.96" y="1330"/>
      <point x="688.96" y="1364"/>
      <point x="752.96" y="1364" type="qcurve" smooth="yes"/>
      <point x="2016.96" y="1364" type="line" smooth="yes"/>
      <point x="2080.96" y="1364"/>
      <point x="2172.96" y="1330"/>
      <point x="2226.96" y="1264"/>
      <point x="2243.96" y="1166"/>
      <point x="2232.96" y="1102" type="qcurve" smooth="yes"/>
      <point x="2215.96" y="1000" type="line"/>
      <point x="2256.96" y="1008" type="line"/>
      <point x="2272.96" y="1100" type="line" smooth="yes"/>
      <point x="2285.96" y="1172"/>
      <point x="2265.96" y="1284"/>
      <point x="2202.96" y="1361"/>
      <point x="2096.96" y="1400"/>
      <point x="2024.96" y="1400" type="qcurve" smooth="yes"/>
      <point x="756.96" y="1400" type="line" smooth="yes"/>
      <point x="684.96" y="1400"/>
      <point x="565.96" y="1361"/>
      <point x="476.96" y="1284"/>
      <point x="417.96" y="1172"/>
      <point x="404.96" y="1100" type="qcurve"/>
    </contour>
  </outline>
  <guideline angle="0" x="0" y="574"/>
  <guideline angle="0" x="0" y="1036"/>
  <guideline angle="0" x="0" y="980"/>
  <guideline angle="0" x="0" y="806"/>
  <guideline angle="0" x="0" y="700"/>
  <guideline angle="0" x="0" y="906"/>
  <guideline angle="0" x="0" y="494"/>
</glyph>
<glyph name="H" format="2">
  <advance width="2792" height="1448"/>
  <unicode hex="0048"/>
  <anchor x="1547" y="1550" name="top"/>
  <anchor x="1250" y="-150" name="bottom"/>
  <anchor x="252" y="700" name="left"/>
  <outline>
    <contour>
      <point x="229.858" y="0" type="line"/>
      <point x="269.858" y="0" type="line"/>
      <point x="393.858" y="712" type="line"/>
      <point x="2405.86" y="712" type="line"/>
      <point x="2281.86" y="0" type="line"/>
      <point x="2321.86" y="0" type="line"/>
      <point x="2565.86" y="1400" type="line"/>
      <point x="2525.86" y="1400" type="line"/>
      <point x="2412.86" y="748" type="line"/>
      <point x="400.858" y="748" type="line"/>
      <point x="513.858" y="1400" type="line"/>
      <point x="473.858" y="1400" type="line"/>
    </contour>
  </outline>
  <guideline angle="260.111" color="1,0,0,1" x="1446" y="0"/>
</glyph>
<glyph name="J" format="2">
  <advance width="2035" height="1448"/>
  <unicode hex="004A"/>
  <anchor x="1826" y="1550" name="top"/>
  <anchor x="625" y="-150" name="bottom"/>
  <outline>
    <contour>
      <point x="1818" y="1400" type="line"/>
      <point x="1778" y="1400" type="line"/>
      <point x="1586" y="298" type="line" smooth="yes"/>
      <point x="1575" y="234"/>
      <point x="1523" y="136"/>
      <point x="1445" y="70"/>
      <point x="1341" y="36"/>
      <point x="1277" y="36" type="qcurve" smooth="yes"/>
      <point x="364" y="36" type="line" smooth="yes"/>
      <point x="300" y="36"/>
      <point x="208" y="70"/>
      <point x="153" y="136"/>
      <point x="137" y="234"/>
      <point x="148" y="298" type="qcurve" smooth="yes"/>
      <point x="204" y="620" type="line"/>
      <point x="162" y="612" type="line"/>
      <point x="108" y="300" type="line" smooth="yes"/>
      <point x="95" y="228"/>
      <point x="115" y="116"/>
      <point x="178" y="39"/>
      <point x="284" y="0"/>
      <point x="356" y="0" type="qcurve" smooth="yes"/>
      <point x="1274" y="0" type="line" smooth="yes"/>
      <point x="1346" y="0"/>
      <point x="1464" y="39"/>
      <point x="1554" y="116"/>
      <point x="1613" y="228"/>
      <point x="1626" y="300" type="qcurve" smooth="yes"/>
    </contour>
  </outline>
</glyph>
<glyph name="K" format="2">
  <advance width="2372" height="1448"/>
  <unicode hex="004B"/>
  <anchor x="1379" y="1550" name="top"/>
  <anchor x="1215" y="-150" name="bottom"/>
  <outline>
    <contour>
      <point x="229.858" y="0" type="line"/>
      <point x="269.858" y="0" type="line"/>
      <point x="393.858" y="710" type="line"/>
      <point x="380.858" y="702" type="line"/>
      <point x="2142.86" y="0" type="line"/>
      <point x="2251.86" y="0" type="line"/>
      <point x="446.858" y="719" type="line"/>
      <point x="446.858" y="711" type="line"/>
      <point x="2283.86" y="1400" type="line"/>
      <point x="2190.86" y="1400" type="line"/>
      <point x="365.858" y="713" type="line"/>
      <point x="394.858" y="713" type="line"/>
      <point x="513.858" y="1400" type="line"/>
      <point x="473.858" y="1400" type="line"/>
    </contour>
  </outline>
</glyph>
<glyph name="M" format="2">
  <advance width="2958"/>
  <unicode hex="004D"/>
  <anchor x="1630" y="1550" name="top"/>
  <anchor x="1333" y="-150" name="bottom"/>
  <outline>
    <contour>
      <point x="229.858" y="0" type="line"/>
      <point x="267.858" y="0" type="line"/>
      <point x="501.858" y="1342" type="line"/>
      <point x="1420.86" y="370" type="line"/>
      <point x="2682.86" y="1344" type="line"/>
      <point x="2447.86" y="0" type="line"/>
      <point x="2487.86" y="0" type="line"/>
      <point x="2731.86" y="1400" type="line"/>
      <point x="2699.86" y="1400" type="line"/>
      <point x="1431.86" y="421" type="line"/>
      <point x="506.858" y="1400" type="line"/>
      <point x="473.858" y="1400" type="line"/>
    </contour>
  </outline>
</glyph>
<glyph name="N" format="2">
  <advance width="2862"/>
  <unicode hex="004E"/>
  <anchor x="1582" y="1550" name="top"/>
  <anchor x="1285" y="-150" name="bottom"/>
  <outline>
    <contour>
      <point x="229.858" y="0" type="line"/>
      <point x="265.858" y="0" type="line"/>
      <point x="501.858" y="1353" type="line"/>
      <point x="2353.86" y="0" type="line"/>
      <point x="2391.86" y="0" type="line"/>
      <point x="2635.86" y="1400" type="line"/>
      <point x="2599.86" y="1400" type="line"/>
      <point x="2363.86" y="46" type="line"/>
      <point x="509.858" y="1400" type="line"/>
      <point x="473.858" y="1400" type="line"/>
    </contour>
  </outline>
</glyph>
<glyph name="O" format="2">
  <advance width="2814" height="1448"/>
  <unicode hex="004F"/>
  <anchor x="1568" y="1550" name="top"/>
  <anchor x="1269" y="-150" name="bottom"/>
  <anchor x="2552" y="1100" name="horn"/>
  <anchor x="1313" y="0" name="ogonek"/>
  <outline>
    <contour>
      <point x="405" y="1100" type="line"/>
      <point x="265" y="300" type="line" smooth="yes"/>
      <point x="253" y="228"/>
      <point x="273" y="116"/>
      <point x="336" y="39"/>
      <point x="441" y="0"/>
      <point x="513" y="0" type="qcurve" smooth="yes"/>
      <point x="2061" y="0" type="line" smooth="yes"/>
      <point x="2133" y="0"/>
      <point x="2252" y="39"/>
      <point x="2342" y="116"/>
      <point x="2401" y="228"/>
      <point x="2413" y="300" type="qcurve" smooth="yes"/>
      <point x="2553" y="1100" type="line" smooth="yes"/>
      <point x="2566" y="1172"/>
      <point x="2546" y="1284"/>
      <point x="2483" y="1361"/>
      <point x="2377" y="1400"/>
      <point x="2305" y="1400" type="qcurve" smooth="yes"/>
      <point x="757" y="1400" type="line" smooth="yes"/>
      <point x="685" y="1400"/>
      <point x="566" y="1361"/>
      <point x="477" y="1284"/>
      <point x="418" y="1172"/>
      <point x="405" y="1100" type="qcurve"/>
    </contour>
    <contour>
      <point x="445" y="1102" type="line" smooth="yes"/>
      <point x="456" y="1166"/>
      <point x="508" y="1264"/>
      <point x="586" y="1330"/>
      <point x="689" y="1364"/>
      <point x="753" y="1364" type="qcurve" smooth="yes"/>
      <point x="2297" y="1364" type="line" smooth="yes"/>
      <point x="2361" y="1364"/>
      <point x="2453" y="1330"/>
      <point x="2507" y="1264"/>
      <point x="2524" y="1166"/>
      <point x="2513" y="1102" type="qcurve" smooth="yes"/>
      <point x="2373" y="298" type="line" smooth="yes"/>
      <point x="2362" y="234"/>
      <point x="2311" y="136"/>
      <point x="2233" y="70"/>
      <point x="2129" y="36"/>
      <point x="2065" y="36" type="qcurve" smooth="yes"/>
      <point x="521" y="36" type="line" smooth="yes"/>
      <point x="457" y="36"/>
      <point x="365" y="70"/>
      <point x="311" y="136"/>
      <point x="294" y="234"/>
      <point x="305" y="298" type="qcurve" smooth="yes"/>
    </contour>
  </outline>
</glyph>
<glyph name="P" format="2">
  <advance width="2550"/>
  <unicode hex="0050"/>
  <outline>
    <contour>
      <point x="229.858" y="0" type="line"/>
      <point x="269.858" y="0" type="line"/>
      <point x="378.858" y="624" type="line"/>
      <point x="2086.86" y="624" type="line" smooth="yes"/>
      <point x="2158.86" y="624"/>
      <point x="2277.86" y="663"/>
      <point x="2367.86" y="740"/>
      <point x="2426.86" y="852"/>
      <point x="2438.86" y="924" type="qcurve" smooth="yes"/>
      <point x="2469.86" y="1100" type="line" smooth="yes"/>
      <point x="2482.86" y="1172"/>
      <point x="2462.86" y="1284"/>
      <point x="2399.86" y="1361"/>
      <point x="2293.86" y="1400"/>
      <point x="2221.86" y="1400" type="qcurve" smooth="yes"/>
      <point x="473.858" y="1400" type="line"/>
    </contour>
    <contour>
      <point x="384.858" y="660" type="line"/>
      <point x="507.858" y="1364" type="line"/>
      <point x="2213.86" y="1364" type="line" smooth="yes"/>
      <point x="2277.86" y="1364"/>
      <point x="2369.86" y="1330"/>
      <point x="2423.86" y="1264"/>
      <point x="2440.86" y="1166"/>
      <point x="2429.86" y="1102" type="qcurve" smooth="yes"/>
      <point x="2398.86" y="922" type="line" smooth="yes"/>
      <point x="2387.86" y="858"/>
      <point x="2336.86" y="760"/>
      <point x="2258.86" y="694"/>
      <point x="2154.86" y="660"/>
      <point x="2090.86" y="660" type="qcurve" smooth="yes"/>
    </contour>
  </outline>
  <guideline x="1275" name="halfwidth" color="0.4,0.4,0.4,1"/>
</glyph>
<glyph name="R" format="2">
  <advance width="2584"/>
  <unicode hex="0052"/>
  <anchor x="1173" y="-150" name="bottom"/>
  <anchor x="1470" y="1554" name="top"/>
  <outline>
    <contour>
      <point x="229.858" y="0" type="line"/>
      <point x="269.858" y="0" type="line"/>
      <point x="378.858" y="624" type="line"/>
      <point x="1272.86" y="624" type="line"/>
      <point x="2237.86" y="0" type="line"/>
      <point x="2309.86" y="0" type="line"/>
      <point x="1344.86" y="624" type="line"/>
      <point x="2076.86" y="624" type="line" smooth="yes"/>
      <point x="2148.86" y="624"/>
      <point x="2267.86" y="663"/>
      <point x="2357.86" y="740"/>
      <point x="2416.86" y="852"/>
      <point x="2428.86" y="924" type="qcurve" smooth="yes"/>
      <point x="2459.86" y="1100" type="line" smooth="yes"/>
      <point x="2472.86" y="1172"/>
      <point x="2452.86" y="1284"/>
      <point x="2389.86" y="1361"/>
      <point x="2283.86" y="1400"/>
      <point x="2211.86" y="1400" type="qcurve" smooth="yes"/>
      <point x="473.858" y="1400" type="line"/>
    </contour>
    <contour>
      <point x="384.858" y="660" type="line"/>
      <point x="507.858" y="1364" type="line"/>
      <point x="2203.86" y="1364" type="line" smooth="yes"/>
      <point x="2267.86" y="1364"/>
      <point x="2359.86" y="1330"/>
      <point x="2414.86" y="1264"/>
      <point x="2430.86" y="1166"/>
      <point x="2419.86" y="1102" type="qcurve" smooth="yes"/>
      <point x="2388.86" y="922" type="line" smooth="yes"/>
      <point x="2377.86" y="858"/>
      <point x="2326.86" y="760"/>
      <point x="2248.86" y="694"/>
      <point x="2144.86" y="660"/>
      <point x="2080.86" y="660" type="qcurve" smooth="yes"/>
    </contour>
  </outline>
  <guideline x="1292" name="halfwidth" color="0.4,0.4,0.4,1"/>
</glyph>
<glyph name="S" format="2">
  <advance width="2587"/>
  <unicode hex="0053"/>
  <anchor x="1446" y="1550" name="top"/>
  <anchor x="1147" y="-150" name="bottom"/>
  <outline>
    <contour>
      <point x="252.062" y="386" type="line"/>
      <point x="294.062" y="396" type="line"/>
      <point x="276.062" y="298" type="line" smooth="yes"/>
      <point x="265.062" y="234"/>
      <point x="282.062" y="136"/>
      <point x="337.062" y="70"/>
      <point x="429.062" y="36"/>
      <point x="493.062" y="36" type="qcurve" smooth="yes"/>
      <point x="1865.06" y="36" type="line" smooth="yes"/>
      <point x="1929.06" y="36"/>
      <point x="2032.06" y="70"/>
      <point x="2110.06" y="136"/>
      <point x="2161.06" y="234"/>
      <point x="2172.06" y="298" type="qcurve" smooth="yes"/>
      <point x="2195.06" y="428" type="line" smooth="yes"/>
      <point x="2206.06" y="492"/>
      <point x="2189.06" y="590"/>
      <point x="2135.06" y="656"/>
      <point x="2043.06" y="690"/>
      <point x="1979.06" y="690" type="qcurve" smooth="yes"/>
      <point x="627.062" y="690" type="line" smooth="yes"/>
      <point x="555.062" y="690"/>
      <point x="450.062" y="729"/>
      <point x="387.062" y="806"/>
      <point x="367.062" y="918"/>
      <point x="379.062" y="990" type="qcurve" smooth="yes"/>
      <point x="398.062" y="1100" type="line" smooth="yes"/>
      <point x="411.062" y="1172"/>
      <point x="470.062" y="1284"/>
      <point x="560.062" y="1361"/>
      <point x="679.062" y="1400"/>
      <point x="751.062" y="1400" type="qcurve" smooth="yes"/>
      <point x="2085.06" y="1400" type="line" smooth="yes"/>
      <point x="2157.06" y="1400"/>
      <point x="2262.06" y="1361"/>
      <point x="2325.06" y="1284"/>
      <point x="2345.06" y="1172"/>
      <point x="2332.06" y="1100" type="qcurve" smooth="yes"/>
      <point x="2319.06" y="1022" type="line"/>
      <point x="2277.06" y="1012" type="line"/>
      <point x="2293.06" y="1102" type="line" smooth="yes"/>
      <point x="2304.06" y="1166"/>
      <point x="2287.06" y="1264"/>
      <point x="2232.06" y="1330"/>
      <point x="2140.06" y="1364"/>
      <point x="2076.06" y="1364" type="qcurve" smooth="yes"/>
      <point x="746.062" y="1364" type="line" smooth="yes"/>
      <point x="682.062" y="1364"/>
      <point x="579.062" y="1330"/>
      <point x="501.062" y="1264"/>
      <point x="450.062" y="1166"/>
      <point x="439.062" y="1102" type="qcurve" smooth="yes"/>
      <point x="419.062" y="988" type="line" smooth="yes"/>
      <point x="408.062" y="924"/>
      <point x="425.062" y="826"/>
      <point x="479.062" y="760"/>
      <point x="571.062" y="726"/>
      <point x="635.062" y="726" type="qcurve" smooth="yes"/>
      <point x="1987.06" y="726" type="line" smooth="yes"/>
      <point x="2059.06" y="726"/>
      <point x="2164.06" y="687"/>
      <point x="2227.06" y="610"/>
      <point x="2247.06" y="498"/>
      <point x="2235.06" y="426" type="qcurve" smooth="yes"/>
      <point x="2213.06" y="300" type="line" smooth="yes"/>
      <point x="2200.06" y="228"/>
      <point x="2141.06" y="116"/>
      <point x="2051.06" y="39"/>
      <point x="1932.06" y="0"/>
      <point x="1860.06" y="0" type="qcurve" smooth="yes"/>
      <point x="484.062" y="0" type="line" smooth="yes"/>
      <point x="412.062" y="0"/>
      <point x="307.062" y="39"/>
      <point x="244.062" y="116"/>
      <point x="224.062" y="228"/>
      <point x="237.062" y="300" type="qcurve" smooth="yes"/>
    </contour>
  </outline>
</glyph>
<glyph name="U" format="2">
  <advance width="2604"/>
  <unicode hex="0055"/>
  <anchor x="1454" y="1550" name="top"/>
  <anchor x="1157" y="-150" name="bottom"/>
  <anchor x="1203" y="0" name="ogonek"/>
  <anchor x="2387" y="1400" name="horn"/>
  <outline>
    <contour>
      <point x="465.858" y="1400" type="line"/>
      <point x="505.858" y="1400" type="line"/>
      <point x="313.858" y="298" type="line" smooth="yes"/>
      <point x="302.858" y="234"/>
      <point x="319.858" y="136"/>
      <point x="373.858" y="70"/>
      <point x="465.858" y="36"/>
      <point x="529.858" y="36" type="qcurve" smooth="yes"/>
      <point x="1846.86" y="36" type="line" smooth="yes"/>
      <point x="1910.86" y="36"/>
      <point x="2014.86" y="70"/>
      <point x="2092.86" y="136"/>
      <point x="2143.86" y="234"/>
      <point x="2154.86" y="298" type="qcurve" smooth="yes"/>
      <point x="2346.86" y="1400" type="line"/>
      <point x="2386.86" y="1400" type="line"/>
      <point x="2194.86" y="300" type="line" smooth="yes"/>
      <point x="2182.86" y="228"/>
      <point x="2123.86" y="116"/>
      <point x="2033.86" y="39"/>
      <point x="1914.86" y="0"/>
      <point x="1842.86" y="0" type="qcurve" smooth="yes"/>
      <point x="521.858" y="0" type="line" smooth="yes"/>
      <point x="449.858" y="0"/>
      <point x="344.858" y="39"/>
      <point x="281.858" y="116"/>
      <point x="261.858" y="228"/>
      <point x="273.858" y="300" type="qcurve" smooth="yes"/>
    </contour>
  </outline>
</glyph>
<glyph name="V" format="2">
  <advance width="2320"/>
  <unicode hex="0056"/>
  <anchor x="1314" y="1550" name="top"/>
  <anchor x="1017" y="-150" name="bottom"/>
  <outline>
    <contour>
      <point x="127" y="1400" type="line"/>
      <point x="179" y="1400" type="line"/>
      <point x="1060" y="46" type="line"/>
      <point x="2399" y="1400" type="line"/>
      <point x="2447" y="1400" type="line"/>
      <point x="1059" y="0" type="line"/>
      <point x="1041" y="0" type="line"/>
    </contour>
  </outline>
</glyph>
<glyph name="W" format="2">
  <advance width="2984"/>
  <unicode hex="0057"/>
  <anchor x="1375" y="-150" name="bottom"/>
  <anchor x="1645" y="1550" name="top"/>
  <outline>
    <contour>
      <point x="648.858" y="0" type="line"/>
      <point x="667.858" y="0" type="line"/>
      <point x="1610.86" y="1356" type="line"/>
      <point x="2083.86" y="0" type="line"/>
      <point x="2100.86" y="0" type="line"/>
      <point x="3110.86" y="1400" type="line"/>
      <point x="3066.86" y="1400" type="line"/>
      <point x="2103.86" y="64" type="line"/>
      <point x="1636.86" y="1400" type="line"/>
      <point x="1596.86" y="1400" type="line"/>
      <point x="668.858" y="64" type="line"/>
      <point x="170.858" y="1400" type="line"/>
      <point x="126.858" y="1400" type="line"/>
    </contour>
  </outline>
</glyph>
<glyph name="X" format="2">
  <advance width="1965"/>
  <unicode hex="0058"/>
  <anchor x="1135" y="1550" name="top"/>
  <anchor x="838" y="-150" name="bottom"/>
  <outline>
    <contour>
      <point x="-117.142" y="0" type="line"/>
      <point x="-54.1422" y="0" type="line"/>
      <point x="983.858" y="688" type="line"/>
      <point x="1781.86" y="0" type="line"/>
      <point x="1844.86" y="0" type="line"/>
      <point x="1019.86" y="712" type="line"/>
      <point x="2087.86" y="1400" type="line"/>
      <point x="2023.86" y="1400" type="line"/>
      <point x="990.858" y="736" type="line"/>
      <point x="190.858" y="1400" type="line"/>
      <point x="126.858" y="1400" type="line"/>
      <point x="954.858" y="712" type="line"/>
    </contour>
  </outline>
</glyph>
<glyph name="Z" format="2">
  <advance width="2240"/>
  <unicode hex="005A"/>
  <anchor x="1304" y="1550" name="top"/>
  <anchor x="993" y="-150" name="bottom"/>
  <outline>
    <contour>
      <point x="-64.8259" y="0" type="line"/>
      <point x="2050.17" y="0" type="line"/>
      <point x="2056.17" y="36" type="line"/>
      <point x="29.1741" y="36" type="line"/>
      <point x="31.1741" y="30" type="line"/>
      <point x="2289.17" y="1382" type="line"/>
      <point x="2292.17" y="1400" type="line"/>
      <point x="263.174" y="1400" type="line"/>
      <point x="257.174" y="1364" type="line"/>
      <point x="2198.17" y="1364" type="line"/>
      <point x="2196.17" y="1370" type="line"/>
      <point x="-61.8259" y="18" type="line"/>
    </contour>
  </outline>
</glyph>
<glyph name="bracketleft" format="2">
  <advance width="964"/>
  <unicode hex="005B"/>
  <outline>
    <contour>
      <point x="184.321" y="-256" type="line"/>
      <point x="482.321" y="1448" type="line"/>
      <point x="921.321" y="1448" type="line"/>
      <point x="915.321" y="1416" type="line"/>
      <point x="512.321" y="1416" type="line"/>
      <point x="226.321" y="-224" type="line"/>
      <point x="629.321" y="-224" type="line"/>
      <point x="623.321" y="-256" type="line"/>
    </contour>
  </outline>
</glyph>
<glyph name="backslash" format="2">
  <advance width="1212"/>
  <unicode hex="005C"/>
  <outline>
    <contour>
      <point x="327.298" y="1430" type="line"/>
      <point x="288.298" y="1430" type="line"/>
      <point x="878.298" y="-100" type="line"/>
      <point x="917.298" y="-100" type="line"/>
    </contour>
  </outline>
</glyph>
<glyph name="a" format="2">
  <advance width="1982" height="1448"/>
  <unicode hex="0061"/>
  <anchor x="1058" y="1150" name="top"/>
  <anchor x="894" y="-150" name="bottom"/>
  <anchor x="1553" y="0" name="ogonek"/>
  <outline>
    <contour>
      <point x="323.963" y="0" type="line" smooth="yes"/>
      <point x="284.963" y="0"/>
      <point x="227.963" y="21"/>
      <point x="193.963" y="62"/>
      <point x="183.963" y="123"/>
      <point x="190.963" y="162" type="qcurve" smooth="yes"/>
      <point x="236.963" y="430" type="line" smooth="yes"/>
      <point x="243.963" y="469"/>
      <point x="275.963" y="530"/>
      <point x="323.963" y="571"/>
      <point x="388.963" y="592"/>
      <point x="427.963" y="592" type="qcurve" smooth="yes"/>
      <point x="1619.96" y="592" type="line"/>
      <point x="1661.96" y="832" type="line" smooth="yes"/>
      <point x="1672.96" y="898"/>
      <point x="1625.96" y="968"/>
      <point x="1559.96" y="968" type="qcurve" smooth="yes"/>
      <point x="504.963" y="968" type="line" smooth="yes"/>
      <point x="437.963" y="968"/>
      <point x="366.963" y="898"/>
      <point x="355.963" y="832" type="qcurve" smooth="yes"/>
      <point x="339.963" y="742" type="line"/>
      <point x="304.963" y="750" type="line"/>
      <point x="320.963" y="838" type="line" smooth="yes"/>
      <point x="327.963" y="877"/>
      <point x="358.963" y="938"/>
      <point x="406.963" y="979"/>
      <point x="471.963" y="1000"/>
      <point x="510.963" y="1000" type="qcurve" smooth="yes"/>
      <point x="1565.96" y="1000" type="line" smooth="yes"/>
      <point x="1604.96" y="1000"/>
      <point x="1661.96" y="979"/>
      <point x="1694.96" y="938"/>
      <point x="1705.96" y="877"/>
      <point x="1698.96" y="838" type="qcurve" smooth="yes"/>
      <point x="1551.96" y="0" type="line"/>
      <point x="1515.96" y="0" type="line"/>
      <point x="1520.96" y="26" type="line"/>
      <point x="1515.96" y="19"/>
      <point x="1504.96" y="9"/>
      <point x="1492.96" y="3"/>
      <point x="1477.96" y="0"/>
      <point x="1469.96" y="0" type="qcurve" smooth="yes"/>
    </contour>
    <contour>
      <point x="227.963" y="168" type="line" smooth="yes"/>
      <point x="215.963" y="102"/>
      <point x="262.963" y="32"/>
      <point x="329.963" y="32" type="qcurve" smooth="yes"/>
      <point x="1521.96" y="32" type="line"/>
      <point x="1613.96" y="560" type="line"/>
      <point x="421.963" y="560" type="line" smooth="yes"/>
      <point x="354.963" y="560"/>
      <point x="283.963" y="490"/>
      <point x="271.963" y="424" type="qcurve" smooth="yes"/>
    </contour>
  </outline>
  <guideline x="1517" y="-0" angle="260.103" color="1,0,0,1"/>
</glyph>
<glyph name="c" format="2">
  <advance width="1955"/>
  <unicode hex="0063"/>
  <anchor x="1091" y="1150" name="top"/>
  <anchor x="864" y="-150" name="bottom"/>
  <outline>
    <contour>
      <point x="201" y="162" type="line"/>
      <point x="319" y="838" type="line" smooth="yes"/>
      <point x="326" y="877"/>
      <point x="357" y="938"/>
      <point x="405" y="979"/>
      <point x="470" y="1000"/>
      <point x="509" y="1000" type="qcurve" smooth="yes"/>
      <point x="1620" y="1000" type="line" smooth="yes"/>
      <point x="1659" y="1000"/>
      <point x="1716" y="979"/>
      <point x="1749" y="938"/>
      <point x="1760" y="877"/>
      <point x="1753" y="838" type="qcurve" smooth="yes"/>
      <point x="1734" y="730" type="line"/>
      <point x="1696" y="722" type="line"/>
      <point x="1716" y="832" type="line" smooth="yes"/>
      <point x="1727" y="898"/>
      <point x="1680" y="968"/>
      <point x="1614" y="968" type="qcurve" smooth="yes"/>
      <point x="503" y="968" type="line" smooth="yes"/>
      <point x="436" y="968"/>
      <point x="365" y="898"/>
      <point x="354" y="832" type="qcurve" smooth="yes"/>
      <point x="238" y="168" type="line" smooth="yes"/>
      <point x="226" y="102"/>
      <point x="273" y="32"/>
      <point x="340" y="32" type="qcurve" smooth="yes"/>
      <point x="1455" y="32" type="line" smooth="yes"/>
      <point x="1521" y="32"/>
      <point x="1592" y="102"/>
      <point x="1604" y="168" type="qcurve" smooth="yes"/>
      <point x="1627" y="300" type="line"/>
      <point x="1661" y="290" type="line"/>
      <point x="1639" y="162" type="line" smooth="yes"/>
      <point x="1632" y="123"/>
      <point x="1600" y="62"/>
      <point x="1552" y="21"/>
      <point x="1488" y="0"/>
      <point x="1449" y="0" type="qcurve" smooth="yes"/>
      <point x="334" y="0" type="line" smooth="yes"/>
      <point x="295" y="0"/>
      <point x="238" y="21"/>
      <point x="204" y="62"/>
      <point x="194" y="123"/>
      <point x="201" y="162" type="qcurve"/>
    </contour>
  </outline>
</glyph>
<glyph name="d" format="2">
  <advance width="2085.91" height="1448"/>
  <unicode hex="0064"/>
  <anchor x="1187" y="1598" name="top"/>
  <anchor x="882" y="-150" name="bottom"/>
  <anchor x="1894" y="1448" name="right"/>
  <outline>
    <contour>
      <point x="200.765" y="162" type="line"/>
      <point x="318.765" y="838" type="line" smooth="yes"/>
      <point x="325.765" y="877"/>
      <point x="356.765" y="938"/>
      <point x="404.765" y="979"/>
      <point x="469.765" y="1000"/>
      <point x="508.765" y="1000" type="qcurve" smooth="yes"/>
      <point x="1716.77" y="1000" type="line" smooth="yes"/>
      <point x="1742.77" y="1000"/>
      <point x="1769.77" y="992"/>
      <point x="1775.77" y="984" type="qcurve"/>
      <point x="1856.77" y="1448" type="line"/>
      <point x="1892.77" y="1448" type="line"/>
      <point x="1639.77" y="0" type="line"/>
      <point x="1603.77" y="0" type="line"/>
      <point x="1606.77" y="16" type="line"/>
      <point x="1598.77" y="8"/>
      <point x="1569.77" y="0"/>
      <point x="1543.77" y="0" type="qcurve" smooth="yes"/>
      <point x="333.765" y="0" type="line" smooth="yes"/>
      <point x="294.765" y="0"/>
      <point x="237.765" y="21"/>
      <point x="203.765" y="62"/>
      <point x="193.765" y="123"/>
      <point x="200.765" y="162" type="qcurve"/>
    </contour>
    <contour>
      <point x="1772.77" y="968" type="line"/>
      <point x="502.765" y="968" type="line" smooth="yes"/>
      <point x="435.765" y="968"/>
      <point x="364.765" y="898"/>
      <point x="353.765" y="832" type="qcurve" smooth="yes"/>
      <point x="237.765" y="168" type="line" smooth="yes"/>
      <point x="225.765" y="102"/>
      <point x="272.765" y="32"/>
      <point x="339.765" y="32" type="qcurve" smooth="yes"/>
      <point x="1609.77" y="32" type="line"/>
    </contour>
  </outline>
  <guideline angle="0" x="0" y="988"/>
  <guideline angle="0" x="0" y="42"/>
</glyph>
<glyph name="e" format="2">
  <advance width="2022" height="1448"/>
  <unicode hex="0065"/>
  <anchor x="1093" y="1150" name="top"/>
  <anchor x="866" y="-150" name="bottom"/>
  <anchor x="1447" y="0" name="ogonek"/>
  <outline>
    <contour>
      <point x="200.762" y="162" type="line"/>
      <point x="318.762" y="838" type="line" smooth="yes"/>
      <point x="325.762" y="877"/>
      <point x="356.762" y="938"/>
      <point x="404.762" y="979"/>
      <point x="469.762" y="1000"/>
      <point x="508.762" y="1000" type="qcurve" smooth="yes"/>
      <point x="1621.76" y="1000" type="line" smooth="yes"/>
      <point x="1660.76" y="1000"/>
      <point x="1717.76" y="979"/>
      <point x="1750.76" y="938"/>
      <point x="1761.76" y="877"/>
      <point x="1754.76" y="838" type="qcurve" smooth="yes"/>
      <point x="1693.76" y="488" type="line"/>
      <point x="293.762" y="488" type="line"/>
      <point x="237.762" y="168" type="line" smooth="yes"/>
      <point x="225.762" y="102"/>
      <point x="272.762" y="32"/>
      <point x="339.762" y="32" type="qcurve" smooth="yes"/>
      <point x="1452.76" y="32" type="line" smooth="yes"/>
      <point x="1518.76" y="32"/>
      <point x="1589.76" y="102"/>
      <point x="1601.76" y="168" type="qcurve" smooth="yes"/>
      <point x="1616.76" y="258" type="line"/>
      <point x="1651.76" y="250" type="line"/>
      <point x="1636.76" y="162" type="line" smooth="yes"/>
      <point x="1629.76" y="123"/>
      <point x="1597.76" y="62"/>
      <point x="1549.76" y="21"/>
      <point x="1485.76" y="0"/>
      <point x="1446.76" y="0" type="qcurve" smooth="yes"/>
      <point x="333.762" y="0" type="line" smooth="yes"/>
      <point x="294.762" y="0"/>
      <point x="237.762" y="21"/>
      <point x="203.762" y="62"/>
      <point x="193.762" y="123"/>
      <point x="200.762" y="162" type="qcurve"/>
    </contour>
    <contour>
      <point x="298.762" y="520" type="line"/>
      <point x="1662.76" y="520" type="line"/>
      <point x="1717.76" y="832" type="line" smooth="yes"/>
      <point x="1728.76" y="898"/>
      <point x="1681.76" y="968"/>
      <point x="1615.76" y="968" type="qcurve" smooth="yes"/>
      <point x="502.762" y="968" type="line" smooth="yes"/>
      <point x="435.762" y="968"/>
      <point x="364.762" y="898"/>
      <point x="353.762" y="832" type="qcurve" smooth="yes"/>
    </contour>
  </outline>
  <guideline y="-1000" color="1,0,0,1"/>
</glyph>
<glyph name="g" format="2">
  <advance width="2087" height="1448"/>
  <unicode hex="0067"/>
  <anchor x="1118" y="1150" name="top"/>
  <anchor x="816" y="-578" name="bottom"/>
  <outline>
    <contour>
      <point x="237.61" y="164" type="line"/>
      <point x="354.61" y="836" type="line" smooth="yes"/>
      <point x="366.61" y="902"/>
      <point x="437.61" y="972"/>
      <point x="504.61" y="972" type="qcurve" smooth="yes"/>
      <point x="1773.61" y="972" type="line"/>
      <point x="1608.61" y="28" type="line"/>
      <point x="339.61" y="28" type="line" smooth="yes"/>
      <point x="272.61" y="28"/>
      <point x="225.61" y="97"/>
      <point x="237.61" y="164" type="qcurve"/>
    </contour>
    <contour>
      <point x="137.61" y="-428" type="line"/>
      <point x="1404.61" y="-428" type="line" smooth="yes"/>
      <point x="1443.61" y="-428"/>
      <point x="1507.61" y="-407"/>
      <point x="1555.61" y="-366"/>
      <point x="1586.61" y="-305"/>
      <point x="1593.61" y="-266" type="qcurve" smooth="yes"/>
      <point x="1814.61" y="1000" type="line"/>
      <point x="1778.61" y="1000" type="line"/>
      <point x="1776.61" y="988" type="line"/>
      <point x="1770.61" y="996"/>
      <point x="1743.61" y="1004"/>
      <point x="1717.61" y="1004" type="qcurve" smooth="yes"/>
      <point x="510.61" y="1004" type="line" smooth="yes"/>
      <point x="471.61" y="1004"/>
      <point x="406.61" y="983"/>
      <point x="358.61" y="942"/>
      <point x="326.61" y="881"/>
      <point x="319.61" y="842" type="qcurve" smooth="yes"/>
      <point x="200.61" y="157" type="line" smooth="yes"/>
      <point x="193.61" y="118"/>
      <point x="203.61" y="57"/>
      <point x="238.61" y="17"/>
      <point x="295.61" y="-4"/>
      <point x="334.61" y="-4" type="qcurve" smooth="yes"/>
      <point x="1543.61" y="-4" type="line" smooth="yes"/>
      <point x="1569.61" y="-4"/>
      <point x="1598.61" y="4"/>
      <point x="1605.61" y="12" type="qcurve"/>
      <point x="1558.61" y="-260" type="line" smooth="yes"/>
      <point x="1547.61" y="-326"/>
      <point x="1468.61" y="-396"/>
      <point x="1409.61" y="-396" type="qcurve" smooth="yes"/>
      <point x="132.61" y="-396" type="line"/>
    </contour>
  </outline>
</glyph>
<glyph name="h" format="2">
  <advance width="2029.46" height="1448"/>
  <unicode hex="0068"/>
  <anchor x="503" y="1598" name="top"/>
  <anchor x="880" y="-150" name="bottom"/>
  <anchor x="195" y="500" name="left"/>
  <outline>
    <contour>
      <point x="205.321" y="0" type="line"/>
      <point x="458.321" y="1448" type="line"/>
      <point x="494.321" y="1448" type="line"/>
      <point x="411.321" y="972" type="line"/>
      <point x="424.321" y="986"/>
      <point x="465.321" y="1000"/>
      <point x="492.321" y="1000" type="qcurve" smooth="yes"/>
      <point x="1612.32" y="1000" type="line" smooth="yes"/>
      <point x="1651.32" y="1000"/>
      <point x="1708.32" y="979"/>
      <point x="1742.32" y="938"/>
      <point x="1752.32" y="877"/>
      <point x="1745.32" y="838" type="qcurve" smooth="yes"/>
      <point x="1599.32" y="0" type="line"/>
      <point x="1563.32" y="0" type="line"/>
      <point x="1708.32" y="832" type="line" smooth="yes"/>
      <point x="1720.32" y="898"/>
      <point x="1673.32" y="968"/>
      <point x="1606.32" y="968" type="qcurve" smooth="yes"/>
      <point x="410.321" y="968" type="line"/>
      <point x="241.321" y="0" type="line"/>
    </contour>
  </outline>
  <guideline angle="0" x="0" y="988"/>
  <guideline angle="0" x="0" y="870"/>
</glyph>
<glyph name="k" format="2">
  <advance width="1797.47" height="1448"/>
  <unicode hex="006B"/>
  <anchor x="1306" y="1598" name="top"/>
  <anchor x="791" y="-150" name="bottom"/>
  <anchor x="231" y="724" name="left"/>
  <outline>
    <contour>
      <point x="205.322" y="0" type="line"/>
      <point x="241.322" y="0" type="line"/>
      <point x="332.322" y="522" type="line"/>
      <point x="319.322" y="515" type="line"/>
      <point x="1569.32" y="0" type="line"/>
      <point x="1661.32" y="0" type="line"/>
      <point x="373.322" y="530" type="line"/>
      <point x="373.322" y="521" type="line"/>
      <point x="1684.32" y="1000" type="line"/>
      <point x="1604.32" y="1000" type="line"/>
      <point x="324.322" y="533" type="line"/>
      <point x="333.322" y="525" type="line"/>
      <point x="494.322" y="1448" type="line"/>
      <point x="458.322" y="1448" type="line"/>
    </contour>
  </outline>
</glyph>
<glyph name="o" format="2">
  <advance width="2068" height="1448"/>
  <unicode hex="006F"/>
  <anchor x="1115" y="1150" name="top"/>
  <anchor x="888" y="-150" name="bottom"/>
  <anchor x="1801" y="838" name="horn"/>
  <anchor x="932" y="0" name="ogonek"/>
  <outline>
    <contour>
      <point x="200.762" y="162" type="line"/>
      <point x="318.762" y="838" type="line" smooth="yes"/>
      <point x="325.762" y="877"/>
      <point x="356.762" y="938"/>
      <point x="404.762" y="979"/>
      <point x="469.762" y="1000"/>
      <point x="508.762" y="1000" type="qcurve" smooth="yes"/>
      <point x="1666.76" y="1000" type="line" smooth="yes"/>
      <point x="1745.76" y="1000"/>
      <point x="1814.76" y="917"/>
      <point x="1800.76" y="838" type="qcurve" smooth="yes"/>
      <point x="1682.76" y="162" type="line" smooth="yes"/>
      <point x="1675.76" y="123"/>
      <point x="1643.76" y="62"/>
      <point x="1595.76" y="21"/>
      <point x="1530.76" y="0"/>
      <point x="1491.76" y="0" type="qcurve" smooth="yes"/>
      <point x="333.762" y="0" type="line" smooth="yes"/>
      <point x="294.762" y="0"/>
      <point x="237.762" y="21"/>
      <point x="203.762" y="62"/>
      <point x="193.762" y="123"/>
      <point x="200.762" y="162" type="qcurve"/>
    </contour>
    <contour>
      <point x="237.762" y="168" type="line" smooth="yes"/>
      <point x="225.762" y="102"/>
      <point x="272.762" y="32"/>
      <point x="339.762" y="32" type="qcurve" smooth="yes"/>
      <point x="1497.76" y="32" type="line" smooth="yes"/>
      <point x="1564.76" y="32"/>
      <point x="1635.76" y="102"/>
      <point x="1647.76" y="168" type="qcurve" smooth="yes"/>
      <point x="1763.76" y="832" type="line" smooth="yes"/>
      <point x="1774.76" y="898"/>
      <point x="1727.76" y="968"/>
      <point x="1660.76" y="968" type="qcurve" smooth="yes"/>
      <point x="502.762" y="968" type="line" smooth="yes"/>
      <point x="435.762" y="968"/>
      <point x="364.762" y="898"/>
      <point x="353.762" y="832" type="qcurve" smooth="yes"/>
    </contour>
  </outline>
</glyph>
<glyph name="p" format="2">
  <advance width="2086" height="1448"/>
  <unicode hex="0070"/>
  <anchor x="1224" y="1598" name="top"/>
  <anchor x="835" y="-578" name="bottom"/>
  <outline>
    <contour>
      <point x="129.327" y="-428" type="line"/>
      <point x="379.327" y="1000" type="line"/>
      <point x="415.327" y="1000" type="line"/>
      <point x="412.327" y="984" type="line"/>
      <point x="419.327" y="992"/>
      <point x="449.327" y="1000"/>
      <point x="475.327" y="1000" type="qcurve" smooth="yes"/>
      <point x="1685.33" y="1000" type="line" smooth="yes"/>
      <point x="1724.33" y="1000"/>
      <point x="1781.33" y="979"/>
      <point x="1815.33" y="938"/>
      <point x="1825.33" y="877"/>
      <point x="1818.33" y="838" type="qcurve" smooth="yes"/>
      <point x="1700.33" y="162" type="line" smooth="yes"/>
      <point x="1693.33" y="123"/>
      <point x="1662.33" y="62"/>
      <point x="1614.33" y="21"/>
      <point x="1549.33" y="0"/>
      <point x="1510.33" y="0" type="qcurve" smooth="yes"/>
      <point x="302.327" y="0" type="line" smooth="yes"/>
      <point x="276.327" y="0"/>
      <point x="249.327" y="8"/>
      <point x="243.327" y="16" type="qcurve"/>
      <point x="165.327" y="-428" type="line"/>
    </contour>
    <contour>
      <point x="246.327" y="32" type="line"/>
      <point x="1516.33" y="32" type="line" smooth="yes"/>
      <point x="1583.33" y="32"/>
      <point x="1654.33" y="102"/>
      <point x="1665.33" y="168" type="qcurve" smooth="yes"/>
      <point x="1781.33" y="832" type="line" smooth="yes"/>
      <point x="1793.33" y="898"/>
      <point x="1746.33" y="968"/>
      <point x="1679.33" y="968" type="qcurve" smooth="yes"/>
      <point x="409.327" y="968" type="line"/>
    </contour>
  </outline>
  <guideline y="988"/>
  <guideline y="42"/>
</glyph>
<glyph name="q" format="2">
  <advance width="2087" height="1448"/>
  <unicode hex="0071"/>
  <anchor x="1203" y="1598" name="top"/>
  <anchor x="908" y="-150" name="bottom"/>
  <outline>
    <contour>
      <point x="200.765" y="162" type="line"/>
      <point x="318.765" y="838" type="line" smooth="yes"/>
      <point x="325.765" y="877"/>
      <point x="356.765" y="938"/>
      <point x="404.765" y="979"/>
      <point x="469.765" y="1000"/>
      <point x="508.765" y="1000" type="qcurve" smooth="yes"/>
      <point x="1716.77" y="1000" type="line" smooth="yes"/>
      <point x="1742.77" y="1000"/>
      <point x="1769.77" y="992"/>
      <point x="1775.77" y="984" type="qcurve"/>
      <point x="1778.77" y="1000" type="line"/>
      <point x="1814.77" y="1000" type="line"/>
      <point x="1565.77" y="-428" type="line"/>
      <point x="1529.77" y="-428" type="line"/>
      <point x="1606.77" y="16" type="line"/>
      <point x="1598.77" y="8"/>
      <point x="1569.77" y="0"/>
      <point x="1543.77" y="0" type="qcurve" smooth="yes"/>
      <point x="333.765" y="0" type="line" smooth="yes"/>
      <point x="294.765" y="0"/>
      <point x="237.765" y="21"/>
      <point x="203.765" y="62"/>
      <point x="193.765" y="123"/>
      <point x="200.765" y="162" type="qcurve"/>
    </contour>
    <contour>
      <point x="237.765" y="168" type="line" smooth="yes"/>
      <point x="225.765" y="102"/>
      <point x="272.765" y="32"/>
      <point x="339.765" y="32" type="qcurve" smooth="yes"/>
      <point x="1609.77" y="32" type="line"/>
      <point x="1772.77" y="968" type="line"/>
      <point x="502.765" y="968" type="line" smooth="yes"/>
      <point x="435.765" y="968"/>
      <point x="364.765" y="898"/>
      <point x="353.765" y="832" type="qcurve" smooth="yes"/>
    </contour>
  </outline>
  <guideline y="988"/>
  <guideline y="42"/>
</glyph>
<glyph name="r" format="2">
  <advance width="1688" height="1448"/>
  <unicode hex="0072"/>
  <anchor x="1027" y="1150" name="top"/>
  <anchor x="196" y="-150" name="bottom"/>
  <anchor x="191" y="500" name="left"/>
  <outline>
    <contour>
      <point x="204.327" y="0" type="line"/>
      <point x="379.327" y="1000" type="line"/>
      <point x="415.327" y="1000" type="line"/>
      <point x="410.327" y="972" type="line"/>
      <point x="423.327" y="986"/>
      <point x="464.327" y="1000"/>
      <point x="491.327" y="1000" type="qcurve" smooth="yes"/>
      <point x="1461.33" y="1000" type="line" smooth="yes"/>
      <point x="1500.33" y="1000"/>
      <point x="1557.33" y="979"/>
      <point x="1591.33" y="938"/>
      <point x="1601.33" y="877"/>
      <point x="1594.33" y="838" type="qcurve" smooth="yes"/>
      <point x="1581.33" y="760" type="line"/>
      <point x="1543.33" y="752" type="line"/>
      <point x="1557.33" y="832" type="line" smooth="yes"/>
      <point x="1569.33" y="898"/>
      <point x="1522.33" y="968"/>
      <point x="1455.33" y="968" type="qcurve" smooth="yes"/>
      <point x="409.327" y="968" type="line"/>
      <point x="240.327" y="0" type="line"/>
    </contour>
  </outline>
  <guideline y="988"/>
  <guideline y="870"/>
</glyph>
<glyph name="s" format="2">
  <advance width="1821"/>
  <unicode hex="0073"/>
  <anchor x="997" y="1150" name="top"/>
  <anchor x="766" y="-150" name="bottom"/>
  <outline>
    <contour>
      <point x="214.04" y="300" type="line"/>
      <point x="252.04" y="308" type="line"/>
      <point x="227.04" y="168" type="line" smooth="yes"/>
      <point x="216.04" y="102"/>
      <point x="260.04" y="32"/>
      <point x="334.04" y="32" type="qcurve" smooth="yes"/>
      <point x="1258.04" y="32" type="line" smooth="yes"/>
      <point x="1332.04" y="32"/>
      <point x="1400.04" y="101"/>
      <point x="1411.04" y="168" type="qcurve" smooth="yes"/>
      <point x="1443.04" y="351" type="line" smooth="yes"/>
      <point x="1455.04" y="417"/>
      <point x="1411.04" y="487"/>
      <point x="1337.04" y="487" type="qcurve" smooth="yes"/>
      <point x="433.04" y="487" type="line" smooth="yes"/>
      <point x="394.04" y="487"/>
      <point x="337.04" y="508"/>
      <point x="303.04" y="549"/>
      <point x="292.04" y="610"/>
      <point x="299.04" y="649" type="qcurve" smooth="yes"/>
      <point x="332.04" y="838" type="line" smooth="yes"/>
      <point x="339.04" y="877"/>
      <point x="371.04" y="938"/>
      <point x="419.04" y="979"/>
      <point x="484.04" y="1000"/>
      <point x="523.04" y="1000" type="qcurve" smooth="yes"/>
      <point x="1415.04" y="1000" type="line" smooth="yes"/>
      <point x="1454.04" y="1000"/>
      <point x="1511.04" y="979"/>
      <point x="1545.04" y="938"/>
      <point x="1555.04" y="877"/>
      <point x="1548.04" y="838" type="qcurve" smooth="yes"/>
      <point x="1527.04" y="714" type="line"/>
      <point x="1489.04" y="706" type="line"/>
      <point x="1511.04" y="832" type="line" smooth="yes"/>
      <point x="1523.04" y="899"/>
      <point x="1479.04" y="968"/>
      <point x="1405.04" y="968" type="qcurve" smooth="yes"/>
      <point x="521.04" y="968" type="line" smooth="yes"/>
      <point x="447.04" y="968"/>
      <point x="379.04" y="898"/>
      <point x="367.04" y="832" type="qcurve" smooth="yes"/>
      <point x="336.04" y="655" type="line" smooth="yes"/>
      <point x="325.04" y="589"/>
      <point x="369.04" y="519"/>
      <point x="443.04" y="519" type="qcurve" smooth="yes"/>
      <point x="1347.04" y="519" type="line" smooth="yes"/>
      <point x="1386.04" y="519"/>
      <point x="1443.04" y="498"/>
      <point x="1477.04" y="457"/>
      <point x="1487.04" y="396"/>
      <point x="1480.04" y="357" type="qcurve" smooth="yes"/>
      <point x="1446.04" y="162" type="line" smooth="yes"/>
      <point x="1439.04" y="123"/>
      <point x="1408.04" y="62"/>
      <point x="1360.04" y="21"/>
      <point x="1295.04" y="0"/>
      <point x="1256.04" y="0" type="qcurve" smooth="yes"/>
      <point x="324.04" y="0" type="line" smooth="yes"/>
      <point x="285.04" y="0"/>
      <point x="228.04" y="21"/>
      <point x="194.04" y="62"/>
      <point x="183.04" y="123"/>
      <point x="190.04" y="162" type="qcurve" smooth="yes"/>
    </contour>
  </outline>
</glyph>
<glyph name="t" format="2">
  <advance width="1376.34"/>
  <unicode hex="0074"/>
  <anchor x="779" y="1394" name="top"/>
  <anchor x="510" y="-150" name="bottom"/>
  <anchor x="683" y="1400" name="right"/>
  <outline>
    <contour>
      <point x="562.884" y="0" type="line" smooth="yes"/>
      <point x="523.884" y="0"/>
      <point x="466.884" y="21"/>
      <point x="432.884" y="62"/>
      <point x="422.884" y="123"/>
      <point x="429.884" y="162" type="qcurve" smooth="yes"/>
      <point x="569.884" y="968" type="line"/>
      <point x="179.884" y="968" type="line"/>
      <point x="185.884" y="1000" type="line"/>
      <point x="575.884" y="1000" type="line"/>
      <point x="618.884" y="1244" type="line"/>
      <point x="654.884" y="1244" type="line"/>
      <point x="611.884" y="1000" type="line"/>
      <point x="1297.88" y="1000" type="line"/>
      <point x="1291.88" y="968" type="line"/>
      <point x="605.884" y="968" type="line"/>
      <point x="466.884" y="168" type="line" smooth="yes"/>
      <point x="454.884" y="102"/>
      <point x="501.884" y="32"/>
      <point x="568.884" y="32" type="qcurve" smooth="yes"/>
      <point x="1098.88" y="32" type="line"/>
      <point x="1082.88" y="0" type="line"/>
    </contour>
  </outline>
</glyph>
<glyph name="u" format="2">
  <advance width="2021"/>
  <unicode hex="0075"/>
  <anchor x="1092" y="1150" name="top"/>
  <anchor x="865" y="-150" name="bottom"/>
  <anchor x="909" y="0" name="ogonek"/>
  <anchor x="1767" y="1000" name="horn"/>
  <outline>
    <contour>
      <point x="216.327" y="162" type="line"/>
      <point x="363.327" y="1000" type="line"/>
      <point x="399.327" y="1000" type="line"/>
      <point x="253.327" y="168" type="line" smooth="yes"/>
      <point x="242.327" y="102"/>
      <point x="290.327" y="32"/>
      <point x="356.327" y="32" type="qcurve" smooth="yes"/>
      <point x="1435.33" y="32" type="line" smooth="yes"/>
      <point x="1501.33" y="32"/>
      <point x="1573.33" y="102"/>
      <point x="1584.33" y="168" type="qcurve" smooth="yes"/>
      <point x="1730.33" y="1000" type="line"/>
      <point x="1766.33" y="1000" type="line"/>
      <point x="1619.33" y="162" type="line" smooth="yes"/>
      <point x="1612.33" y="123"/>
      <point x="1581.33" y="62"/>
      <point x="1533.33" y="21"/>
      <point x="1468.33" y="0"/>
      <point x="1429.33" y="0" type="qcurve" smooth="yes"/>
      <point x="350.327" y="0" type="line" smooth="yes"/>
      <point x="311.327" y="0"/>
      <point x="254.327" y="21"/>
      <point x="220.327" y="62"/>
      <point x="209.327" y="123"/>
      <point x="216.327" y="162" type="qcurve"/>
    </contour>
  </outline>
</glyph>
<glyph name="w" format="2">
  <advance width="2539"/>
  <unicode hex="0077"/>
  <anchor x="1352" y="1150" name="top"/>
  <anchor x="1125" y="-150" name="bottom"/>
  <outline>
    <contour>
      <point x="531.484" y="0" type="line"/>
      <point x="72.4841" y="1000" type="line"/>
      <point x="115.484" y="1000" type="line"/>
      <point x="555.484" y="30" type="line"/>
      <point x="549.484" y="0" type="line"/>
    </contour>
    <contour>
      <point x="539.484" y="0" type="line"/>
      <point x="543.484" y="23" type="line"/>
      <point x="1312.48" y="1000" type="line"/>
      <point x="1333.48" y="1000" type="line"/>
      <point x="1327.48" y="975" type="line"/>
      <point x="561.484" y="0" type="line"/>
    </contour>
    <contour>
      <point x="1758.48" y="0" type="line"/>
      <point x="1315.48" y="975" type="line"/>
      <point x="1320.48" y="1000" type="line"/>
      <point x="1342.48" y="1000" type="line"/>
      <point x="1784.48" y="23" type="line"/>
      <point x="1780.48" y="0" type="line"/>
    </contour>
    <contour>
      <point x="1768.48" y="0" type="line"/>
      <point x="1772.48" y="23" type="line"/>
      <point x="2541.48" y="1000" type="line"/>
      <point x="2579.48" y="1000" type="line"/>
      <point x="1788.48" y="0" type="line"/>
    </contour>
  </outline>
  <guideline y="352"/>
  <guideline y="352"/>
</glyph>
<glyph name="x" format="2">
  <advance width="1522.3"/>
  <unicode hex="0078"/>
  <anchor x="835.15" y="1150" name="top"/>
  <anchor x="608.15" y="-150" name="bottom"/>
  <outline>
    <contour>
      <point x="-103.85" y="0" type="line"/>
      <point x="-49.85" y="0" type="line"/>
      <point x="716.15" y="489" type="line"/>
      <point x="1326.15" y="0" type="line"/>
      <point x="1386.15" y="0" type="line"/>
      <point x="750.15" y="510" type="line"/>
      <point x="1532.15" y="1000" type="line"/>
      <point x="1477.15" y="1000" type="line"/>
      <point x="726.15" y="530" type="line"/>
      <point x="135.15" y="1000" type="line"/>
      <point x="76.15" y="1000" type="line"/>
      <point x="692.15" y="509" type="line"/>
    </contour>
  </outline>
</glyph>
<glyph name="y" format="2">
  <advance width="1719"/>
  <unicode hex="0079"/>
  <anchor x="1042" y="1150" name="top"/>
  <anchor x="1044" y="-350" name="bottom"/>
  <outline>
    <contour>
      <point x="-139.523" y="-428" type="line"/>
      <point x="177.477" y="-428" type="line" smooth="yes"/>
      <point x="227.477" y="-428"/>
      <point x="303.477" y="-418"/>
      <point x="367.477" y="-391"/>
      <point x="429.477" y="-343"/>
      <point x="465.477" y="-306" type="qcurve" smooth="yes"/>
      <point x="1759.48" y="1000" type="line"/>
      <point x="1717.48" y="1000" type="line"/>
      <point x="759.477" y="32" type="line"/>
      <point x="119.477" y="1000" type="line"/>
      <point x="72.477" y="1000" type="line"/>
      <point x="729.477" y="3" type="line"/>
      <point x="440.477" y="-289" type="line" smooth="yes"/>
      <point x="407.477" y="-322"/>
      <point x="354.477" y="-364"/>
      <point x="299.477" y="-387"/>
      <point x="233.477" y="-396"/>
      <point x="188.477" y="-396" type="qcurve" smooth="yes"/>
      <point x="-140.523" y="-396" type="line"/>
    </contour>
  </outline>
</glyph>
<glyph name="z" format="2">
  <advance width="1787.08"/>
  <unicode hex="007A"/>
  <anchor x="973.575" y="1150" name="top"/>
  <anchor x="746.575" y="-150" name="bottom"/>
  <outline>
    <contour>
      <point x="33.575" y="0" type="line"/>
      <point x="1511.57" y="0" type="line"/>
      <point x="1517.57" y="32" type="line"/>
      <point x="96.575" y="32" type="line"/>
      <point x="98.575" y="26" type="line"/>
      <point x="1675.57" y="972" type="line"/>
      <point x="1680.57" y="1000" type="line"/>
      <point x="268.575" y="1000" type="line"/>
      <point x="262.575" y="968" type="line"/>
      <point x="1617.57" y="968" type="line"/>
      <point x="1615.57" y="974" type="line"/>
      <point x="38.575" y="28" type="line"/>
    </contour>
  </outline>
</glyph>
<glyph name="bar" format="2">
  <advance width="740.796"/>
  <unicode hex="007C"/>
  <outline>
    <contour>
      <point x="495" y="1520" type="line"/>
      <point x="535" y="1520" type="line"/>
      <point x="186" y="-480" type="line"/>
      <point x="146" y="-480" type="line"/>
    </contour>
  </outline>
</glyph>
<glyph name="asciitilde" format="2">
  <advance width="1575"/>
  <unicode hex="007E"/>
  <outline>
    <contour>
      <point x="-47" y="384" type="line"/>
      <point x="-9" y="461"/>
      <point x="68" y="582"/>
      <point x="147" y="676"/>
      <point x="229" y="742"/>
      <point x="315" y="784"/>
      <point x="404" y="804"/>
      <point x="451" y="804" type="qcurve" smooth="yes"/>
      <point x="533" y="804"/>
      <point x="650" y="745"/>
      <point x="742" y="657"/>
      <point x="822" y="554"/>
      <point x="912" y="466"/>
      <point x="1022" y="407"/>
      <point x="1098" y="407" type="qcurve" smooth="yes"/>
      <point x="1163" y="407"/>
      <point x="1281" y="448"/>
      <point x="1393" y="541"/>
      <point x="1501" y="689"/>
      <point x="1556" y="797" type="qcurve"/>
      <point x="1590" y="791" type="line"/>
      <point x="1552" y="715"/>
      <point x="1475" y="593"/>
      <point x="1396" y="500"/>
      <point x="1314" y="433"/>
      <point x="1228" y="391"/>
      <point x="1139" y="371"/>
      <point x="1092" y="371" type="qcurve" smooth="yes"/>
      <point x="1010" y="371"/>
      <point x="893" y="430"/>
      <point x="801" y="518"/>
      <point x="721" y="621"/>
      <point x="631" y="709"/>
      <point x="522" y="768"/>
      <point x="445" y="768" type="qcurve" smooth="yes"/>
      <point x="381" y="768"/>
      <point x="262" y="727"/>
      <point x="150" y="634"/>
      <point x="42" y="486"/>
      <point x="-13" y="378" type="qcurve"/>
    </contour>
  </outline>
</glyph>
<glyph name="sterling" format="2">
  <advance width="2478"/>
  <unicode hex="00A3"/>
  <outline>
    <contour>
      <point x="-100" y="0" type="line"/>
      <point x="1754" y="0" type="line" smooth="yes"/>
      <point x="1826" y="0"/>
      <point x="1945" y="39"/>
      <point x="2034" y="116"/>
      <point x="2093" y="228"/>
      <point x="2106" y="300" type="qcurve" smooth="yes"/>
      <point x="2117" y="362" type="line"/>
      <point x="2079" y="370" type="line"/>
      <point x="2066" y="298" type="line" smooth="yes"/>
      <point x="2054" y="234"/>
      <point x="2003" y="136"/>
      <point x="1925" y="70"/>
      <point x="1822" y="36"/>
      <point x="1758" y="36" type="qcurve" smooth="yes"/>
      <point x="238" y="36" type="line"/>
      <point x="310" y="71"/>
      <point x="402" y="204"/>
      <point x="418" y="300" type="qcurve" smooth="yes"/>
      <point x="471" y="610" type="line"/>
      <point x="1330" y="610" type="line"/>
      <point x="1347" y="646" type="line"/>
      <point x="478" y="646" type="line"/>
      <point x="556" y="1102" type="line" smooth="yes"/>
      <point x="567" y="1166"/>
      <point x="619" y="1264"/>
      <point x="697" y="1330"/>
      <point x="800" y="1364"/>
      <point x="864" y="1364" type="qcurve" smooth="yes"/>
      <point x="1988" y="1364" type="line" smooth="yes"/>
      <point x="2052" y="1364"/>
      <point x="2144" y="1330"/>
      <point x="2198" y="1264"/>
      <point x="2215" y="1166"/>
      <point x="2204" y="1102" type="qcurve"/>
      <point x="2189" y="1006" type="line"/>
      <point x="2230" y="1014" type="line"/>
      <point x="2244" y="1100" type="line"/>
      <point x="2257" y="1172"/>
      <point x="2237" y="1284"/>
      <point x="2174" y="1361"/>
      <point x="2068" y="1400"/>
      <point x="1996" y="1400" type="qcurve" smooth="yes"/>
      <point x="868" y="1400" type="line" smooth="yes"/>
      <point x="796" y="1400"/>
      <point x="677" y="1361"/>
      <point x="588" y="1284"/>
      <point x="529" y="1172"/>
      <point x="516" y="1100" type="qcurve" smooth="yes"/>
      <point x="438" y="646" type="line"/>
      <point x="218" y="646" type="line"/>
      <point x="211" y="610" type="line"/>
      <point x="432" y="610" type="line"/>
      <point x="378" y="298" type="line" smooth="yes"/>
      <point x="367" y="234"/>
      <point x="316" y="136"/>
      <point x="238" y="70"/>
      <point x="134" y="36"/>
      <point x="70" y="36" type="qcurve" smooth="yes"/>
      <point x="-94" y="36" type="line"/>
    </contour>
  </outline>
  <guideline y="1000"/>
</glyph>
<glyph name="currency" format="2">
  <advance width="2452" height="1448"/>
  <unicode hex="00A4"/>
  <outline>
    <contour>
      <point x="378" y="362" type="line"/>
      <point x="496" y="1038" type="line" smooth="yes"/>
      <point x="503" y="1077"/>
      <point x="534" y="1138"/>
      <point x="582" y="1179"/>
      <point x="647" y="1200"/>
      <point x="686" y="1200" type="qcurve" smooth="yes"/>
      <point x="1945" y="1200" type="line" smooth="yes"/>
      <point x="2024" y="1200"/>
      <point x="2092" y="1117"/>
      <point x="2078" y="1038" type="qcurve" smooth="yes"/>
      <point x="1960" y="362" type="line" smooth="yes"/>
      <point x="1953" y="323"/>
      <point x="1922" y="262"/>
      <point x="1874" y="221"/>
      <point x="1810" y="200"/>
      <point x="1771" y="200" type="qcurve" smooth="yes"/>
      <point x="512" y="200" type="line" smooth="yes"/>
      <point x="473" y="200"/>
      <point x="416" y="221"/>
      <point x="382" y="262"/>
      <point x="371" y="323"/>
      <point x="378" y="362" type="qcurve"/>
    </contour>
    <contour>
      <point x="415" y="368" type="line" smooth="yes"/>
      <point x="404" y="302"/>
      <point x="450" y="232"/>
      <point x="517" y="232" type="qcurve" smooth="yes"/>
      <point x="1776" y="232" type="line" smooth="yes"/>
      <point x="1842" y="232"/>
      <point x="1914" y="302"/>
      <point x="1925" y="368" type="qcurve" smooth="yes"/>
      <point x="2041" y="1032" type="line" smooth="yes"/>
      <point x="2052" y="1098"/>
      <point x="2006" y="1168"/>
      <point x="1940" y="1168" type="qcurve" smooth="yes"/>
      <point x="681" y="1168" type="line" smooth="yes"/>
      <point x="614" y="1168"/>
      <point x="542" y="1098"/>
      <point x="531" y="1032" type="qcurve" smooth="yes"/>
    </contour>
    <contour>
      <point x="104" y="52" type="line"/>
      <point x="88" y="80" type="line"/>
      <point x="396" y="257" type="line"/>
      <point x="416" y="232" type="line"/>
    </contour>
    <contour>
      <point x="304" y="1320" type="line"/>
      <point x="330" y="1348" type="line"/>
      <point x="580" y="1168" type="line"/>
      <point x="550" y="1143" type="line"/>
    </contour>
    <contour>
      <point x="2352" y="1348" type="line"/>
      <point x="2368" y="1320" type="line"/>
      <point x="2060" y="1143" type="line"/>
      <point x="2040" y="1168" type="line"/>
    </contour>
    <contour>
      <point x="2152" y="80" type="line"/>
      <point x="2126" y="52" type="line"/>
      <point x="1876" y="232" type="line"/>
      <point x="1906" y="257" type="line"/>
    </contour>
  </outline>
</glyph>
<glyph name="yen" format="2">
  <advance width="2218"/>
  <unicode hex="00A5"/>
  <outline>
    <contour>
      <point x="974" y="0" type="line"/>
      <point x="1014" y="0" type="line"/>
      <point x="1085" y="407" type="line"/>
      <point x="1628" y="407" type="line"/>
      <point x="1634" y="443" type="line"/>
      <point x="1091" y="443" type="line"/>
      <point x="1122" y="617" type="line"/>
      <point x="1665" y="617" type="line"/>
      <point x="1671" y="653" type="line"/>
      <point x="1171" y="653" type="line"/>
      <point x="2345" y="1400" type="line"/>
      <point x="2282" y="1400" type="line"/>
      <point x="1111" y="654" type="line"/>
      <point x="198" y="1400" type="line"/>
      <point x="127" y="1400" type="line"/>
      <point x="1045" y="653" type="line"/>
      <point x="542" y="653" type="line"/>
      <point x="536" y="617" type="line"/>
      <point x="1082" y="617" type="line"/>
      <point x="1082" y="617" type="line"/>
      <point x="1051" y="443" type="line"/>
      <point x="505" y="443" type="line"/>
      <point x="499" y="407" type="line"/>
      <point x="1045" y="407" type="line"/>
    </contour>
  </outline>
</glyph>
<glyph name="section" format="2">
  <advance width="2052"/>
  <unicode hex="00A7"/>
  <outline>
    <contour>
      <point x="408" y="-150" type="line"/>
      <point x="1340" y="-150" type="line" smooth="yes"/>
      <point x="1379" y="-150"/>
      <point x="1444" y="-129"/>
      <point x="1492" y="-88"/>
      <point x="1523" y="-27"/>
      <point x="1530" y="12" type="qcurve" smooth="yes"/>
      <point x="1564" y="207" type="line" smooth="yes"/>
      <point x="1572" y="252"/>
      <point x="1556" y="317"/>
      <point x="1534" y="337" type="qcurve"/>
      <point x="1573" y="337"/>
      <point x="1637" y="358"/>
      <point x="1686" y="399"/>
      <point x="1718" y="460"/>
      <point x="1725" y="499" type="qcurve" smooth="yes"/>
      <point x="1770" y="757" type="line" smooth="yes"/>
      <point x="1777" y="796"/>
      <point x="1766" y="857"/>
      <point x="1732" y="898"/>
      <point x="1675" y="919"/>
      <point x="1636" y="919" type="qcurve" smooth="yes"/>
      <point x="622" y="919" type="line" smooth="yes"/>
      <point x="548" y="919"/>
      <point x="505" y="989"/>
      <point x="516" y="1055" type="qcurve" smooth="yes"/>
      <point x="547" y="1232" type="line" smooth="yes"/>
      <point x="558" y="1298"/>
      <point x="627" y="1368"/>
      <point x="701" y="1368" type="qcurve" smooth="yes"/>
      <point x="1585" y="1368" type="line" smooth="yes"/>
      <point x="1659" y="1368"/>
      <point x="1703" y="1299"/>
      <point x="1691" y="1232" type="qcurve" smooth="yes"/>
      <point x="1678" y="1156" type="line"/>
      <point x="1715" y="1164" type="line"/>
      <point x="1728" y="1238" type="line" smooth="yes"/>
      <point x="1735" y="1277"/>
      <point x="1724" y="1338"/>
      <point x="1690" y="1379"/>
      <point x="1633" y="1400"/>
      <point x="1594" y="1400" type="qcurve" smooth="yes"/>
      <point x="702" y="1400" type="line" smooth="yes"/>
      <point x="663" y="1400"/>
      <point x="598" y="1379"/>
      <point x="550" y="1338"/>
      <point x="519" y="1277"/>
      <point x="512" y="1238" type="qcurve" smooth="yes"/>
      <point x="479" y="1049" type="line" smooth="yes"/>
      <point x="471" y="1004"/>
      <point x="487" y="939"/>
      <point x="509" y="919" type="qcurve"/>
      <point x="470" y="919"/>
      <point x="406" y="898"/>
      <point x="358" y="857"/>
      <point x="327" y="796"/>
      <point x="320" y="757" type="qcurve" smooth="yes"/>
      <point x="275" y="499" type="line" smooth="yes"/>
      <point x="268" y="460"/>
      <point x="279" y="399"/>
      <point x="313" y="358"/>
      <point x="370" y="337"/>
      <point x="409" y="337" type="qcurve" smooth="yes"/>
      <point x="1421" y="337" type="line" smooth="yes"/>
      <point x="1495" y="337"/>
      <point x="1538" y="267"/>
      <point x="1527" y="201" type="qcurve" smooth="yes"/>
      <point x="1495" y="18" type="line" smooth="yes"/>
      <point x="1484" y="-49"/>
      <point x="1415" y="-118"/>
      <point x="1341" y="-118" type="qcurve" smooth="yes"/>
      <point x="417" y="-118" type="line" smooth="yes"/>
      <point x="343" y="-118"/>
      <point x="300" y="-48"/>
      <point x="311" y="18" type="qcurve" smooth="yes"/>
      <point x="327" y="108" type="line"/>
      <point x="289" y="100" type="line"/>
      <point x="274" y="12" type="line" smooth="yes"/>
      <point x="267" y="-27"/>
      <point x="278" y="-88"/>
      <point x="312" y="-129"/>
      <point x="369" y="-150"/>
      <point x="408" y="-150" type="qcurve"/>
    </contour>
    <contour>
      <point x="418" y="369" type="line" smooth="yes"/>
      <point x="344" y="369"/>
      <point x="301" y="439"/>
      <point x="312" y="505" type="qcurve" smooth="yes"/>
      <point x="355" y="751" type="line" smooth="yes"/>
      <point x="366" y="817"/>
      <point x="435" y="887"/>
      <point x="509" y="887" type="qcurve" smooth="yes"/>
      <point x="1627" y="887" type="line" smooth="yes"/>
      <point x="1701" y="887"/>
      <point x="1744" y="817"/>
      <point x="1733" y="751" type="qcurve" smooth="yes"/>
      <point x="1690" y="505" type="line" smooth="yes"/>
      <point x="1679" y="438"/>
      <point x="1608" y="369"/>
      <point x="1534" y="369" type="qcurve" smooth="yes"/>
    </contour>
  </outline>
</glyph>
<glyph name="ordfeminine" format="2">
  <advance width="1366"/>
  <unicode hex="00AA"/>
  <outline>
    <contour>
      <point x="309" y="605" type="line" smooth="yes"/>
      <point x="282" y="605"/>
      <point x="243" y="619"/>
      <point x="219" y="646"/>
      <point x="212" y="687"/>
      <point x="217" y="714" type="qcurve" smooth="yes"/>
      <point x="247" y="886" type="line" smooth="yes"/>
      <point x="252" y="913"/>
      <point x="274" y="954"/>
      <point x="307" y="981"/>
      <point x="351" y="994"/>
      <point x="378" y="994" type="qcurve" smooth="yes"/>
      <point x="1151" y="994" type="line"/>
      <point x="1178" y="1148" type="line" smooth="yes"/>
      <point x="1185" y="1187"/>
      <point x="1157" y="1229"/>
      <point x="1118" y="1229" type="qcurve" smooth="yes"/>
      <point x="426" y="1229" type="line" smooth="yes"/>
      <point x="386" y="1229"/>
      <point x="343" y="1187"/>
      <point x="336" y="1148" type="qcurve" smooth="yes"/>
      <point x="326" y="1090" type="line"/>
      <point x="291" y="1097" type="line"/>
      <point x="301" y="1154" type="line" smooth="yes"/>
      <point x="306" y="1181"/>
      <point x="327" y="1221"/>
      <point x="360" y="1248"/>
      <point x="404" y="1261"/>
      <point x="431" y="1261" type="qcurve" smooth="yes"/>
      <point x="1123" y="1261" type="line" smooth="yes"/>
      <point x="1150" y="1261"/>
      <point x="1189" y="1248"/>
      <point x="1212" y="1221"/>
      <point x="1220" y="1181"/>
      <point x="1215" y="1154" type="qcurve" smooth="yes"/>
      <point x="1120" y="606" type="line"/>
      <point x="1084" y="606" type="line"/>
      <point x="1088" y="630" type="line"/>
      <point x="1084" y="624"/>
      <point x="1074" y="614"/>
      <point x="1062" y="608"/>
      <point x="1048" y="605"/>
      <point x="1040" y="605" type="qcurve" smooth="yes"/>
    </contour>
    <contour>
      <point x="253" y="718" type="line" smooth="yes"/>
      <point x="246" y="678"/>
      <point x="274" y="637"/>
      <point x="314" y="637" type="qcurve" smooth="yes"/>
      <point x="1089" y="637" type="line"/>
      <point x="1146" y="962" type="line"/>
      <point x="371" y="962" type="line" smooth="yes"/>
      <point x="331" y="962"/>
      <point x="289" y="921"/>
      <point x="282" y="881" type="qcurve" smooth="yes"/>
    </contour>
  </outline>
  <guideline y="36"/>
  <guideline y="36"/>
</glyph>
<glyph name="logicalnot" format="2">
  <advance width="2020.07"/>
  <unicode hex="00AC"/>
  <outline>
    <contour>
      <point x="1734" y="349" type="line"/>
      <point x="1694" y="349" type="line"/>
      <point x="1771" y="789" type="line"/>
      <point x="245" y="789" type="line"/>
      <point x="251" y="825" type="line"/>
      <point x="1817" y="825" type="line"/>
    </contour>
  </outline>
</glyph>
<glyph name="registered" format="2">
  <advance width="1190"/>
  <unicode hex="00AE"/>
  <outline>
    <contour>
      <point x="209" y="1035" type="line"/>
      <point x="279" y="1440" type="line" smooth="yes"/>
      <point x="289" y="1494"/>
      <point x="357" y="1550"/>
      <point x="413" y="1550" type="qcurve" smooth="yes"/>
      <point x="1081" y="1550" type="line" smooth="yes"/>
      <point x="1138" y="1550"/>
      <point x="1185" y="1494"/>
      <point x="1175" y="1440" type="qcurve" smooth="yes"/>
      <point x="1105" y="1035" type="line" smooth="yes"/>
      <point x="1096" y="980"/>
      <point x="1028" y="924"/>
      <point x="971" y="924" type="qcurve" smooth="yes"/>
      <point x="303" y="924" type="line" smooth="yes"/>
      <point x="247" y="924"/>
      <point x="200" y="980"/>
      <point x="209" y="1035" type="qcurve"/>
    </contour>
    <contour>
      <point x="315" y="1437" type="line"/>
      <point x="245" y="1038" type="line" smooth="yes"/>
      <point x="239" y="998"/>
      <point x="269" y="956"/>
      <point x="308" y="956" type="qcurve" smooth="yes"/>
      <point x="977" y="956" type="line" smooth="yes"/>
      <point x="1017" y="956"/>
      <point x="1063" y="998"/>
      <point x="1069" y="1038" type="qcurve"/>
      <point x="1139" y="1437" type="line" smooth="yes"/>
      <point x="1146" y="1477"/>
      <point x="1115" y="1518"/>
      <point x="1075" y="1518" type="qcurve" smooth="yes"/>
      <point x="406" y="1518" type="line" smooth="yes"/>
      <point x="367" y="1518"/>
      <point x="322" y="1477"/>
      <point x="315" y="1437" type="qcurve"/>
    </contour>
    <contour>
      <point x="458" y="1400" type="line"/>
      <point x="907" y="1400" type="line" smooth="yes"/>
      <point x="943" y="1400"/>
      <point x="981" y="1370"/>
      <point x="974" y="1331" type="qcurve" smooth="yes"/>
      <point x="963" y="1265" type="line" smooth="yes"/>
      <point x="960" y="1249"/>
      <point x="946" y="1223"/>
      <point x="923" y="1207"/>
      <point x="892" y="1198"/>
      <point x="872" y="1198" type="qcurve" smooth="yes"/>
      <point x="721" y="1198" type="line"/>
      <point x="939" y="1060" type="line"/>
      <point x="871" y="1060" type="line"/>
      <point x="657" y="1198" type="line"/>
      <point x="459" y="1198" type="line"/>
      <point x="435" y="1060" type="line"/>
      <point x="399" y="1060" type="line"/>
    </contour>
    <contour>
      <point x="465" y="1230" type="line"/>
      <point x="880" y="1230" type="line" smooth="yes"/>
      <point x="901" y="1230"/>
      <point x="925" y="1249"/>
      <point x="928" y="1271" type="qcurve"/>
      <point x="938" y="1327" type="line"/>
      <point x="941" y="1347"/>
      <point x="925" y="1368"/>
      <point x="904" y="1368" type="qcurve" smooth="yes"/>
      <point x="489" y="1368" type="line"/>
    </contour>
  </outline>
</glyph>
<glyph name="degree" format="2">
  <advance width="744"/>
  <unicode hex="00B0"/>
  <outline>
    <contour>
      <point x="252" y="1283" type="line"/>
      <point x="272" y="1398" type="line" smooth="yes"/>
      <point x="282" y="1452"/>
      <point x="348" y="1508"/>
      <point x="405" y="1508" type="qcurve" smooth="yes"/>
      <point x="628" y="1508" type="line" smooth="yes"/>
      <point x="685" y="1508"/>
      <point x="733" y="1452"/>
      <point x="723" y="1398" type="qcurve" smooth="yes"/>
      <point x="703" y="1283" type="line" smooth="yes"/>
      <point x="693" y="1228"/>
      <point x="626" y="1172"/>
      <point x="570" y="1172" type="qcurve" smooth="yes"/>
      <point x="347" y="1172" type="line" smooth="yes"/>
      <point x="290" y="1172"/>
      <point x="242" y="1228"/>
      <point x="252" y="1283" type="qcurve"/>
    </contour>
    <contour>
      <point x="288" y="1286" type="line" smooth="yes"/>
      <point x="281" y="1246"/>
      <point x="312" y="1204"/>
      <point x="351" y="1204" type="qcurve" smooth="yes"/>
      <point x="575" y="1204" type="line" smooth="yes"/>
      <point x="615" y="1204"/>
      <point x="660" y="1246"/>
      <point x="667" y="1286" type="qcurve" smooth="yes"/>
      <point x="686" y="1395" type="line" smooth="yes"/>
      <point x="694" y="1435"/>
      <point x="663" y="1476"/>
      <point x="623" y="1476" type="qcurve" smooth="yes"/>
      <point x="399" y="1476" type="line" smooth="yes"/>
      <point x="360" y="1476"/>
      <point x="315" y="1435"/>
      <point x="307" y="1395" type="qcurve"/>
    </contour>
  </outline>
</glyph>
<glyph name="paragraph" format="2">
  <advance width="1442"/>
  <unicode hex="00B6"/>
  <outline>
    <contour>
      <point x="972" y="0" type="line"/>
      <point x="936" y="0" type="line"/>
      <point x="1174" y="1364" type="line"/>
      <point x="1118" y="1364" type="line"/>
      <point x="880" y="0" type="line"/>
      <point x="844" y="0" type="line"/>
      <point x="953" y="624" type="line"/>
      <point x="445" y="624" type="line" smooth="yes"/>
      <point x="373" y="624"/>
      <point x="268" y="663"/>
      <point x="205" y="740"/>
      <point x="185" y="852"/>
      <point x="197" y="924" type="qcurve" smooth="yes"/>
      <point x="228" y="1100" type="line" smooth="yes"/>
      <point x="241" y="1172"/>
      <point x="300" y="1284"/>
      <point x="389" y="1361"/>
      <point x="508" y="1400"/>
      <point x="580" y="1400" type="qcurve" smooth="yes"/>
      <point x="1216" y="1400" type="line"/>
    </contour>
  </outline>
  <guideline angle="90" color="0.4,0.4,0.4,1" name="halfwidth" x="721" y="0"/>
</glyph>
<glyph name="periodcentered" format="2">
  <advance width="996"/>
  <unicode hex="00B7"/>
  <outline>
    <contour>
      <point x="298" y="589" type="line"/>
      <point x="305" y="631" type="line"/>
      <point x="307" y="641"/>
      <point x="310" y="651"/>
      <point x="316" y="656"/>
      <point x="326" y="657"/>
      <point x="336" y="657" type="qcurve" smooth="yes"/>
      <point x="378" y="657" type="line" smooth="yes"/>
      <point x="388" y="657"/>
      <point x="398" y="656"/>
      <point x="402" y="651"/>
      <point x="401" y="641"/>
      <point x="399" y="631" type="qcurve"/>
      <point x="392" y="589" type="line"/>
      <point x="390" y="579"/>
      <point x="387" y="569"/>
      <point x="381" y="564"/>
      <point x="371" y="563"/>
      <point x="361" y="563" type="qcurve" smooth="yes"/>
      <point x="319" y="563" type="line" smooth="yes"/>
      <point x="309" y="563"/>
      <point x="299" y="564"/>
      <point x="295" y="569"/>
      <point x="296" y="579"/>
      <point x="298" y="589" type="qcurve"/>
    </contour>
  </outline>
</glyph>
<glyph name="ordmasculine" format="2">
  <advance width="1421"/>
  <unicode hex="00BA"/>
  <outline>
    <contour>
      <point x="226" y="714" type="line"/>
      <point x="302" y="1153" type="line" smooth="yes"/>
      <point x="312" y="1207"/>
      <point x="377" y="1261"/>
      <point x="433" y="1261" type="qcurve" smooth="yes"/>
      <point x="1193" y="1261" type="line" smooth="yes"/>
      <point x="1248" y="1261"/>
      <point x="1295" y="1207"/>
      <point x="1285" y="1153" type="qcurve" smooth="yes"/>
      <point x="1209" y="714" type="line"/>
      <point x="1199" y="661"/>
      <point x="1135" y="605"/>
      <point x="1079" y="605" type="qcurve" smooth="yes"/>
      <point x="319" y="605" type="line" smooth="yes"/>
      <point x="263" y="605"/>
      <point x="216" y="660"/>
      <point x="226" y="714" type="qcurve"/>
    </contour>
    <contour>
      <point x="262" y="719" type="line" smooth="yes"/>
      <point x="255" y="679"/>
      <point x="284" y="637"/>
      <point x="323" y="637" type="qcurve" smooth="yes"/>
      <point x="1084" y="637" type="line" smooth="yes"/>
      <point x="1124" y="637"/>
      <point x="1166" y="679"/>
      <point x="1173" y="719" type="qcurve" smooth="yes"/>
      <point x="1248" y="1148" type="line"/>
      <point x="1256" y="1188"/>
      <point x="1228" y="1229"/>
      <point x="1188" y="1229" type="qcurve" smooth="yes"/>
      <point x="427" y="1229" type="line" smooth="yes"/>
      <point x="388" y="1229"/>
      <point x="345" y="1188"/>
      <point x="337" y="1148" type="qcurve"/>
    </contour>
  </outline>
</glyph>
<glyph name="AE" format="2">
  <advance width="3756.65"/>
  <unicode hex="00C6"/>
  <anchor x="2220" y="1550" name="top"/>
  <anchor x="1733" y="-150" name="bottom"/>
  <outline>
    <contour>
      <point x="-120" y="0" type="line"/>
      <point x="1474" y="1400" type="line"/>
      <point x="3842" y="1400" type="line"/>
      <point x="3836" y="1364" type="line"/>
      <point x="2022" y="1364" type="line"/>
      <point x="1912" y="736" type="line"/>
      <point x="3090" y="736" type="line"/>
      <point x="3084" y="700" type="line"/>
      <point x="1906" y="700" type="line"/>
      <point x="1790" y="36" type="line"/>
      <point x="3638" y="36" type="line"/>
      <point x="3632" y="0" type="line"/>
      <point x="1744" y="0" type="line"/>
      <point x="1812" y="388" type="line"/>
      <point x="378" y="388" type="line"/>
      <point x="-63" y="0" type="line"/>
    </contour>
    <contour>
      <point x="419" y="424" type="line"/>
      <point x="1818" y="424" type="line"/>
      <point x="1982" y="1364" type="line"/>
      <point x="1488" y="1364" type="line"/>
    </contour>
  </outline>
</glyph>
<glyph name="Eth" format="2">
  <advance width="2668"/>
  <unicode hex="00D0"/>
  <anchor x="1352" y="1550" name="top"/>
  <anchor x="1055" y="-150" name="bottom"/>
  <outline>
    <contour>
      <point x="229.858" y="0" type="line"/>
      <point x="348.858" y="684" type="line"/>
      <point x="200.858" y="684" type="line"/>
      <point x="206.858" y="716" type="line"/>
      <point x="354.858" y="716" type="line"/>
      <point x="473.858" y="1400" type="line"/>
      <point x="1716.86" y="1400" type="line" smooth="yes"/>
      <point x="1854.86" y="1400"/>
      <point x="2080.86" y="1368"/>
      <point x="2256.86" y="1299"/>
      <point x="2380.86" y="1189"/>
      <point x="2449.86" y="1033"/>
      <point x="2463.86" y="829"/>
      <point x="2440.86" y="700" type="qcurve" smooth="yes"/>
      <point x="2418.86" y="573"/>
      <point x="2334.86" y="370"/>
      <point x="2211.86" y="215"/>
      <point x="2049.86" y="104"/>
      <point x="1849.86" y="33"/>
      <point x="1610.86" y="0"/>
      <point x="1472.86" y="0" type="qcurve" smooth="yes"/>
    </contour>
    <contour>
      <point x="275.858" y="36" type="line"/>
      <point x="1478.86" y="36" type="line" smooth="yes"/>
      <point x="1611.86" y="36"/>
      <point x="1840.86" y="68"/>
      <point x="2031.86" y="137"/>
      <point x="2185.86" y="245"/>
      <point x="2301.86" y="394"/>
      <point x="2380.86" y="588"/>
      <point x="2401.86" y="709" type="qcurve" smooth="yes"/>
      <point x="2423.86" y="833"/>
      <point x="2410.86" y="1026"/>
      <point x="2344.86" y="1171"/>
      <point x="2226.86" y="1272"/>
      <point x="2058.86" y="1336"/>
      <point x="1841.86" y="1364"/>
      <point x="1710.86" y="1364" type="qcurve" smooth="yes"/>
      <point x="507.858" y="1364" type="line"/>
      <point x="394.858" y="716" type="line"/>
      <point x="1169.86" y="716" type="line"/>
      <point x="1163.86" y="684" type="line"/>
      <point x="388.858" y="684" type="line"/>
    </contour>
  </outline>
</glyph>
<glyph name="multiply" format="2">
  <advance width="1737"/>
  <unicode hex="00D7"/>
  <outline>
    <contour>
      <point x="152" y="140" type="line"/>
      <point x="137" y="171" type="line"/>
      <point x="818" y="587" type="line"/>
      <point x="282" y="1003" type="line"/>
      <point x="308" y="1034" type="line"/>
      <point x="855" y="610" type="line"/>
      <point x="1548" y="1033" type="line"/>
      <point x="1564" y="1003" type="line"/>
      <point x="884" y="587" type="line"/>
      <point x="1419" y="172" type="line"/>
      <point x="1393" y="141" type="line"/>
      <point x="847" y="565" type="line"/>
    </contour>
  </outline>
  <guideline x="152" y="140" angle="31.4328" color="1,0,0,1"/>
  <guideline x="282" y="1003" angle="322.193" color="1,0,0,1"/>
</glyph>
<glyph name="Oslash" format="2">
  <advance width="3010"/>
  <unicode hex="00D8"/>
  <anchor x="1659" y="1570" name="top"/>
  <outline>
    <contour>
      <point x="503" y="1100" type="line"/>
      <point x="363" y="300" type="line" smooth="yes"/>
      <point x="351" y="228"/>
      <point x="371" y="116"/>
      <point x="434" y="39"/>
      <point x="539" y="0"/>
      <point x="611" y="0" type="qcurve" smooth="yes"/>
      <point x="2159" y="0" type="line" smooth="yes"/>
      <point x="2231" y="0"/>
      <point x="2350" y="39"/>
      <point x="2440" y="116"/>
      <point x="2499" y="228"/>
      <point x="2511" y="300" type="qcurve" smooth="yes"/>
      <point x="2651" y="1100" type="line" smooth="yes"/>
      <point x="2664" y="1172"/>
      <point x="2644" y="1284"/>
      <point x="2581" y="1361"/>
      <point x="2475" y="1400"/>
      <point x="2403" y="1400" type="qcurve" smooth="yes"/>
      <point x="855" y="1400" type="line" smooth="yes"/>
      <point x="783" y="1400"/>
      <point x="664" y="1361"/>
      <point x="575" y="1284"/>
      <point x="516" y="1172"/>
      <point x="503" y="1100" type="qcurve"/>
    </contour>
    <contour>
      <point x="543" y="1102" type="line" smooth="yes"/>
      <point x="554" y="1166"/>
      <point x="606" y="1264"/>
      <point x="684" y="1330"/>
      <point x="787" y="1364"/>
      <point x="851" y="1364" type="qcurve" smooth="yes"/>
      <point x="2395" y="1364" type="line" smooth="yes"/>
      <point x="2459" y="1364"/>
      <point x="2551" y="1330"/>
      <point x="2605" y="1264"/>
      <point x="2622" y="1166"/>
      <point x="2611" y="1102" type="qcurve" smooth="yes"/>
      <point x="2471" y="298" type="line" smooth="yes"/>
      <point x="2460" y="234"/>
      <point x="2409" y="136"/>
      <point x="2331" y="70"/>
      <point x="2227" y="36"/>
      <point x="2163" y="36" type="qcurve" smooth="yes"/>
      <point x="619" y="36" type="line" smooth="yes"/>
      <point x="555" y="36"/>
      <point x="463" y="70"/>
      <point x="409" y="136"/>
      <point x="392" y="234"/>
      <point x="403" y="298" type="qcurve" smooth="yes"/>
    </contour>
    <contour>
      <point x="230" y="-20" type="line"/>
      <point x="411" y="79" type="line"/>
      <point x="414" y="82" type="line"/>
      <point x="2608" y="1281" type="line"/>
      <point x="2608" y="1281" type="line"/>
      <point x="2801" y="1388" type="line"/>
      <point x="2785" y="1420" type="line"/>
      <point x="2599" y="1318" type="line"/>
      <point x="2597" y="1316" type="line"/>
      <point x="405" y="118" type="line"/>
      <point x="405" y="118" type="line"/>
      <point x="213" y="11" type="line"/>
    </contour>
  </outline>
  <guideline angle="0" x="0" y="-26"/>
  <guideline angle="0" x="0" y="-26"/>
  <guideline angle="0" x="0" y="1430"/>
</glyph>
<glyph name="Thorn" format="2">
  <advance width="2097"/>
  <unicode hex="00DE"/>
  <outline>
    <contour>
      <point x="206" y="0" type="line"/>
      <point x="246" y="0" type="line"/>
      <point x="305" y="337" type="line"/>
      <point x="1443" y="337" type="line" smooth="yes"/>
      <point x="1515" y="337"/>
      <point x="1634" y="376"/>
      <point x="1723" y="453"/>
      <point x="1782" y="565"/>
      <point x="1795" y="637" type="qcurve" smooth="yes"/>
      <point x="1826" y="813" type="line" smooth="yes"/>
      <point x="1839" y="885"/>
      <point x="1819" y="997"/>
      <point x="1756" y="1074"/>
      <point x="1650" y="1113"/>
      <point x="1578" y="1113" type="qcurve" smooth="yes"/>
      <point x="440" y="1113" type="line"/>
      <point x="490" y="1400" type="line"/>
      <point x="450" y="1400" type="line"/>
    </contour>
    <contour>
      <point x="311" y="373" type="line"/>
      <point x="434" y="1077" type="line"/>
      <point x="1570" y="1077" type="line" smooth="yes"/>
      <point x="1634" y="1077"/>
      <point x="1726" y="1043"/>
      <point x="1780" y="977"/>
      <point x="1797" y="879"/>
      <point x="1786" y="815" type="qcurve" smooth="yes"/>
      <point x="1755" y="635" type="line" smooth="yes"/>
      <point x="1744" y="571"/>
      <point x="1693" y="473"/>
      <point x="1615" y="407"/>
      <point x="1511" y="373"/>
      <point x="1447" y="373" type="qcurve" smooth="yes"/>
    </contour>
  </outline>
  <guideline x="1048.5" name="halfwidth" color="0.4,0.4,0.4,1"/>
</glyph>
<glyph name="germandbls" format="2">
  <advance width="1894"/>
  <unicode hex="00DF"/>
  <outline>
    <contour>
      <point x="840" y="968" type="line"/>
      <point x="1453" y="968" type="line" smooth="yes"/>
      <point x="1492" y="968"/>
      <point x="1557" y="989"/>
      <point x="1605" y="1030"/>
      <point x="1636" y="1091"/>
      <point x="1643" y="1130" type="qcurve" smooth="yes"/>
      <point x="1670" y="1286" type="line" smooth="yes"/>
      <point x="1684" y="1365"/>
      <point x="1615" y="1448"/>
      <point x="1536" y="1448" type="qcurve" smooth="yes"/>
      <point x="604" y="1448" type="line" smooth="yes"/>
      <point x="565" y="1448"/>
      <point x="500" y="1427"/>
      <point x="452" y="1386"/>
      <point x="421" y="1325"/>
      <point x="414" y="1286" type="qcurve" smooth="yes"/>
      <point x="190" y="0" type="line"/>
      <point x="226" y="0" type="line"/>
      <point x="449" y="1280" type="line" smooth="yes"/>
      <point x="460" y="1346"/>
      <point x="532" y="1416"/>
      <point x="599" y="1416" type="qcurve" smooth="yes"/>
      <point x="1531" y="1416" type="line" smooth="yes"/>
      <point x="1598" y="1416"/>
      <point x="1644" y="1346"/>
      <point x="1633" y="1280" type="qcurve" smooth="yes"/>
      <point x="1608" y="1136" type="line" smooth="yes"/>
      <point x="1597" y="1070"/>
      <point x="1525" y="1000"/>
      <point x="1458" y="1000" type="qcurve" smooth="yes"/>
      <point x="845" y="1000" type="line"/>
    </contour>
    <contour>
      <point x="533" y="0" type="line"/>
      <point x="1329" y="0" type="line" smooth="yes"/>
      <point x="1368" y="0"/>
      <point x="1433" y="21"/>
      <point x="1481" y="62"/>
      <point x="1512" y="123"/>
      <point x="1519" y="162" type="qcurve" smooth="yes"/>
      <point x="1637" y="838" type="line" smooth="yes"/>
      <point x="1644" y="877"/>
      <point x="1633" y="938"/>
      <point x="1599" y="979"/>
      <point x="1542" y="1000"/>
      <point x="1503" y="1000" type="qcurve" smooth="yes"/>
      <point x="845" y="1000" type="line"/>
      <point x="840" y="968" type="line"/>
      <point x="1494" y="968" type="line" smooth="yes"/>
      <point x="1568" y="968"/>
      <point x="1611" y="898"/>
      <point x="1600" y="832" type="qcurve" smooth="yes"/>
      <point x="1484" y="168" type="line" smooth="yes"/>
      <point x="1472" y="101"/>
      <point x="1404" y="32"/>
      <point x="1330" y="32" type="qcurve" smooth="yes"/>
      <point x="538" y="32" type="line"/>
    </contour>
  </outline>
</glyph>
<glyph name="ae" format="2">
  <advance width="3002"/>
  <unicode hex="00E6"/>
  <anchor x="1597" y="1150" name="top"/>
  <anchor x="1350" y="-150" name="bottom"/>
  <outline>
    <contour>
      <point x="323.566" y="0" type="line"/>
      <point x="1226.57" y="0" type="line" smooth="yes"/>
      <point x="1283.57" y="0"/>
      <point x="1366.57" y="44"/>
      <point x="1390.57" y="86" type="qcurve"/>
      <point x="1399.57" y="44"/>
      <point x="1467.57" y="0"/>
      <point x="1524.57" y="0" type="qcurve" smooth="yes"/>
      <point x="2421.57" y="0" type="line" smooth="yes"/>
      <point x="2460.57" y="0"/>
      <point x="2525.57" y="21"/>
      <point x="2573.57" y="62"/>
      <point x="2604.57" y="123"/>
      <point x="2611.57" y="162" type="qcurve" smooth="yes"/>
      <point x="2635.57" y="300" type="line"/>
      <point x="2601.57" y="308" type="line"/>
      <point x="2576.57" y="168" type="line" smooth="yes"/>
      <point x="2565.57" y="102"/>
      <point x="2497.57" y="32"/>
      <point x="2423.57" y="32" type="qcurve" smooth="yes"/>
      <point x="1529.57" y="32" type="line" smooth="yes"/>
      <point x="1464.57" y="32"/>
      <point x="1411.57" y="102"/>
      <point x="1422.57" y="168" type="qcurve" smooth="yes"/>
      <point x="1481.57" y="507" type="line"/>
      <point x="2677.57" y="507" type="line"/>
      <point x="2735.57" y="838" type="line" smooth="yes"/>
      <point x="2742.57" y="877"/>
      <point x="2732.57" y="938"/>
      <point x="2698.57" y="979"/>
      <point x="2641.57" y="1000"/>
      <point x="2602.57" y="1000" type="qcurve" smooth="yes"/>
      <point x="1700.57" y="1000" type="line" smooth="yes"/>
      <point x="1643.57" y="1000"/>
      <point x="1559.57" y="958"/>
      <point x="1536.57" y="916" type="qcurve"/>
      <point x="1525.57" y="958"/>
      <point x="1458.57" y="1000"/>
      <point x="1401.57" y="1000" type="qcurve" smooth="yes"/>
      <point x="514.566" y="1000" type="line" smooth="yes"/>
      <point x="475.566" y="1000"/>
      <point x="410.566" y="979"/>
      <point x="362.566" y="938"/>
      <point x="330.566" y="877"/>
      <point x="323.566" y="838" type="qcurve" smooth="yes"/>
      <point x="303.566" y="724" type="line"/>
      <point x="338.566" y="716" type="line"/>
      <point x="358.566" y="832" type="line" smooth="yes"/>
      <point x="370.566" y="899"/>
      <point x="438.566" y="968"/>
      <point x="512.566" y="968" type="qcurve" smooth="yes"/>
      <point x="1396.57" y="968" type="line" smooth="yes"/>
      <point x="1461.57" y="968"/>
      <point x="1513.57" y="898"/>
      <point x="1502.57" y="832" type="qcurve" smooth="yes"/>
      <point x="1451.57" y="539" type="line"/>
      <point x="417.566" y="539" type="line" smooth="yes"/>
      <point x="378.566" y="539"/>
      <point x="313.566" y="518"/>
      <point x="265.566" y="477"/>
      <point x="234.566" y="416"/>
      <point x="227.566" y="377" type="qcurve" smooth="yes"/>
      <point x="189.566" y="162" type="line" smooth="yes"/>
      <point x="182.566" y="123"/>
      <point x="193.566" y="62"/>
      <point x="227.566" y="21"/>
      <point x="284.566" y="0"/>
      <point x="323.566" y="0" type="qcurve"/>
    </contour>
    <contour>
      <point x="333.566" y="32" type="line" smooth="yes"/>
      <point x="259.566" y="32"/>
      <point x="215.566" y="101"/>
      <point x="226.566" y="168" type="qcurve"/>
      <point x="262.566" y="371" type="line" smooth="yes"/>
      <point x="273.566" y="437"/>
      <point x="341.566" y="507"/>
      <point x="415.566" y="507" type="qcurve" smooth="yes"/>
      <point x="1445.57" y="507" type="line"/>
      <point x="1386.57" y="168" type="line" smooth="yes"/>
      <point x="1375.57" y="102"/>
      <point x="1298.57" y="32"/>
      <point x="1233.57" y="32" type="qcurve" smooth="yes"/>
    </contour>
    <contour>
      <point x="1488.57" y="539" type="line"/>
      <point x="1539.57" y="833" type="line" smooth="yes"/>
      <point x="1551.57" y="899"/>
      <point x="1629.57" y="968"/>
      <point x="1693.57" y="968" type="qcurve" smooth="yes"/>
      <point x="2592.57" y="968" type="line" smooth="yes"/>
      <point x="2666.57" y="968"/>
      <point x="2710.57" y="898"/>
      <point x="2698.57" y="832" type="qcurve" smooth="yes"/>
      <point x="2647.57" y="539" type="line"/>
    </contour>
  </outline>
</glyph>
<glyph name="eth" format="2">
  <advance width="2259"/>
  <unicode hex="00F0"/>
  <outline>
    <contour>
      <point x="951" y="1431" type="line"/>
      <point x="1099" y="1422"/>
      <point x="1338" y="1348"/>
      <point x="1522" y="1235"/>
      <point x="1652" y="1089"/>
      <point x="1727" y="925"/>
      <point x="1750" y="751"/>
      <point x="1735" y="666" type="qcurve"/>
      <point x="1771" y="666" type="line"/>
      <point x="1786" y="751"/>
      <point x="1766" y="926"/>
      <point x="1695" y="1092"/>
      <point x="1573" y="1242"/>
      <point x="1398" y="1362"/>
      <point x="1170" y="1443"/>
      <point x="1029" y="1458" type="qcurve"/>
    </contour>
    <contour>
      <point x="319" y="838" type="line"/>
      <point x="201" y="162" type="line" smooth="yes"/>
      <point x="194" y="123"/>
      <point x="205" y="62"/>
      <point x="239" y="21"/>
      <point x="296" y="0"/>
      <point x="335" y="0" type="qcurve" smooth="yes"/>
      <point x="1494" y="0" type="line" smooth="yes"/>
      <point x="1533" y="0"/>
      <point x="1597" y="21"/>
      <point x="1645" y="62"/>
      <point x="1676" y="123"/>
      <point x="1683" y="162" type="qcurve" smooth="yes"/>
      <point x="1771" y="667" type="line"/>
      <point x="1728" y="1000" type="line"/>
      <point x="510" y="1000" type="line" smooth="yes"/>
      <point x="471" y="1000"/>
      <point x="406" y="979"/>
      <point x="358" y="938"/>
      <point x="326" y="877"/>
      <point x="319" y="838" type="qcurve"/>
    </contour>
    <contour>
      <point x="354" y="832" type="line" smooth="yes"/>
      <point x="366" y="898"/>
      <point x="437" y="968"/>
      <point x="504" y="968" type="qcurve" smooth="yes"/>
      <point x="1725" y="968" type="line"/>
      <point x="1751" y="759" type="line"/>
      <point x="1648" y="168" type="line" smooth="yes"/>
      <point x="1637" y="102"/>
      <point x="1566" y="32"/>
      <point x="1500" y="32" type="qcurve" smooth="yes"/>
      <point x="341" y="32" type="line" smooth="yes"/>
      <point x="274" y="32"/>
      <point x="227" y="102"/>
      <point x="238" y="168" type="qcurve" smooth="yes"/>
    </contour>
    <contour>
      <point x="886" y="1197" type="line"/>
      <point x="886" y="1167" type="line"/>
      <point x="2088" y="1377" type="line"/>
      <point x="2089" y="1407" type="line"/>
    </contour>
  </outline>
</glyph>
<glyph name="divide" format="2">
  <advance width="2020"/>
  <unicode hex="00F7"/>
  <outline>
    <contour>
      <point x="998" y="946" type="line"/>
      <point x="1004" y="980" type="line" smooth="yes"/>
      <point x="1006" y="989"/>
      <point x="1008" y="1001"/>
      <point x="1013" y="1007"/>
      <point x="1019" y="1009"/>
      <point x="1024" y="1009" type="qcurve" smooth="yes"/>
      <point x="1108" y="1009" type="line" smooth="yes"/>
      <point x="1113" y="1009"/>
      <point x="1118" y="1007"/>
      <point x="1120" y="1001"/>
      <point x="1120" y="989"/>
      <point x="1118" y="980" type="qcurve" smooth="yes"/>
      <point x="1112" y="946" type="line" smooth="yes"/>
      <point x="1110" y="936"/>
      <point x="1107" y="924"/>
      <point x="1103" y="917"/>
      <point x="1097" y="915"/>
      <point x="1092" y="915" type="qcurve" smooth="yes"/>
      <point x="1007" y="915" type="line" smooth="yes"/>
      <point x="1003" y="915"/>
      <point x="997" y="917"/>
      <point x="995" y="924"/>
      <point x="996" y="936"/>
      <point x="998" y="946" type="qcurve"/>
    </contour>
    <contour>
      <point x="206" y="569" type="line"/>
      <point x="213" y="605" type="line"/>
      <point x="1779" y="605" type="line"/>
      <point x="1772" y="569" type="line"/>
    </contour>
    <contour>
      <point x="867" y="194" type="line"/>
      <point x="873" y="228" type="line" smooth="yes"/>
      <point x="875" y="237"/>
      <point x="877" y="249"/>
      <point x="882" y="255"/>
      <point x="888" y="257"/>
      <point x="893" y="257" type="qcurve" smooth="yes"/>
      <point x="977" y="257" type="line" smooth="yes"/>
      <point x="982" y="257"/>
      <point x="987" y="255"/>
      <point x="989" y="249"/>
      <point x="989" y="237"/>
      <point x="987" y="228" type="qcurve" smooth="yes"/>
      <point x="981" y="194" type="line" smooth="yes"/>
      <point x="979" y="184"/>
      <point x="976" y="172"/>
      <point x="971" y="165"/>
      <point x="965" y="163"/>
      <point x="960" y="163" type="qcurve" smooth="yes"/>
      <point x="875" y="163" type="line" smooth="yes"/>
      <point x="871" y="163"/>
      <point x="865" y="165"/>
      <point x="864" y="172"/>
      <point x="865" y="184"/>
      <point x="867" y="194" type="qcurve"/>
    </contour>
  </outline>
</glyph>
<glyph name="oslash" format="2">
  <advance width="2066" height="1448"/>
  <unicode hex="00F8"/>
  <anchor x="1114" y="1150" name="top"/>
  <outline>
    <contour>
      <point x="199.882" y="162" type="line"/>
      <point x="317.882" y="838" type="line" smooth="yes"/>
      <point x="324.882" y="877"/>
      <point x="355.882" y="938"/>
      <point x="403.882" y="979"/>
      <point x="468.882" y="1000"/>
      <point x="507.882" y="1000" type="qcurve" smooth="yes"/>
      <point x="1665.88" y="1000" type="line" smooth="yes"/>
      <point x="1744.88" y="1000"/>
      <point x="1813.88" y="917"/>
      <point x="1799.88" y="838" type="qcurve" smooth="yes"/>
      <point x="1681.88" y="162" type="line" smooth="yes"/>
      <point x="1674.88" y="123"/>
      <point x="1642.88" y="62"/>
      <point x="1594.88" y="21"/>
      <point x="1529.88" y="0"/>
      <point x="1490.88" y="0" type="qcurve" smooth="yes"/>
      <point x="332.882" y="0" type="line" smooth="yes"/>
      <point x="293.882" y="0"/>
      <point x="236.882" y="21"/>
      <point x="202.882" y="62"/>
      <point x="192.882" y="123"/>
      <point x="199.882" y="162" type="qcurve"/>
    </contour>
    <contour>
      <point x="236.882" y="168" type="line" smooth="yes"/>
      <point x="224.882" y="102"/>
      <point x="271.882" y="32"/>
      <point x="338.882" y="32" type="qcurve" smooth="yes"/>
      <point x="1496.88" y="32" type="line" smooth="yes"/>
      <point x="1563.88" y="32"/>
      <point x="1634.88" y="102"/>
      <point x="1646.88" y="168" type="qcurve" smooth="yes"/>
      <point x="1762.88" y="832" type="line" smooth="yes"/>
      <point x="1773.88" y="898"/>
      <point x="1726.88" y="968"/>
      <point x="1659.88" y="968" type="qcurve" smooth="yes"/>
      <point x="501.882" y="968" type="line" smooth="yes"/>
      <point x="434.882" y="968"/>
      <point x="363.882" y="898"/>
      <point x="352.882" y="832" type="qcurve" smooth="yes"/>
    </contour>
    <contour>
      <point x="136.882" y="-20" type="line"/>
      <point x="124.882" y="5" type="line"/>
      <point x="234.882" y="70" type="line"/>
      <point x="234.882" y="70" type="line"/>
      <point x="1763.88" y="963" type="line"/>
      <point x="1766.88" y="964" type="line"/>
      <point x="1860.88" y="1020" type="line"/>
      <point x="1872.88" y="995" type="line"/>
      <point x="1772.88" y="936" type="line"/>
      <point x="1772.88" y="936" type="line"/>
      <point x="240.882" y="41" type="line"/>
      <point x="236.882" y="39" type="line"/>
    </contour>
  </outline>
  <guideline y="1046"/>
  <guideline y="-26"/>
</glyph>
<glyph name="thorn" format="2">
  <advance width="2087"/>
  <unicode hex="00FE"/>
  <outline>
    <contour>
      <point x="130" y="-428" type="line"/>
      <point x="458" y="1448" type="line"/>
      <point x="494" y="1448" type="line"/>
      <point x="413" y="984" type="line"/>
      <point x="420" y="992"/>
      <point x="450" y="1000"/>
      <point x="476" y="1000" type="qcurve" smooth="yes"/>
      <point x="1686" y="1000" type="line" smooth="yes"/>
      <point x="1725" y="1000"/>
      <point x="1782" y="979"/>
      <point x="1816" y="938"/>
      <point x="1826" y="877"/>
      <point x="1819" y="838" type="qcurve" smooth="yes"/>
      <point x="1701" y="162" type="line" smooth="yes"/>
      <point x="1694" y="123"/>
      <point x="1663" y="62"/>
      <point x="1615" y="21"/>
      <point x="1550" y="0"/>
      <point x="1511" y="0" type="qcurve" smooth="yes"/>
      <point x="303" y="0" type="line" smooth="yes"/>
      <point x="277" y="0"/>
      <point x="250" y="8"/>
      <point x="244" y="16" type="qcurve"/>
      <point x="166" y="-428" type="line"/>
    </contour>
    <contour>
      <point x="247" y="32" type="line"/>
      <point x="1517" y="32" type="line" smooth="yes"/>
      <point x="1584" y="32"/>
      <point x="1655" y="102"/>
      <point x="1666" y="168" type="qcurve" smooth="yes"/>
      <point x="1782" y="832" type="line" smooth="yes"/>
      <point x="1794" y="898"/>
      <point x="1747" y="968"/>
      <point x="1680" y="968" type="qcurve" smooth="yes"/>
      <point x="410" y="968" type="line"/>
    </contour>
  </outline>
  <guideline y="988"/>
  <guideline y="42"/>
</glyph>
<glyph name="dcroat" format="2">
  <advance width="2104"/>
  <unicode hex="0111"/>
  <anchor x="1264" y="1598" name="top"/>
  <outline>
    <contour>
      <point x="335" y="0" type="line" smooth="yes"/>
      <point x="296" y="0"/>
      <point x="239" y="21"/>
      <point x="205" y="62"/>
      <point x="195" y="123"/>
      <point x="202" y="162" type="qcurve" smooth="yes"/>
      <point x="319" y="838" type="line" smooth="yes"/>
      <point x="326" y="877"/>
      <point x="357" y="938"/>
      <point x="405" y="979"/>
      <point x="469" y="1000"/>
      <point x="508" y="1000" type="qcurve" smooth="yes"/>
      <point x="1716" y="1000" type="line" smooth="yes"/>
      <point x="1742" y="1000"/>
      <point x="1769" y="992"/>
      <point x="1775" y="984" type="qcurve"/>
      <point x="1811" y="1188" type="line"/>
      <point x="1174" y="1188" type="line"/>
      <point x="1178" y="1220" type="line"/>
      <point x="1816" y="1220" type="line"/>
      <point x="1856" y="1448" type="line"/>
      <point x="1892" y="1448" type="line"/>
      <point x="1852" y="1220" type="line"/>
      <point x="2107" y="1220" type="line"/>
      <point x="2103" y="1188" type="line"/>
      <point x="1847" y="1188" type="line"/>
      <point x="1641" y="0" type="line"/>
      <point x="1605" y="0" type="line"/>
      <point x="1608" y="16" type="line"/>
      <point x="1600" y="8"/>
      <point x="1571" y="0"/>
      <point x="1545" y="0" type="qcurve" smooth="yes"/>
    </contour>
    <contour>
      <point x="1772" y="968" type="line"/>
      <point x="502" y="968" type="line" smooth="yes"/>
      <point x="435" y="968"/>
      <point x="365" y="899"/>
      <point x="354" y="832" type="qcurve" smooth="yes"/>
      <point x="239" y="168" type="line" smooth="yes"/>
      <point x="228" y="101"/>
      <point x="274" y="32"/>
      <point x="341" y="32" type="qcurve" smooth="yes"/>
      <point x="1611" y="32" type="line"/>
    </contour>
  </outline>
  <guideline y="988"/>
  <guideline y="42"/>
</glyph>
<glyph name="Hbar" format="2">
  <advance width="2889"/>
  <unicode hex="0126"/>
  <anchor x="1597" y="1550" name="top"/>
  <anchor x="1300" y="-150" name="bottom"/>
  <anchor x="302" y="700" name="left"/>
  <outline>
    <contour>
      <point x="279" y="0" type="line"/>
      <point x="319" y="0" type="line"/>
      <point x="443" y="712" type="line"/>
      <point x="2455" y="712" type="line"/>
      <point x="2331" y="0" type="line"/>
      <point x="2371" y="0" type="line"/>
      <point x="2615" y="1400" type="line"/>
      <point x="2575" y="1400" type="line"/>
      <point x="2461" y="748" type="line"/>
      <point x="449" y="748" type="line"/>
      <point x="563" y="1400" type="line"/>
      <point x="523" y="1400" type="line"/>
    </contour>
    <contour>
      <point x="2651" y="1034" type="line"/>
      <point x="2657" y="1066" type="line"/>
      <point x="365" y="1066" type="line"/>
      <point x="359" y="1034" type="line"/>
    </contour>
  </outline>
  <guideline angle="0" color="1,0,0,1" x="0" y="1050"/>
</glyph>
<glyph name="hbar" format="2">
  <advance width="2179"/>
  <unicode hex="0127"/>
  <anchor x="652" y="1598" name="top"/>
  <anchor x="1029" y="-150" name="bottom"/>
  <anchor x="344" y="500" name="left"/>
  <outline>
    <contour>
      <point x="355.237" y="0" type="line"/>
      <point x="567.237" y="1215" type="line"/>
      <point x="367.237" y="1215" type="line"/>
      <point x="373.237" y="1247" type="line"/>
      <point x="573.237" y="1247" type="line"/>
      <point x="608.237" y="1448" type="line"/>
      <point x="644.237" y="1448" type="line"/>
      <point x="609.237" y="1247" type="line"/>
      <point x="1207.24" y="1247" type="line"/>
      <point x="1201.24" y="1215" type="line"/>
      <point x="603.237" y="1215" type="line"/>
      <point x="561.237" y="972" type="line"/>
      <point x="574.237" y="986"/>
      <point x="615.237" y="1000"/>
      <point x="642.237" y="1000" type="qcurve" smooth="yes"/>
      <point x="1762.24" y="1000" type="line" smooth="yes"/>
      <point x="1801.24" y="1000"/>
      <point x="1858.24" y="979"/>
      <point x="1892.24" y="938"/>
      <point x="1902.24" y="877"/>
      <point x="1895.24" y="838" type="qcurve" smooth="yes"/>
      <point x="1749.24" y="0" type="line"/>
      <point x="1713.24" y="0" type="line"/>
      <point x="1858.24" y="832" type="line" smooth="yes"/>
      <point x="1870.24" y="899"/>
      <point x="1823.24" y="968"/>
      <point x="1756.24" y="968" type="qcurve" smooth="yes"/>
      <point x="560.237" y="968" type="line"/>
      <point x="391.237" y="0" type="line"/>
    </contour>
  </outline>
  <guideline y="1231" color="1,0,0,1"/>
  <guideline x="1158" y="968" angle="260.086" color="1,0,0,1"/>
</glyph>
<glyph name="dotlessi" format="2">
  <advance width="686"/>
  <unicode hex="0131"/>
  <anchor x="196" y="-150" name="bottom"/>
  <anchor x="423" y="1150" name="top"/>
  <anchor x="240" y="0" name="ogonek"/>
  <outline>
    <contour>
      <point x="204.327" y="0" type="line"/>
      <point x="240.327" y="0" type="line"/>
      <point x="415.327" y="1000" type="line"/>
      <point x="379.327" y="1000" type="line"/>
    </contour>
  </outline>
</glyph>
<glyph name="Lslash" format="2">
  <advance width="2067"/>
  <unicode hex="0141"/>
  <outline>
    <contour>
      <point x="230" y="0" type="line"/>
      <point x="474" y="1400" type="line"/>
      <point x="514" y="1400" type="line"/>
      <point x="276" y="36" type="line"/>
      <point x="1948" y="36" type="line"/>
      <point x="1942" y="0" type="line"/>
    </contour>
    <contour>
      <point x="1263" y="881" type="line"/>
      <point x="1256" y="843" type="line"/>
      <point x="66" y="436" type="line"/>
      <point x="73" y="474" type="line"/>
    </contour>
  </outline>
</glyph>
<glyph name="lslash" format="2">
  <advance width="688"/>
  <unicode hex="0142"/>
  <outline>
    <contour>
      <point x="206" y="0" type="line"/>
      <point x="242" y="0" type="line"/>
      <point x="495" y="1448" type="line"/>
      <point x="459" y="1448" type="line"/>
    </contour>
    <contour>
      <point x="659" y="834" type="line"/>
      <point x="44" y="624" type="line"/>
      <point x="38" y="590" type="line"/>
      <point x="653" y="800" type="line"/>
    </contour>
  </outline>
  <guideline y="600"/>
  <guideline y="736"/>
</glyph>
<glyph name="Eng" format="2">
  <advance width="2861.9"/>
  <unicode hex="014A"/>
  <outline>
    <contour>
      <point x="230" y="0" type="line"/>
      <point x="266" y="0" type="line"/>
      <point x="502" y="1353" type="line"/>
      <point x="2356" y="0" type="line"/>
      <point x="2310" y="-260" type="line" smooth="yes"/>
      <point x="2298" y="-326"/>
      <point x="2227" y="-396"/>
      <point x="2160" y="-396" type="qcurve" smooth="yes"/>
      <point x="1786" y="-396" type="line"/>
      <point x="1790" y="-428" type="line"/>
      <point x="2154" y="-428" type="line" smooth="yes"/>
      <point x="2193" y="-428"/>
      <point x="2257" y="-407"/>
      <point x="2306" y="-366"/>
      <point x="2338" y="-305"/>
      <point x="2345" y="-266" type="qcurve" smooth="yes"/>
      <point x="2636" y="1400" type="line"/>
      <point x="2600" y="1400" type="line"/>
      <point x="2364" y="46" type="line"/>
      <point x="510" y="1400" type="line"/>
      <point x="474" y="1400" type="line"/>
    </contour>
  </outline>
</glyph>
<glyph name="eng" format="2">
  <advance width="2028"/>
  <unicode hex="014B"/>
  <anchor x="1176" y="1150" name="top"/>
  <anchor x="880" y="-150" name="bottom"/>
  <anchor x="195" y="500" name="left"/>
  <outline>
    <contour>
      <point x="204" y="0" type="line"/>
      <point x="240" y="0" type="line"/>
      <point x="409" y="968" type="line"/>
      <point x="1605" y="968" type="line" smooth="yes"/>
      <point x="1672" y="968"/>
      <point x="1719" y="898"/>
      <point x="1707" y="832" type="qcurve" smooth="yes"/>
      <point x="1517" y="-260" type="line" smooth="yes"/>
      <point x="1505" y="-327"/>
      <point x="1434" y="-396"/>
      <point x="1367" y="-396" type="qcurve" smooth="yes"/>
      <point x="993" y="-396" type="line"/>
      <point x="997" y="-428" type="line"/>
      <point x="1361" y="-428" type="line" smooth="yes"/>
      <point x="1400" y="-428"/>
      <point x="1465" y="-407"/>
      <point x="1513" y="-366"/>
      <point x="1545" y="-305"/>
      <point x="1552" y="-266" type="qcurve" smooth="yes"/>
      <point x="1744" y="838" type="line" smooth="yes"/>
      <point x="1751" y="877"/>
      <point x="1741" y="938"/>
      <point x="1707" y="979"/>
      <point x="1650" y="1000"/>
      <point x="1611" y="1000" type="qcurve" smooth="yes"/>
      <point x="491" y="1000" type="line" smooth="yes"/>
      <point x="464" y="1000"/>
      <point x="423" y="986"/>
      <point x="410" y="972" type="qcurve"/>
      <point x="415" y="1000" type="line"/>
      <point x="379" y="1000" type="line"/>
    </contour>
  </outline>
  <guideline angle="260.075" color="1,0,0,1" x="901" y="-0"/>
  <guideline angle="260.106" color="1,0,0,1" x="222" y="-0"/>
</glyph>
<glyph name="oe" format="2">
  <advance width="3014"/>
  <unicode hex="0153"/>
  <anchor x="3227" y="1150" name="top"/>
  <anchor x="3000" y="-150" name="bottom"/>
  <outline>
    <contour>
      <point x="335" y="0" type="line"/>
      <point x="1238" y="0" type="line" smooth="yes"/>
      <point x="1295" y="0"/>
      <point x="1378" y="44"/>
      <point x="1402" y="86" type="qcurve"/>
      <point x="1411" y="44"/>
      <point x="1479" y="0"/>
      <point x="1536" y="0" type="qcurve" smooth="yes"/>
      <point x="2422" y="0" type="line" smooth="yes"/>
      <point x="2461" y="0"/>
      <point x="2526" y="21"/>
      <point x="2574" y="62"/>
      <point x="2605" y="123"/>
      <point x="2612" y="162" type="qcurve" smooth="yes"/>
      <point x="2636" y="300" type="line"/>
      <point x="2602" y="308" type="line"/>
      <point x="2577" y="168" type="line" smooth="yes"/>
      <point x="2566" y="102"/>
      <point x="2498" y="32"/>
      <point x="2424" y="32" type="qcurve" smooth="yes"/>
      <point x="1541" y="32" type="line" smooth="yes"/>
      <point x="1476" y="32"/>
      <point x="1423" y="102"/>
      <point x="1434" y="168" type="qcurve" smooth="yes"/>
      <point x="1493" y="507" type="line"/>
      <point x="2689" y="507" type="line"/>
      <point x="2747" y="838" type="line" smooth="yes"/>
      <point x="2754" y="877"/>
      <point x="2744" y="938"/>
      <point x="2710" y="979"/>
      <point x="2653" y="1000"/>
      <point x="2614" y="1000" type="qcurve" smooth="yes"/>
      <point x="1712" y="1000" type="line" smooth="yes"/>
      <point x="1655" y="1000"/>
      <point x="1571" y="958"/>
      <point x="1548" y="916" type="qcurve"/>
      <point x="1537" y="958"/>
      <point x="1470" y="1000"/>
      <point x="1413" y="1000" type="qcurve" smooth="yes"/>
      <point x="510" y="1000" type="line" smooth="yes"/>
      <point x="471" y="1000"/>
      <point x="406" y="979"/>
      <point x="358" y="938"/>
      <point x="326" y="877"/>
      <point x="319" y="838" type="qcurve" smooth="yes"/>
      <point x="201" y="162" type="line" smooth="yes"/>
      <point x="194" y="123"/>
      <point x="205" y="62"/>
      <point x="239" y="21"/>
      <point x="296" y="0"/>
      <point x="335" y="0" type="qcurve"/>
    </contour>
    <contour>
      <point x="2659" y="539" type="line"/>
      <point x="1500" y="539" type="line"/>
      <point x="1551" y="833" type="line" smooth="yes"/>
      <point x="1563" y="899"/>
      <point x="1641" y="968"/>
      <point x="1705" y="968" type="qcurve" smooth="yes"/>
      <point x="2604" y="968" type="line" smooth="yes"/>
      <point x="2678" y="968"/>
      <point x="2722" y="898"/>
      <point x="2710" y="832" type="qcurve" smooth="yes"/>
    </contour>
    <contour>
      <point x="238" y="168" type="line"/>
      <point x="354" y="832" type="line" smooth="yes"/>
      <point x="366" y="899"/>
      <point x="434" y="968"/>
      <point x="508" y="968" type="qcurve" smooth="yes"/>
      <point x="1408" y="968" type="line" smooth="yes"/>
      <point x="1473" y="968"/>
      <point x="1525" y="898"/>
      <point x="1514" y="832" type="qcurve" smooth="yes"/>
      <point x="1398" y="168" type="line" smooth="yes"/>
      <point x="1387" y="102"/>
      <point x="1310" y="32"/>
      <point x="1245" y="32" type="qcurve" smooth="yes"/>
      <point x="345" y="32" type="line" smooth="yes"/>
      <point x="271" y="32"/>
      <point x="227" y="101"/>
      <point x="238" y="168" type="qcurve"/>
    </contour>
  </outline>
  <guideline x="1387" y="-0" angle="260.082" color="1,0,0,1"/>
</glyph>
<glyph name="uni018F" format="2">
  <advance width="2527"/>
  <unicode hex="018F"/>
  <anchor x="1418" y="1550" name="top"/>
  <anchor x="1121" y="-150" name="bottom"/>
  <outline>
    <contour>
      <point x="506" y="0" type="line" smooth="yes"/>
      <point x="434" y="0"/>
      <point x="328" y="39"/>
      <point x="265" y="116"/>
      <point x="245" y="228"/>
      <point x="258" y="300" type="qcurve" smooth="yes"/>
      <point x="328" y="700" type="line"/>
      <point x="2156" y="700" type="line"/>
      <point x="2226" y="1102" type="line" smooth="yes"/>
      <point x="2237" y="1166"/>
      <point x="2220" y="1264"/>
      <point x="2166" y="1330"/>
      <point x="2074" y="1364"/>
      <point x="2010" y="1364" type="qcurve" smooth="yes"/>
      <point x="746" y="1364" type="line" smooth="yes"/>
      <point x="682" y="1364"/>
      <point x="579" y="1330"/>
      <point x="501" y="1264"/>
      <point x="449" y="1166"/>
      <point x="438" y="1102" type="qcurve" smooth="yes"/>
      <point x="421" y="1000" type="line"/>
      <point x="382" y="1008" type="line"/>
      <point x="398" y="1100" type="line" smooth="yes"/>
      <point x="411" y="1172"/>
      <point x="470" y="1284"/>
      <point x="559" y="1361"/>
      <point x="678" y="1400"/>
      <point x="750" y="1400" type="qcurve" smooth="yes"/>
      <point x="2018" y="1400" type="line" smooth="yes"/>
      <point x="2090" y="1400"/>
      <point x="2196" y="1361"/>
      <point x="2259" y="1284"/>
      <point x="2279" y="1172"/>
      <point x="2266" y="1100" type="qcurve" smooth="yes"/>
      <point x="2126" y="300" type="line" smooth="yes"/>
      <point x="2114" y="228"/>
      <point x="2055" y="116"/>
      <point x="1965" y="39"/>
      <point x="1846" y="0"/>
      <point x="1774" y="0" type="qcurve" smooth="yes"/>
    </contour>
    <contour>
      <point x="362" y="664" type="line"/>
      <point x="298" y="298" type="line" smooth="yes"/>
      <point x="287" y="234"/>
      <point x="304" y="136"/>
      <point x="358" y="70"/>
      <point x="450" y="36"/>
      <point x="514" y="36" type="qcurve" smooth="yes"/>
      <point x="1778" y="36" type="line" smooth="yes"/>
      <point x="1842" y="36"/>
      <point x="1946" y="70"/>
      <point x="2024" y="136"/>
      <point x="2075" y="234"/>
      <point x="2086" y="298" type="qcurve" smooth="yes"/>
      <point x="2150" y="664" type="line"/>
    </contour>
  </outline>
</glyph>
<glyph name="uni0237" format="2">
  <advance width="687"/>
  <unicode hex="0237"/>
  <anchor x="441" y="1150" name="top"/>
  <outline>
    <contour>
      <point x="-347.376" y="-396" type="line"/>
      <point x="-343.376" y="-428" type="line"/>
      <point x="20.6236" y="-428" type="line" smooth="yes"/>
      <point x="59.6236" y="-428"/>
      <point x="124.624" y="-407"/>
      <point x="172.624" y="-366"/>
      <point x="204.624" y="-305"/>
      <point x="211.624" y="-266" type="qcurve" smooth="yes"/>
      <point x="432.624" y="1000" type="line"/>
      <point x="396.624" y="1000" type="line"/>
      <point x="176.624" y="-260" type="line" smooth="yes"/>
      <point x="164.624" y="-326"/>
      <point x="93.6236" y="-396"/>
      <point x="26.6236" y="-396" type="qcurve" smooth="yes"/>
    </contour>
  </outline>
</glyph>
<glyph name="acutecomb" format="2">
  <unicode hex="0301"/>
  <anchor x="75" y="1150" name="_top"/>
  <anchor x="-76" y="1085" name="_topright"/>
  <outline>
    <contour>
      <point x="-116" y="1085" type="line"/>
      <point x="412" y="1448" type="line"/>
      <point x="473" y="1448" type="line"/>
      <point x="-65" y="1085" type="line"/>
    </contour>
  </outline>
</glyph>
<glyph name="tildecomb" format="2">
  <unicode hex="0303"/>
  <anchor x="81" y="1150" name="_top"/>
  <anchor x="145" y="1519" name="top"/>
  <outline>
    <contour>
      <point x="-354" y="1179" type="line"/>
      <point x="-319" y="1251"/>
      <point x="-247" y="1343"/>
      <point x="-175" y="1395"/>
      <point x="-103" y="1414"/>
      <point x="-69" y="1414" type="qcurve" smooth="yes"/>
      <point x="-24" y="1414"/>
      <point x="41" y="1383"/>
      <point x="93" y="1336"/>
      <point x="139" y="1281"/>
      <point x="188" y="1234"/>
      <point x="248" y="1203"/>
      <point x="289" y="1203" type="qcurve" smooth="yes"/>
      <point x="325" y="1203"/>
      <point x="390" y="1226"/>
      <point x="451" y="1277"/>
      <point x="509" y="1357"/>
      <point x="538" y="1414" type="qcurve"/>
      <point x="566" y="1408" type="line"/>
      <point x="531" y="1336"/>
      <point x="458" y="1244"/>
      <point x="386" y="1192"/>
      <point x="315" y="1173"/>
      <point x="281" y="1173" type="qcurve" smooth="yes"/>
      <point x="236" y="1173"/>
      <point x="171" y="1204"/>
      <point x="119" y="1251"/>
      <point x="73" y="1306"/>
      <point x="24" y="1353"/>
      <point x="-36" y="1384"/>
      <point x="-77" y="1384" type="qcurve" smooth="yes"/>
      <point x="-113" y="1384"/>
      <point x="-178" y="1361"/>
      <point x="-240" y="1310"/>
      <point x="-298" y="1230"/>
      <point x="-326" y="1173" type="qcurve"/>
    </contour>
  </outline>
</glyph>
<glyph name="uni0304" format="2">
  <unicode hex="0304"/>
  <anchor x="79" y="1150" name="_top"/>
  <anchor x="122" y="1386" name="top"/>
  <outline>
    <contour>
      <point x="-383" y="1254" type="line"/>
      <point x="582" y="1254" type="line"/>
      <point x="587" y="1286" type="line"/>
      <point x="-378" y="1286" type="line"/>
    </contour>
  </outline>
</glyph>
<glyph name="uni0306" format="2">
  <unicode hex="0306"/>
  <anchor x="81" y="1150" name="_top"/>
  <anchor x="145" y="1518" name="top"/>
  <outline>
    <contour>
      <point x="-148" y="1418" type="line"/>
      <point x="-163" y="1330"/>
      <point x="-163" y="1222"/>
      <point x="-114" y="1164"/>
      <point x="-9" y="1144"/>
      <point x="80" y="1144" type="qcurve" smooth="yes"/>
      <point x="169" y="1144"/>
      <point x="281" y="1164"/>
      <point x="349" y="1222"/>
      <point x="387" y="1330"/>
      <point x="402" y="1418" type="qcurve"/>
      <point x="372" y="1418" type="line"/>
      <point x="358" y="1335"/>
      <point x="324" y="1238"/>
      <point x="264" y="1189"/>
      <point x="165" y="1176"/>
      <point x="85" y="1176" type="qcurve" smooth="yes"/>
      <point x="5" y="1176"/>
      <point x="-89" y="1189"/>
      <point x="-132" y="1238"/>
      <point x="-132" y="1335"/>
      <point x="-118" y="1418" type="qcurve"/>
    </contour>
  </outline>
</glyph>
<glyph name="uni0307" format="2">
  <unicode hex="0307"/>
  <anchor x="81" y="1150" name="_top"/>
  <anchor x="133" y="1450" name="_bottom"/>
  <anchor x="124" y="1399" name="top"/>
  <outline>
    <contour>
      <point x="60" y="1263" type="line"/>
      <point x="66" y="1295" type="line" smooth="yes"/>
      <point x="68" y="1304"/>
      <point x="70" y="1314"/>
      <point x="75" y="1318"/>
      <point x="85" y="1319"/>
      <point x="94" y="1319" type="qcurve" smooth="yes"/>
      <point x="126" y="1319" type="line" smooth="yes"/>
      <point x="135" y="1319"/>
      <point x="145" y="1318"/>
      <point x="148" y="1314"/>
      <point x="148" y="1304"/>
      <point x="146" y="1295" type="qcurve" smooth="yes"/>
      <point x="140" y="1263" type="line" smooth="yes"/>
      <point x="139" y="1254"/>
      <point x="136" y="1244"/>
      <point x="131" y="1240"/>
      <point x="121" y="1239"/>
      <point x="112" y="1239" type="qcurve" smooth="yes"/>
      <point x="80" y="1239" type="line" smooth="yes"/>
      <point x="71" y="1239"/>
      <point x="61" y="1240"/>
      <point x="58" y="1244"/>
      <point x="59" y="1254"/>
      <point x="60" y="1263" type="qcurve"/>
    </contour>
  </outline>
</glyph>
<glyph name="uni0308" format="2">
  <unicode hex="0308"/>
  <anchor x="87" y="1150" name="_top"/>
  <anchor x="140" y="1450" name="_bottom"/>
  <anchor x="131" y="1399" name="top"/>
  <outline>
    <contour>
      <point x="-153" y="1265" type="line"/>
      <point x="-155" y="1256"/>
      <point x="-156" y="1245"/>
      <point x="-152" y="1240"/>
      <point x="-141" y="1239"/>
      <point x="-132" y="1239" type="qcurve" smooth="yes"/>
      <point x="-114" y="1239" type="line" smooth="yes"/>
      <point x="-105" y="1239"/>
      <point x="-94" y="1240"/>
      <point x="-88" y="1245"/>
      <point x="-85" y="1256"/>
      <point x="-83" y="1265" type="qcurve"/>
      <point x="-80" y="1283" type="line"/>
      <point x="-79" y="1292"/>
      <point x="-78" y="1303"/>
      <point x="-82" y="1308"/>
      <point x="-92" y="1309"/>
      <point x="-101" y="1309" type="qcurve" smooth="yes"/>
      <point x="-120" y="1309" type="line" smooth="yes"/>
      <point x="-129" y="1309"/>
      <point x="-140" y="1308"/>
      <point x="-146" y="1303"/>
      <point x="-149" y="1292"/>
      <point x="-150" y="1283" type="qcurve"/>
    </contour>
    <contour>
      <point x="299" y="1265" type="line"/>
      <point x="297" y="1256"/>
      <point x="296" y="1245"/>
      <point x="300" y="1240"/>
      <point x="311" y="1239"/>
      <point x="320" y="1239" type="qcurve" smooth="yes"/>
      <point x="338" y="1239" type="line" smooth="yes"/>
      <point x="347" y="1239"/>
      <point x="358" y="1240"/>
      <point x="364" y="1245"/>
      <point x="367" y="1256"/>
      <point x="369" y="1265" type="qcurve"/>
      <point x="372" y="1283" type="line"/>
      <point x="374" y="1292"/>
      <point x="374" y="1303"/>
      <point x="370" y="1308"/>
      <point x="360" y="1309"/>
      <point x="351" y="1309" type="qcurve" smooth="yes"/>
      <point x="332" y="1309" type="line" smooth="yes"/>
      <point x="323" y="1309"/>
      <point x="312" y="1308"/>
      <point x="306" y="1303"/>
      <point x="304" y="1292"/>
      <point x="302" y="1283" type="qcurve"/>
    </contour>
  </outline>
</glyph>
<glyph name="uni0309" format="2">
  <unicode hex="0309"/>
  <anchor x="81" y="1150" name="_top"/>
  <anchor x="88" y="1116" name="_topright"/>
  <outline>
    <contour>
      <point x="28" y="1116" type="line"/>
      <point x="89" y="1116" type="line"/>
      <point x="128" y="1129"/>
      <point x="193" y="1165"/>
      <point x="243" y="1208"/>
      <point x="275" y="1257"/>
      <point x="279" y="1283" type="qcurve" smooth="yes"/>
      <point x="284" y="1314"/>
      <point x="268" y="1363"/>
      <point x="225" y="1396"/>
      <point x="156" y="1414"/>
      <point x="109" y="1414" type="qcurve" smooth="yes"/>
      <point x="84" y="1414"/>
      <point x="35" y="1411"/>
      <point x="-12" y="1404"/>
      <point x="-55" y="1394"/>
      <point x="-74" y="1387" type="qcurve"/>
      <point x="-70" y="1360" type="line"/>
      <point x="-32" y="1374"/>
      <point x="56" y="1384"/>
      <point x="104" y="1384" type="qcurve" smooth="yes"/>
      <point x="181" y="1384"/>
      <point x="253" y="1331"/>
      <point x="245" y="1283" type="qcurve" smooth="yes"/>
      <point x="235" y="1227"/>
      <point x="120" y="1150"/>
      <point x="28" y="1116" type="qcurve"/>
    </contour>
  </outline>
</glyph>
<glyph name="uni0326" format="2">
  <unicode hex="0326"/>
  <anchor x="-146" y="-150" name="_bottom"/>
  <outline>
    <contour>
      <point x="-182" y="-234" type="line"/>
      <point x="-158" y="-177" type="line"/>
      <point x="-160" y="-177" type="line"/>
      <point x="-168" y="-177"/>
      <point x="-176" y="-176"/>
      <point x="-179" y="-172"/>
      <point x="-179" y="-164"/>
      <point x="-177" y="-157" type="qcurve"/>
      <point x="-174" y="-138" type="line" smooth="yes"/>
      <point x="-173" y="-131"/>
      <point x="-171" y="-123"/>
      <point x="-166" y="-119"/>
      <point x="-158" y="-118"/>
      <point x="-150" y="-118" type="qcurve" smooth="yes"/>
      <point x="-131" y="-118" type="line" smooth="yes"/>
      <point x="-124" y="-118"/>
      <point x="-116" y="-119"/>
      <point x="-113" y="-123"/>
      <point x="-113" y="-131"/>
      <point x="-114" y="-138" type="qcurve" smooth="yes"/>
      <point x="-117" y="-157" type="line" smooth="yes"/>
      <point x="-119" y="-165"/>
      <point x="-123" y="-172"/>
      <point x="-125" y="-175" type="qcurve" smooth="yes"/>
      <point x="-172" y="-239" type="line"/>
    </contour>
  </outline>
</glyph>
<glyph name="uni0327" format="2">
  <unicode hex="0327"/>
  <anchor x="-146" y="-150" name="_bottom"/>
  <outline>
    <contour>
      <point x="-125" y="0" type="line"/>
      <point x="-228" y="-139" type="line"/>
      <point x="-217" y="-137"/>
      <point x="-191" y="-135"/>
      <point x="-176" y="-135" type="qcurve" smooth="yes"/>
      <point x="-126" y="-135"/>
      <point x="-53" y="-147"/>
      <point x="-8" y="-174"/>
      <point x="9" y="-215"/>
      <point x="4" y="-244" type="qcurve" smooth="yes"/>
      <point x="-1" y="-274"/>
      <point x="-40" y="-316"/>
      <point x="-98" y="-342"/>
      <point x="-170" y="-354"/>
      <point x="-208" y="-354" type="qcurve" smooth="yes"/>
      <point x="-254" y="-354"/>
      <point x="-334" y="-336"/>
      <point x="-358" y="-322" type="qcurve"/>
      <point x="-377" y="-344" type="line"/>
      <point x="-361" y="-354"/>
      <point x="-322" y="-369"/>
      <point x="-278" y="-379"/>
      <point x="-227" y="-384"/>
      <point x="-198" y="-384" type="qcurve" smooth="yes"/>
      <point x="-148" y="-384"/>
      <point x="-66" y="-369"/>
      <point x="-5" y="-335"/>
      <point x="33" y="-280"/>
      <point x="40" y="-241" type="qcurve" smooth="yes"/>
      <point x="46" y="-204"/>
      <point x="22" y="-152"/>
      <point x="-34" y="-120"/>
      <point x="-117" y="-105"/>
      <point x="-169" y="-105" type="qcurve"/>
      <point x="-90" y="0" type="line"/>
    </contour>
  </outline>
</glyph>
<glyph name="uni0328" format="2">
  <unicode hex="0328"/>
  <anchor x="-146" y="-150" name="_bottom"/>
  <anchor x="-2" y="0" name="_ogonek"/>
  <outline>
    <contour>
      <point x="-2" y="0" type="line"/>
      <point x="-58" y="-29"/>
      <point x="-145" y="-88"/>
      <point x="-205" y="-146"/>
      <point x="-241" y="-205"/>
      <point x="-246" y="-235" type="qcurve" smooth="yes"/>
      <point x="-250" y="-257"/>
      <point x="-242" y="-292"/>
      <point x="-220" y="-316"/>
      <point x="-184" y="-329"/>
      <point x="-160" y="-329" type="qcurve" smooth="yes"/>
      <point x="-148" y="-329"/>
      <point x="-125" y="-326"/>
      <point x="-99" y="-318"/>
      <point x="-71" y="-306"/>
      <point x="-54" y="-297" type="qcurve"/>
      <point x="-59" y="-327" type="line"/>
      <point x="-85" y="-343"/>
      <point x="-139" y="-359"/>
      <point x="-168" y="-359" type="qcurve" smooth="yes"/>
      <point x="-198" y="-359"/>
      <point x="-244" y="-342"/>
      <point x="-273" y="-311"/>
      <point x="-285" y="-268"/>
      <point x="-280" y="-242" type="qcurve" smooth="yes"/>
      <point x="-274" y="-209"/>
      <point x="-235" y="-144"/>
      <point x="-172" y="-83"/>
      <point x="-88" y="-26"/>
      <point x="-38" y="0" type="qcurve"/>
    </contour>
  </outline>
</glyph>
<glyph name="uni0404" format="2">
  <advance width="2514.63"/>
  <unicode hex="0404"/>
  <anchor x="1417.96" y="1550" name="top"/>
  <outline>
    <contour>
      <point x="513" y="0" type="line"/>
      <point x="1781" y="0" type="line" smooth="yes"/>
      <point x="1853" y="0"/>
      <point x="1972" y="39"/>
      <point x="2062" y="116"/>
      <point x="2121" y="228"/>
      <point x="2133" y="300" type="qcurve" smooth="yes"/>
      <point x="2156" y="428" type="line"/>
      <point x="2117" y="436" type="line"/>
      <point x="2093" y="298" type="line" smooth="yes"/>
      <point x="2082" y="234"/>
      <point x="2030" y="136"/>
      <point x="1952" y="70"/>
      <point x="1849" y="36"/>
      <point x="1785" y="36" type="qcurve" smooth="yes"/>
      <point x="521" y="36" type="line" smooth="yes"/>
      <point x="457" y="36"/>
      <point x="365" y="70"/>
      <point x="311" y="136"/>
      <point x="294" y="234"/>
      <point x="305" y="298" type="qcurve" smooth="yes"/>
      <point x="375" y="700" type="line"/>
      <point x="1801" y="700" type="line"/>
      <point x="1807" y="736" type="line"/>
      <point x="381" y="736" type="line"/>
      <point x="445" y="1102" type="line" smooth="yes"/>
      <point x="456" y="1166"/>
      <point x="507" y="1264"/>
      <point x="585" y="1330"/>
      <point x="689" y="1364"/>
      <point x="753" y="1364" type="qcurve" smooth="yes"/>
      <point x="2017" y="1364" type="line" smooth="yes"/>
      <point x="2081" y="1364"/>
      <point x="2173" y="1330"/>
      <point x="2227" y="1264"/>
      <point x="2244" y="1166"/>
      <point x="2233" y="1102" type="qcurve" smooth="yes"/>
      <point x="2215" y="996" type="line"/>
      <point x="2256" y="1004" type="line"/>
      <point x="2273" y="1100" type="line" smooth="yes"/>
      <point x="2286" y="1172"/>
      <point x="2266" y="1284"/>
      <point x="2202" y="1361"/>
      <point x="2097" y="1400"/>
      <point x="2025" y="1400" type="qcurve" smooth="yes"/>
      <point x="757" y="1400" type="line" smooth="yes"/>
      <point x="685" y="1400"/>
      <point x="566" y="1361"/>
      <point x="477" y="1284"/>
      <point x="418" y="1172"/>
      <point x="405" y="1100" type="qcurve" smooth="yes"/>
      <point x="265" y="300" type="line" smooth="yes"/>
      <point x="253" y="228"/>
      <point x="273" y="116"/>
      <point x="336" y="39"/>
      <point x="441" y="0"/>
      <point x="513" y="0" type="qcurve"/>
    </contour>
  </outline>
  <guideline angle="260.097" color="1,0,0,1" x="1911.96" y="0"/>
</glyph>
<glyph name="uni040A" format="2">
  <advance width="4365"/>
  <unicode hex="040A"/>
  <outline>
    <contour>
      <point x="230" y="0" type="line"/>
      <point x="270" y="0" type="line"/>
      <point x="400" y="742" type="line"/>
      <point x="2207" y="742" type="line"/>
      <point x="2077" y="0" type="line"/>
      <point x="3652" y="0" type="line" smooth="yes"/>
      <point x="3724" y="0"/>
      <point x="3843" y="39"/>
      <point x="3933" y="116"/>
      <point x="3992" y="228"/>
      <point x="4004" y="300" type="qcurve" smooth="yes"/>
      <point x="4035" y="478" type="line" smooth="yes"/>
      <point x="4048" y="550"/>
      <point x="4028" y="662"/>
      <point x="3965" y="739"/>
      <point x="3860" y="778"/>
      <point x="3788" y="778" type="qcurve" smooth="yes"/>
      <point x="2253" y="778" type="line"/>
      <point x="2361" y="1400" type="line"/>
      <point x="2321" y="1400" type="line"/>
      <point x="2213" y="778" type="line"/>
      <point x="406" y="778" type="line"/>
      <point x="514" y="1400" type="line"/>
      <point x="474" y="1400" type="line"/>
    </contour>
    <contour>
      <point x="2123" y="36" type="line"/>
      <point x="2247" y="742" type="line"/>
      <point x="3780" y="742" type="line" smooth="yes"/>
      <point x="3844" y="742"/>
      <point x="3935" y="708"/>
      <point x="3990" y="642"/>
      <point x="4007" y="544"/>
      <point x="3996" y="480" type="qcurve" smooth="yes"/>
      <point x="3964" y="298" type="line" smooth="yes"/>
      <point x="3953" y="234"/>
      <point x="3902" y="136"/>
      <point x="3824" y="70"/>
      <point x="3720" y="36"/>
      <point x="3656" y="36" type="qcurve" smooth="yes"/>
    </contour>
  </outline>
</glyph>
<glyph name="uni040F" format="2">
  <advance width="2659"/>
  <unicode hex="040F"/>
  <outline>
    <contour>
      <point x="230" y="0" type="line"/>
      <point x="1192" y="0" type="line"/>
      <point x="1147" y="-260" type="line"/>
      <point x="1182" y="-260" type="line"/>
      <point x="1227" y="0" type="line"/>
      <point x="2189" y="0" type="line"/>
      <point x="2433" y="1400" type="line"/>
      <point x="2393" y="1400" type="line"/>
      <point x="2155" y="36" type="line"/>
      <point x="276" y="36" type="line"/>
      <point x="514" y="1400" type="line"/>
      <point x="474" y="1400" type="line"/>
    </contour>
  </outline>
  <guideline x="1379" y="0" angle="260.086" color="1,0,0,1"/>
</glyph>
<glyph name="uni0411" format="2">
  <advance width="2671.11"/>
  <unicode hex="0411"/>
  <outline>
    <contour>
      <point x="230" y="0" type="line"/>
      <point x="1958" y="0" type="line" smooth="yes"/>
      <point x="2030" y="0"/>
      <point x="2149" y="39"/>
      <point x="2239" y="116"/>
      <point x="2297" y="228"/>
      <point x="2310" y="300" type="qcurve" smooth="yes"/>
      <point x="2341" y="476" type="line" smooth="yes"/>
      <point x="2354" y="548"/>
      <point x="2334" y="660"/>
      <point x="2270" y="737"/>
      <point x="2165" y="776"/>
      <point x="2093" y="776" type="qcurve" smooth="yes"/>
      <point x="405" y="776" type="line"/>
      <point x="508" y="1364" type="line"/>
      <point x="2390" y="1364" type="line"/>
      <point x="2396" y="1400" type="line"/>
      <point x="474" y="1400" type="line"/>
    </contour>
    <contour>
      <point x="276" y="36" type="line"/>
      <point x="399" y="740" type="line"/>
      <point x="2085" y="740" type="line" smooth="yes"/>
      <point x="2212" y="740"/>
      <point x="2323" y="606"/>
      <point x="2301" y="478" type="qcurve" smooth="yes"/>
      <point x="2270" y="298" type="line" smooth="yes"/>
      <point x="2259" y="234"/>
      <point x="2207" y="136"/>
      <point x="2129" y="70"/>
      <point x="2026" y="36"/>
      <point x="1962" y="36" type="qcurve" smooth="yes"/>
    </contour>
  </outline>
</glyph>
<glyph name="uni0413" format="2">
  <advance width="2013"/>
  <unicode hex="0413"/>
  <anchor x="1332" y="1550" name="top"/>
  <outline>
    <contour>
      <point x="230" y="0" type="line"/>
      <point x="270" y="0" type="line"/>
      <point x="508" y="1364" type="line"/>
      <point x="2129" y="1364" type="line"/>
      <point x="2135" y="1400" type="line"/>
      <point x="474" y="1400" type="line"/>
    </contour>
  </outline>
</glyph>
<glyph name="uni0417" format="2">
  <advance width="2691"/>
  <unicode hex="0417"/>
  <anchor x="1491" y="1550" name="top"/>
  <anchor x="1208" y="0" name="ogonek"/>
  <outline>
    <contour>
      <point x="265.102" y="398" type="line"/>
      <point x="248.102" y="300" type="line" smooth="yes"/>
      <point x="236.102" y="228"/>
      <point x="256.102" y="116"/>
      <point x="319.102" y="39"/>
      <point x="424.102" y="0"/>
      <point x="496.102" y="0" type="qcurve" smooth="yes"/>
      <point x="1893.1" y="0" type="line" smooth="yes"/>
      <point x="1965.1" y="0"/>
      <point x="2080.1" y="33"/>
      <point x="2164.1" y="102"/>
      <point x="2219.1" y="208"/>
      <point x="2232.1" y="280" type="qcurve" smooth="yes"/>
      <point x="2273.1" y="518" type="line"/>
      <point x="2282.1" y="566"/>
      <point x="2274.1" y="639"/>
      <point x="2241.1" y="693"/>
      <point x="2183.1" y="729"/>
      <point x="2141.1" y="740" type="qcurve"/>
      <point x="2183.1" y="752"/>
      <point x="2248.1" y="789"/>
      <point x="2295.1" y="842"/>
      <point x="2326.1" y="912"/>
      <point x="2334.1" y="958" type="qcurve" smooth="yes"/>
      <point x="2364.1" y="1130" type="line" smooth="yes"/>
      <point x="2377.1" y="1202"/>
      <point x="2358.1" y="1305"/>
      <point x="2297.1" y="1370"/>
      <point x="2193.1" y="1400"/>
      <point x="2121.1" y="1400" type="qcurve" smooth="yes"/>
      <point x="740.102" y="1400" type="line" smooth="yes"/>
      <point x="595.102" y="1400"/>
      <point x="414.102" y="1245"/>
      <point x="388.102" y="1100" type="qcurve" smooth="yes"/>
      <point x="367.102" y="978" type="line"/>
      <point x="405.102" y="970" type="line"/>
      <point x="428.102" y="1102" type="line" smooth="yes"/>
      <point x="439.102" y="1166"/>
      <point x="491.102" y="1264"/>
      <point x="569.102" y="1330"/>
      <point x="672.102" y="1364"/>
      <point x="736.102" y="1364" type="qcurve" smooth="yes"/>
      <point x="2113.1" y="1364" type="line" smooth="yes"/>
      <point x="2177.1" y="1364"/>
      <point x="2267.1" y="1339"/>
      <point x="2320.1" y="1284"/>
      <point x="2336.1" y="1196"/>
      <point x="2325.1" y="1132" type="qcurve" smooth="yes"/>
      <point x="2292.1" y="948" type="line" smooth="yes"/>
      <point x="2283.1" y="896"/>
      <point x="2233.1" y="822"/>
      <point x="2156.1" y="777"/>
      <point x="2055.1" y="756"/>
      <point x="1995.1" y="756" type="qcurve" smooth="yes"/>
      <point x="903.102" y="756" type="line"/>
      <point x="897.102" y="720" type="line"/>
      <point x="2005.1" y="720" type="line" smooth="yes"/>
      <point x="2065.1" y="720"/>
      <point x="2159.1" y="699"/>
      <point x="2220.1" y="654"/>
      <point x="2244.1" y="581"/>
      <point x="2235.1" y="528" type="qcurve" smooth="yes"/>
      <point x="2192.1" y="278" type="line" smooth="yes"/>
      <point x="2181.1" y="214"/>
      <point x="2134.1" y="123"/>
      <point x="2060.1" y="64"/>
      <point x="1961.1" y="36"/>
      <point x="1897.1" y="36" type="qcurve" smooth="yes"/>
      <point x="504.102" y="36" type="line" smooth="yes"/>
      <point x="377.102" y="36"/>
      <point x="266.102" y="171"/>
      <point x="288.102" y="298" type="qcurve" smooth="yes"/>
      <point x="307.102" y="406" type="line"/>
    </contour>
  </outline>
</glyph>
<glyph name="uni0418" format="2">
  <advance width="2792"/>
  <unicode hex="0418"/>
  <anchor x="1250" y="-150" name="bottom"/>
  <anchor x="1547" y="1550" name="top"/>
  <outline>
    <contour>
      <point x="229.858" y="0" type="line"/>
      <point x="267.858" y="0" type="line"/>
      <point x="2518.86" y="1356" type="line"/>
      <point x="2281.86" y="0" type="line"/>
      <point x="2321.86" y="0" type="line"/>
      <point x="2565.86" y="1400" type="line"/>
      <point x="2527.86" y="1400" type="line"/>
      <point x="277.858" y="43" type="line"/>
      <point x="513.858" y="1400" type="line"/>
      <point x="473.858" y="1400" type="line"/>
    </contour>
  </outline>
</glyph>
<glyph name="uni0423" format="2">
  <advance width="2631"/>
  <unicode hex="0423"/>
  <anchor x="1455" y="1550" name="top"/>
  <outline>
    <contour>
      <point x="497.898" y="0" type="line"/>
      <point x="1869.9" y="0" type="line" smooth="yes"/>
      <point x="1941.9" y="0"/>
      <point x="2060.9" y="39"/>
      <point x="2150.9" y="116"/>
      <point x="2209.9" y="228"/>
      <point x="2221.9" y="300" type="qcurve" smooth="yes"/>
      <point x="2413.9" y="1400" type="line"/>
      <point x="2373.9" y="1400" type="line"/>
      <point x="2245.9" y="667" type="line"/>
      <point x="637.898" y="667" type="line" smooth="yes"/>
      <point x="573.898" y="667"/>
      <point x="481.898" y="701"/>
      <point x="427.898" y="767"/>
      <point x="410.898" y="865"/>
      <point x="421.898" y="929" type="qcurve" smooth="yes"/>
      <point x="503.898" y="1400" type="line"/>
      <point x="463.898" y="1400" type="line"/>
      <point x="381.898" y="931" type="line" smooth="yes"/>
      <point x="369.898" y="859"/>
      <point x="389.898" y="747"/>
      <point x="452.898" y="670"/>
      <point x="557.898" y="631"/>
      <point x="629.898" y="631" type="qcurve" smooth="yes"/>
      <point x="2239.9" y="631" type="line"/>
      <point x="2181.9" y="298" type="line" smooth="yes"/>
      <point x="2170.9" y="234"/>
      <point x="2119.9" y="136"/>
      <point x="2041.9" y="70"/>
      <point x="1937.9" y="36"/>
      <point x="1873.9" y="36" type="qcurve" smooth="yes"/>
      <point x="505.898" y="36" type="line" smooth="yes"/>
      <point x="441.898" y="36"/>
      <point x="349.898" y="70"/>
      <point x="295.898" y="136"/>
      <point x="278.898" y="234"/>
      <point x="289.898" y="298" type="qcurve" smooth="yes"/>
      <point x="299.898" y="357" type="line"/>
      <point x="258.898" y="347" type="line"/>
      <point x="249.898" y="300" type="line"/>
      <point x="237.898" y="228"/>
      <point x="257.898" y="116"/>
      <point x="320.898" y="39"/>
      <point x="425.898" y="0"/>
      <point x="497.898" y="0" type="qcurve"/>
    </contour>
  </outline>
</glyph>
<glyph name="uni0426" format="2">
  <advance width="2699.84"/>
  <unicode hex="0426"/>
  <outline>
    <contour>
      <point x="230" y="0" type="line"/>
      <point x="2409" y="0" type="line"/>
      <point x="2364" y="-260" type="line"/>
      <point x="2399" y="-260" type="line"/>
      <point x="2450" y="36" type="line"/>
      <point x="2195" y="36" type="line"/>
      <point x="2433" y="1400" type="line"/>
      <point x="2393" y="1400" type="line"/>
      <point x="2155" y="36" type="line"/>
      <point x="276" y="36" type="line"/>
      <point x="514" y="1400" type="line"/>
      <point x="474" y="1400" type="line"/>
    </contour>
  </outline>
</glyph>
<glyph name="uni0427" format="2">
  <advance width="2610"/>
  <unicode hex="0427"/>
  <anchor x="1446" y="1550" name="top"/>
  <outline>
    <contour>
      <point x="2099.86" y="0" type="line"/>
      <point x="2139.86" y="0" type="line"/>
      <point x="2383.86" y="1400" type="line"/>
      <point x="2343.86" y="1400" type="line"/>
      <point x="2205.86" y="607" type="line"/>
      <point x="617.858" y="607" type="line" smooth="yes"/>
      <point x="553.858" y="607"/>
      <point x="461.858" y="641"/>
      <point x="407.858" y="707"/>
      <point x="390.858" y="805"/>
      <point x="401.858" y="869" type="qcurve" smooth="yes"/>
      <point x="493.858" y="1400" type="line"/>
      <point x="453.858" y="1400" type="line"/>
      <point x="361.858" y="871" type="line" smooth="yes"/>
      <point x="348.858" y="799"/>
      <point x="368.858" y="687"/>
      <point x="431.858" y="610"/>
      <point x="537.858" y="571"/>
      <point x="609.858" y="571" type="qcurve" smooth="yes"/>
      <point x="2199.86" y="571" type="line"/>
    </contour>
  </outline>
</glyph>
<glyph name="uni042B" format="2">
  <advance width="3356"/>
  <unicode hex="042B"/>
  <anchor x="1829" y="1550" name="top"/>
  <outline>
    <contour>
      <point x="229.858" y="0" type="line"/>
      <point x="1905.86" y="0" type="line" smooth="yes"/>
      <point x="1977.86" y="0"/>
      <point x="2096.86" y="39"/>
      <point x="2186.86" y="116"/>
      <point x="2245.86" y="228"/>
      <point x="2257.86" y="300" type="qcurve"/>
      <point x="2292.86" y="496" type="line"/>
      <point x="2304.86" y="568"/>
      <point x="2284.86" y="680"/>
      <point x="2221.86" y="757"/>
      <point x="2116.86" y="796"/>
      <point x="2044.86" y="796" type="qcurve" smooth="yes"/>
      <point x="408.858" y="796" type="line"/>
      <point x="513.858" y="1400" type="line"/>
      <point x="473.858" y="1400" type="line"/>
    </contour>
    <contour>
      <point x="275.858" y="36" type="line"/>
      <point x="402.858" y="760" type="line"/>
      <point x="2036.86" y="760" type="line" smooth="yes"/>
      <point x="2100.86" y="760"/>
      <point x="2192.86" y="726"/>
      <point x="2246.86" y="660"/>
      <point x="2263.86" y="562"/>
      <point x="2252.86" y="498" type="qcurve" smooth="yes"/>
      <point x="2217.86" y="298" type="line" smooth="yes"/>
      <point x="2206.86" y="234"/>
      <point x="2155.86" y="136"/>
      <point x="2077.86" y="70"/>
      <point x="1973.86" y="36"/>
      <point x="1909.86" y="36" type="qcurve" smooth="yes"/>
    </contour>
    <contour>
      <point x="2845.86" y="0" type="line"/>
      <point x="2885.86" y="0" type="line"/>
      <point x="3129.86" y="1400" type="line"/>
      <point x="3089.86" y="1400" type="line"/>
    </contour>
  </outline>
  <guideline x="2546" y="0" angle="260.092" color="1,0,0,1"/>
</glyph>
<glyph name="uni042C" format="2">
  <advance width="2724"/>
  <unicode hex="042C"/>
  <outline>
    <contour>
      <point x="230" y="0" type="line"/>
      <point x="2010" y="0" type="line" smooth="yes"/>
      <point x="2082" y="0"/>
      <point x="2201" y="39"/>
      <point x="2291" y="116"/>
      <point x="2350" y="228"/>
      <point x="2362" y="300" type="qcurve"/>
      <point x="2397" y="496" type="line"/>
      <point x="2409" y="568"/>
      <point x="2389" y="680"/>
      <point x="2326" y="757"/>
      <point x="2221" y="796"/>
      <point x="2149" y="796" type="qcurve" smooth="yes"/>
      <point x="409" y="796" type="line"/>
      <point x="514" y="1400" type="line"/>
      <point x="474" y="1400" type="line"/>
    </contour>
    <contour>
      <point x="276" y="36" type="line"/>
      <point x="403" y="760" type="line"/>
      <point x="2141" y="760" type="line" smooth="yes"/>
      <point x="2269" y="760"/>
      <point x="2380" y="626"/>
      <point x="2357" y="498" type="qcurve" smooth="yes"/>
      <point x="2322" y="298" type="line" smooth="yes"/>
      <point x="2311" y="234"/>
      <point x="2260" y="136"/>
      <point x="2182" y="70"/>
      <point x="2078" y="36"/>
      <point x="2014" y="36" type="qcurve" smooth="yes"/>
    </contour>
  </outline>
</glyph>
<glyph name="uni0431" format="2">
  <advance width="2088.32"/>
  <unicode hex="0431"/>
  <outline>
    <contour>
      <point x="1852" y="1303" type="line"/>
      <point x="1851" y="1293" type="line"/>
      <point x="1843" y="1253"/>
      <point x="1792" y="1218"/>
      <point x="1738" y="1216" type="qcurve" smooth="yes"/>
      <point x="566" y="1186" type="line" smooth="yes"/>
      <point x="518" y="1185"/>
      <point x="443" y="1159"/>
      <point x="388" y="1107"/>
      <point x="352" y="1028"/>
      <point x="343" y="974" type="qcurve" smooth="yes"/>
      <point x="201" y="162" type="line" smooth="yes"/>
      <point x="194" y="123"/>
      <point x="205" y="62"/>
      <point x="239" y="21"/>
      <point x="295" y="0"/>
      <point x="335" y="0" type="qcurve" smooth="yes"/>
      <point x="1514" y="0" type="line" smooth="yes"/>
      <point x="1553" y="0"/>
      <point x="1617" y="21"/>
      <point x="1665" y="62"/>
      <point x="1696" y="123"/>
      <point x="1703" y="162" type="qcurve" smooth="yes"/>
      <point x="1794" y="683" type="line" smooth="yes"/>
      <point x="1801" y="722"/>
      <point x="1791" y="783"/>
      <point x="1757" y="824"/>
      <point x="1700" y="845"/>
      <point x="1661" y="845" type="qcurve" smooth="yes"/>
      <point x="510" y="845" type="line" smooth="yes"/>
      <point x="479" y="845"/>
      <point x="430" y="838"/>
      <point x="390" y="823"/>
      <point x="358" y="800"/>
      <point x="346" y="785" type="qcurve"/>
      <point x="378" y="971" type="line" smooth="yes"/>
      <point x="386" y="1018"/>
      <point x="417" y="1085"/>
      <point x="463" y="1129"/>
      <point x="528" y="1151"/>
      <point x="570" y="1152" type="qcurve" smooth="yes"/>
      <point x="1734" y="1182" type="line" smooth="yes"/>
      <point x="1768" y="1183"/>
      <point x="1819" y="1196"/>
      <point x="1855" y="1221"/>
      <point x="1877" y="1261"/>
      <point x="1882" y="1288" type="qcurve"/>
      <point x="1884" y="1303" type="line"/>
    </contour>
    <contour>
      <point x="341" y="32" type="line" smooth="yes"/>
      <point x="274" y="32"/>
      <point x="226" y="101"/>
      <point x="238" y="168" type="qcurve" smooth="yes"/>
      <point x="329" y="685" type="line" smooth="yes"/>
      <point x="340" y="750"/>
      <point x="426" y="813"/>
      <point x="495" y="813" type="qcurve" smooth="yes"/>
      <point x="1656" y="813" type="line" smooth="yes"/>
      <point x="1722" y="813"/>
      <point x="1769" y="744"/>
      <point x="1757" y="677" type="qcurve" smooth="yes"/>
      <point x="1668" y="168" type="line" smooth="yes"/>
      <point x="1656" y="101"/>
      <point x="1586" y="32"/>
      <point x="1520" y="32" type="qcurve" smooth="yes"/>
    </contour>
  </outline>
</glyph>
<glyph name="uni0433" format="2">
  <advance width="1603.29"/>
  <unicode hex="0433"/>
  <anchor x="999" y="1150" name="top"/>
  <outline>
    <contour>
      <point x="204.327" y="0" type="line"/>
      <point x="240.327" y="0" type="line"/>
      <point x="409.327" y="968" type="line"/>
      <point x="1561.33" y="968" type="line"/>
      <point x="1567.33" y="1000" type="line"/>
      <point x="379.327" y="1000" type="line"/>
    </contour>
  </outline>
</glyph>
<glyph name="uni0434" format="2">
  <advance width="1955"/>
  <unicode hex="0434"/>
  <outline>
    <contour>
      <point x="-126" y="-240" type="line"/>
      <point x="-91" y="-240" type="line"/>
      <point x="-49" y="0" type="line"/>
      <point x="1764" y="0" type="line"/>
      <point x="1722" y="-240" type="line"/>
      <point x="1757" y="-240" type="line"/>
      <point x="1805" y="32" type="line"/>
      <point x="1647" y="32" type="line"/>
      <point x="1038" y="1000" type="line"/>
      <point x="1002" y="1000" type="line"/>
      <point x="72" y="32" type="line"/>
      <point x="-78" y="32" type="line"/>
    </contour>
    <contour>
      <point x="113" y="32" type="line"/>
      <point x="1012" y="967" type="line"/>
      <point x="1600" y="32" type="line"/>
    </contour>
  </outline>
</glyph>
<glyph name="uni0436" format="2">
  <advance width="2222.3" height="1448"/>
  <unicode hex="0436"/>
  <anchor x="1192.15" y="1150" name="top"/>
  <outline>
    <contour>
      <point x="-103.85" y="0" type="line"/>
      <point x="-23.85" y="0" type="line"/>
      <point x="1060.15" y="492" type="line"/>
      <point x="974.15" y="0" type="line"/>
      <point x="1010.15" y="0" type="line"/>
      <point x="1096.15" y="491" type="line"/>
      <point x="2006.15" y="0" type="line"/>
      <point x="2086.15" y="0" type="line"/>
      <point x="1131.15" y="511" type="line"/>
      <point x="2132.15" y="1000" type="line"/>
      <point x="2069.15" y="1000" type="line"/>
      <point x="1102.15" y="526" type="line"/>
      <point x="1185.15" y="1000" type="line"/>
      <point x="1149.15" y="1000" type="line"/>
      <point x="1066.15" y="525" type="line"/>
      <point x="263.15" y="1000" type="line"/>
      <point x="200.15" y="1000" type="line"/>
      <point x="1029.15" y="511" type="line"/>
    </contour>
  </outline>
</glyph>
<glyph name="uni0437" format="2">
  <advance width="1928"/>
  <unicode hex="0437"/>
  <anchor x="1012" y="1150" name="top"/>
  <anchor x="829" y="0" name="ogonek"/>
  <outline>
    <contour>
      <point x="267.301" y="0" type="line"/>
      <point x="1299.3" y="0" type="line" smooth="yes"/>
      <point x="1356.3" y="0"/>
      <point x="1441.3" y="21"/>
      <point x="1501.3" y="66"/>
      <point x="1537.3" y="136"/>
      <point x="1546.3" y="185" type="qcurve" smooth="yes"/>
      <point x="1575.3" y="351" type="line" smooth="yes"/>
      <point x="1588.3" y="425"/>
      <point x="1534.3" y="513"/>
      <point x="1464.3" y="529" type="qcurve"/>
      <point x="1532.3" y="546"/>
      <point x="1607.3" y="631"/>
      <point x="1620.3" y="702" type="qcurve" smooth="yes"/>
      <point x="1641.3" y="825" type="line" smooth="yes"/>
      <point x="1649.3" y="871"/>
      <point x="1636.3" y="937"/>
      <point x="1591.3" y="980"/>
      <point x="1514.3" y="1000"/>
      <point x="1457.3" y="1000" type="qcurve" smooth="yes"/>
      <point x="442.301" y="1000" type="line" smooth="yes"/>
      <point x="363.301" y="1000"/>
      <point x="266.301" y="917"/>
      <point x="252.301" y="838" type="qcurve" smooth="yes"/>
      <point x="228.301" y="699" type="line"/>
      <point x="263.301" y="692" type="line"/>
      <point x="287.301" y="832" type="line" smooth="yes"/>
      <point x="299.301" y="898"/>
      <point x="370.301" y="968"/>
      <point x="436.301" y="968" type="qcurve" smooth="yes"/>
      <point x="1451.3" y="968" type="line" smooth="yes"/>
      <point x="1500.3" y="968"/>
      <point x="1565.3" y="951"/>
      <point x="1601.3" y="915"/>
      <point x="1611.3" y="859"/>
      <point x="1604.3" y="820" type="qcurve" smooth="yes"/>
      <point x="1584.3" y="707" type="line" smooth="yes"/>
      <point x="1577.3" y="665"/>
      <point x="1541.3" y="603"/>
      <point x="1482.3" y="563"/>
      <point x="1399.3" y="543"/>
      <point x="1345.3" y="543" type="qcurve" smooth="yes"/>
      <point x="583.301" y="543" type="line"/>
      <point x="577.301" y="511" type="line"/>
      <point x="1344.3" y="511" type="line" smooth="yes"/>
      <point x="1402.3" y="511"/>
      <point x="1482.3" y="492"/>
      <point x="1530.3" y="451"/>
      <point x="1546.3" y="389"/>
      <point x="1538.3" y="346" type="qcurve" smooth="yes"/>
      <point x="1511.3" y="190" type="line" smooth="yes"/>
      <point x="1504.3" y="147"/>
      <point x="1474.3" y="87"/>
      <point x="1426.3" y="49"/>
      <point x="1355.3" y="32"/>
      <point x="1305.3" y="32" type="qcurve" smooth="yes"/>
      <point x="273.301" y="32" type="line" smooth="yes"/>
      <point x="207.301" y="32"/>
      <point x="160.301" y="102"/>
      <point x="171.301" y="168" type="qcurve" smooth="yes"/>
      <point x="193.301" y="291" type="line"/>
      <point x="156.301" y="284" type="line"/>
      <point x="134.301" y="162" type="line" smooth="yes"/>
      <point x="127.301" y="123"/>
      <point x="138.301" y="62"/>
      <point x="171.301" y="21"/>
      <point x="228.301" y="0"/>
      <point x="267.301" y="0" type="qcurve"/>
    </contour>
  </outline>
</glyph>
<glyph name="uni043A" format="2">
  <advance width="1796" height="1448"/>
  <unicode hex="043A"/>
  <anchor x="1133" y="1150" name="top"/>
  <outline>
    <contour>
      <point x="204.327" y="0" type="line"/>
      <point x="240.327" y="0" type="line"/>
      <point x="327.327" y="501" type="line"/>
      <point x="1568.33" y="0" type="line"/>
      <point x="1660.33" y="0" type="line"/>
      <point x="381.327" y="516" type="line"/>
      <point x="1683.33" y="1000" type="line"/>
      <point x="1603.33" y="1000" type="line"/>
      <point x="332.327" y="527" type="line"/>
      <point x="415.327" y="1000" type="line"/>
      <point x="379.327" y="1000" type="line"/>
    </contour>
  </outline>
</glyph>
<glyph name="uni043C" format="2">
  <advance width="2185"/>
  <unicode hex="043C"/>
  <outline>
    <contour>
      <point x="204" y="0" type="line"/>
      <point x="241" y="0" type="line"/>
      <point x="406" y="945" type="line"/>
      <point x="1015" y="252" type="line"/>
      <point x="1872" y="949" type="line"/>
      <point x="1706" y="0" type="line"/>
      <point x="1741" y="0" type="line"/>
      <point x="1916" y="1000" type="line"/>
      <point x="1886" y="1000" type="line"/>
      <point x="1025" y="300" type="line"/>
      <point x="409" y="1000" type="line"/>
      <point x="379" y="1000" type="line"/>
    </contour>
  </outline>
</glyph>
<glyph name="uni0442" format="2">
  <advance width="1569.93"/>
  <unicode hex="0442"/>
  <outline>
    <contour>
      <point x="648" y="0" type="line"/>
      <point x="684" y="0" type="line"/>
      <point x="853" y="968" type="line"/>
      <point x="1528" y="968" type="line"/>
      <point x="1534" y="1000" type="line"/>
      <point x="149" y="1000" type="line"/>
      <point x="143" y="968" type="line"/>
      <point x="817" y="968" type="line"/>
    </contour>
  </outline>
</glyph>
